<svg width="169" height="191" viewBox="0 0 169 191" fill="none" xmlns="http://www.w3.org/2000/svg">
<path d="M106.816 27.9765C111.366 28.3343 115.727 28.7527 120.109 28.8157C120.369 28.8194 120.632 28.8601 120.886 28.9172C122.289 29.232 122.46 29.5588 121.709 30.7726C121.273 31.4767 121.054 32.1854 120.959 33.0158C120.78 34.5816 119.714 35.799 119.175 37.2381C118.964 37.8011 118.745 38.2995 118.703 38.9275C118.535 41.4375 118.254 43.9354 117.381 46.3167C117.069 47.1697 117.226 47.9301 117.472 48.8245C117.843 50.1734 117.822 51.6478 117.877 53.0726C117.929 54.4083 117.756 55.7482 118.192 57.0626C118.381 57.6319 118.429 58.3316 118.123 58.8422C117.41 60.0318 117.943 61.0365 118.182 62.2078C118.362 63.0912 120.079 63.3854 118.985 64.7139C118.262 65.5927 118.942 66.8599 118.583 67.8341C118.248 68.7446 117.75 69.6219 117.278 70.4922C116.542 71.8494 115.645 73.2333 115.939 74.9525C116.192 76.4378 115.234 77.5972 114.896 78.9239C114.651 79.8864 114.496 80.8022 114.501 81.8432C114.509 83.5504 113.92 85.258 113.064 86.777C112.804 87.2395 112.386 87.8848 111.659 87.2757C111.208 86.8979 110.778 87.1493 110.383 87.3718C108.571 88.3945 106.993 89.5393 106.837 91.9976C106.76 93.2146 106.168 94.4 105.746 95.5531C105.285 96.8105 103.955 97.2887 102.727 97.3972C101.6 97.4969 100.68 97.5607 100.35 98.9275C100.254 99.3233 99.8082 99.8378 99.4427 99.9197C98.0969 100.221 97.5585 101.505 96.5622 102.212C96.1004 102.54 95.8892 103.007 96.0335 103.615C96.149 104.103 96.9307 104.671 96.3749 105.023C95.3022 105.702 95.5195 107.366 94.2062 107.751C93.0755 108.083 92.5735 108.998 92.1406 110.005C91.7199 110.982 91.304 111.966 90.8156 112.909C89.9141 114.648 89.9661 116.53 89.943 118.407C89.9376 118.841 90.1571 119.174 90.4602 119.451C91.1559 120.087 91.2284 120.936 91.2716 121.963C89.7358 121.588 88.2434 121.219 86.7096 121.607C86.4021 121.684 86.0578 121.605 85.7305 121.603C84.865 121.6 84.0403 121.098 83.8501 120.428C83.621 119.62 84.2674 118.939 85.1943 118.812C85.8644 118.721 86.0136 118.256 86.0186 117.66C86.0283 116.516 86.0555 115.373 86.0671 114.229C86.072 113.752 86.0746 113.224 85.5358 113.049C85.1434 112.921 84.6095 113.088 84.4859 113.421C83.8726 115.073 81.8302 115.177 81.1589 116.815C80.8385 117.597 79.1581 117.546 78.4377 116.906C76.6812 115.347 75.6735 115.319 73.7737 116.645C72.3578 117.632 70.7039 117.513 69.2958 116.913C67.7236 116.243 66.1751 115.484 64.7426 114.355C63.506 113.381 61.6924 113.008 60.1286 112.386C59.3486 112.076 58.4462 112.307 57.6707 112.769C56.3418 113.56 54.9177 113.977 53.3692 113.918C52.8344 113.898 52.3094 113.987 51.9448 114.449C51.1101 115.507 50.2092 116.523 49.4835 117.656C48.7612 118.784 45.8172 120.283 44.5831 119.884C43.8724 119.653 43.4372 119.011 43.1682 118.302C42.4869 116.505 41.3487 115.528 39.3512 115.838C38.4588 115.977 38.0661 115.011 37.3795 114.661C34.9212 113.411 34.1618 108.707 34.5748 106.841C34.7984 105.831 35.9333 105.204 35.8654 103.995C35.8476 103.678 36.059 103.353 36.0735 103.027C36.1171 102.051 35.4694 101.497 34.7386 102.048C33.7826 102.768 32.9128 102.546 31.9496 102.355C31.568 102.28 31.1666 102.305 30.7739 102.293C26.3931 102.154 22.0121 102.018 17.6312 101.879C16.0179 101.828 15.7528 101.653 15.707 100.052C15.6607 98.4341 15.3153 96.8379 15.3327 95.2399C15.3488 93.7748 14.888 92.646 13.976 91.611C13.4191 90.9791 12.901 90.3111 12.3261 89.6115C12.9834 89.1872 13.5765 89.3561 14.1305 89.3474C15.0274 89.3332 15.3152 88.8662 15.1098 88.0506C14.8928 87.1891 14.8298 86.3111 14.9016 85.4469C15.0843 83.2483 13.8976 81.4913 13.1634 79.6005C12.8458 78.7826 12.7569 78.0649 13.1001 77.292C13.2845 76.8766 13.836 76.4761 13.5591 76.0432C13.0605 75.2636 13.0808 74.2101 12.2999 73.6046C11.9873 73.3622 11.6319 73.1746 11.334 72.9161C10.8806 72.5226 10.9313 72.0979 11.3879 71.7443C11.7526 71.4618 12.1298 71.1848 12.5341 70.9705C13.2144 70.61 13.5292 70.0892 13.7919 69.3161C14.3366 67.7133 14.6497 65.9455 16.1965 64.8531C16.8127 64.418 16.8998 63.5997 16.862 62.8283C16.7833 61.2262 17.1247 59.8996 18.8491 59.3484C19.6078 59.1059 19.688 58.1932 20.151 57.6413C20.3362 57.4206 20.219 57.107 19.9966 56.9316C19.1723 56.2817 18.9807 55.3019 18.5634 54.405C18.1005 53.4099 17.9997 52.2536 17.1143 51.3812C16.3528 50.6308 16.5797 48.82 17.6727 47.9201C19.3029 46.5779 18.4724 45.1632 18.177 43.7346C18.0148 42.9505 17.282 42.8089 16.6411 42.6827C15.751 42.5074 14.8491 42.3933 13.9509 42.2631C13.7643 42.2361 13.4665 42.3332 13.3977 42.2378C12.4243 40.889 11.0199 41.3951 9.77268 41.3635C7.481 41.3053 5.18662 41.3696 2.89401 41.336C1.52321 41.3159 1.63938 41.2841 1.73874 39.823C1.87771 37.7795 2.20668 35.7353 1.21731 33.7136C0.768453 32.7963 0.846839 31.6491 1.10883 30.4392C1.56746 28.321 2.34595 26.058 1.12966 23.8496C0.808678 23.2668 0.0278841 22.5396 1.17233 21.8978C1.38786 21.777 1.38986 21.3813 1.26245 21.146C0.532206 19.7977 2.01749 18.7829 1.76608 17.4988C1.70766 17.2004 2.03887 17.102 2.31826 17.1003C2.84229 17.0972 3.36634 17.089 3.89037 17.0894C13.3247 17.0965 22.759 17.1049 32.1933 17.1114C32.7829 17.1118 33.3773 17.1458 33.961 17.0819C35.4015 16.9241 35.7041 16.3272 35.1554 14.8945C34.8813 14.179 34.8918 13.4961 35.2851 12.7767C36.3131 10.8962 36.7622 8.94492 35.6687 6.90263C35.477 6.54455 35.2548 6.13812 35.5718 5.78037C36.739 4.46276 37.4672 2.9638 37.2961 0.881836C38.328 1.41126 38.7287 2.08014 39.0069 2.80354C39.5104 4.11286 39.9502 5.44822 40.4054 6.77678C40.4694 6.96369 40.4526 7.17831 40.5031 7.37186C40.8238 8.59985 42.3466 9.35141 42.1391 10.6392C41.9221 11.9861 42.2608 13.1775 42.4806 14.4042C42.6729 15.4771 43.007 16.3817 44.2836 16.9696C45.3375 17.455 46.2555 18.385 47.4317 18.863C48.1265 19.1454 48.6583 19.819 48.7256 20.747C48.794 21.691 49.4152 22.1771 50.2963 22.2419C51.0754 22.2993 51.7117 22.4416 51.8752 23.3926C51.9733 23.9637 52.3727 24.046 52.9146 23.9969C56.1966 23.6991 59.4248 24.3353 62.6726 24.641C64.4934 24.8124 66.3273 24.9311 68.1439 25.0251C72.2582 25.2381 76.3391 25.8047 80.4533 26.0125C84.5567 26.2197 88.6444 26.7408 92.742 27.0875C94.7595 27.2582 96.7862 27.3024 98.8066 27.4419C101.412 27.6219 104.013 27.9746 106.816 27.9765Z" fill="#FBC80D"/>
<path d="M39.3197 143.307C38.3045 142.526 38.2796 141.719 38.7598 140.732C39.5784 139.05 40.0573 137.113 41.167 135.682C42.2553 134.279 42.3803 132.973 42.4728 131.312C42.5744 129.488 43.3575 127.679 43.985 125.917C44.3672 124.844 44.4468 124.179 43.9123 123.151C43.516 122.389 43.1986 121.583 42.8521 120.811C43.0267 120.691 43.1935 120.542 43.2182 120.564C44.4544 121.652 45.6731 121.064 47.0103 120.716C49.4762 120.073 50.6564 118.044 52.0086 116.215C52.5982 115.418 53.1769 115.056 54.117 115.109C55.3085 115.176 56.4427 114.884 57.5611 114.45C59.218 113.806 59.2546 113.755 61.2262 114.381C62.816 114.887 64.2865 115.589 65.7033 116.651C66.914 117.559 68.4883 118.267 70.0779 118.638C71.7609 119.031 73.1163 118.288 74.4893 117.45C76.0371 116.505 76.3786 116.583 77.62 117.998C78.154 118.606 78.7107 118.911 79.5184 118.641C80.6243 118.271 81.8264 118.393 82.5042 116.884C82.9054 115.991 84.0407 115.31 84.9289 114.405C85.4835 115.416 85.1858 116.409 85.1793 117.361C85.1766 117.746 84.8672 117.906 84.5444 118.03C84.1165 118.196 83.6378 118.338 83.4021 118.767C82.9572 119.578 82.0008 120.547 82.3933 121.266C82.9471 122.281 84.2689 122.821 85.4457 122.749C86.8617 122.662 88.2292 123.322 89.6751 122.823C90.431 122.562 91.0532 123.06 91.2284 123.952C91.3057 124.346 91.4289 124.73 91.5289 125.119C91.8966 126.55 92.1231 126.68 93.5369 126.235C93.9705 126.098 94.3942 125.947 94.855 126.381C94.4175 126.878 93.951 127.339 93.5644 127.862C92.8814 128.787 93.0429 129.373 94.0412 129.966C94.999 130.536 96.0471 130.582 97.0938 130.493C98.0663 130.41 98.8959 130.456 99.4243 131.49C99.636 131.904 100.132 132.033 100.594 132.153C101.094 132.283 101.699 132.391 102.029 132.739C103.241 134.017 105.011 134.151 106.37 135.111C106.962 135.529 107.707 135.588 108.4 135.779C110.505 136.362 112.583 137.031 114.153 138.777C114.629 139.306 114.855 139.715 114.492 140.338C113.841 141.456 113.844 142.606 114.162 143.838C114.326 144.472 114.322 145.176 114.274 145.839C114.167 147.31 113.605 147.979 112.164 148.265C111.395 148.417 110.855 148.769 110.417 149.418C110.009 150.022 109.57 150.627 109.047 151.122C108.015 152.097 107.431 153.208 107.603 154.687C107.655 155.137 107.63 155.539 107.161 155.905C105.883 156.902 104.748 157.968 104.892 159.93C104.956 160.808 104.526 161.769 103.406 162.03C102.732 162.187 102.359 162.684 102.659 163.381C102.959 164.08 102.617 164.433 102.259 164.963C101.41 166.221 100.21 167.205 99.6439 168.7C99.3673 169.431 98.7021 170.029 97.9832 170.363C96.3068 171.143 94.8537 172.292 93.2733 173.228C92.9349 173.428 92.4803 173.604 92.3253 173.918C91.3233 175.953 89.2464 176.491 87.5693 177.556C86.472 178.252 85.8545 179.086 85.6819 180.41C85.4551 182.15 84.8123 183.676 82.9183 184.147C82.1448 184.339 81.9115 184.937 81.7555 185.607C81.4678 186.845 81.1817 188.084 80.9283 189.33C80.6079 190.905 79.6228 191.35 78.4259 190.345C75.0237 187.486 75.7133 188.456 72.1877 189.648C71.2436 189.968 70.3423 190.26 69.3738 190.295C67.4205 190.366 67.4005 190.321 67.1573 188.302C67.1254 188.038 67.1325 187.727 66.9984 187.523C66.1979 186.305 66.0612 185.011 66.1969 183.556C66.2948 182.508 66.3846 181.369 65.4231 180.424C64.9902 179.998 64.776 178.955 64.9489 178.334C65.4779 176.436 64.7761 174.934 64.0319 173.292C63.3418 171.769 62.5353 170.879 60.8931 170.882C59.2474 170.885 57.7944 170.66 56.8928 168.955C56.4982 168.209 55.6119 168.212 54.8728 168.898C53.4102 170.256 51.8594 170.757 49.8579 170.227C48.2992 169.815 46.5964 170.204 45.004 169.682C44.6416 169.563 44.2383 169.625 43.9463 169.27C43.3004 168.486 42.5225 168.59 41.6235 168.794C40.1453 169.131 39.8981 168.773 40.1687 167.237C40.4192 165.815 40.9195 164.388 40.1479 162.949C39.8574 162.407 40.2632 161.913 40.4707 161.434C41.3239 159.462 41.3548 157.437 40.9721 155.348C40.7452 154.109 40.8317 152.786 39.6527 151.931C39.4735 151.801 39.3019 151.401 39.3678 151.217C39.7323 150.199 39.0219 149.647 38.5987 148.911C37.8428 147.596 38.0841 146.856 39.2433 146.285C41.2897 145.277 41.3165 144.864 39.3197 143.307Z" fill="#FBC80D"/>
<path d="M153.933 106.747C154.479 107.57 155.113 108.102 155.268 109.074C155.466 110.311 155.373 111.223 154.299 111.965C153.374 112.605 152.897 113.697 152.084 114.486C151.167 115.378 151.794 116.923 153.078 117.204C154.672 117.553 154.689 117.56 154.087 119.082C153.763 119.9 153.367 120.702 153.825 121.584C154.154 122.219 153.813 122.691 153.407 122.981C151.877 124.074 150.717 125.639 148.995 126.496C148.21 126.887 147.481 127.007 146.76 126.566C144.861 125.403 142.733 125.915 140.716 125.651C139.695 125.517 138.625 125.476 137.623 125.473C136.195 125.47 134.651 125.961 133.678 127.232C133.221 127.829 132.675 128.223 132.146 128.685C131.043 127.339 131.018 127.29 129.5 128.115C128.425 128.699 127.37 128.82 126.15 128.833C124.868 128.847 123.403 129.058 122.316 129.85C121.161 130.691 120.237 131.884 119.815 133.342C119.681 133.805 119.654 134.338 119.161 134.487C117.355 135.033 116.601 136.652 115.567 138.205C113.479 135.875 110.705 135.212 107.918 134.592C107.194 134.431 106.596 134.011 105.962 133.676C104.185 132.739 102.554 131.508 100.62 130.893C100.222 130.766 99.9591 130.486 99.6722 130.209C98.9692 129.53 98.2246 129.134 97.1981 129.569C96.516 129.859 95.7815 129.673 95.0961 129.377C94.1499 128.968 94.0671 128.512 94.8504 127.784C95.139 127.515 95.5195 127.344 95.7833 127.056C96.3828 126.402 96.2534 125.866 95.4463 125.5C94.5068 125.074 93.5287 125.313 92.5848 125.377C92.2259 124.946 92.1325 124.305 92.3199 124.02C93.5896 122.088 91.9947 120.668 91.5114 119.087C91.337 118.517 91.0271 117.954 91.1135 117.377C91.3817 115.586 91.202 113.632 92.7259 112.244C92.9007 112.084 93.0813 111.753 93.0386 111.55C92.7699 110.274 93.7364 109.702 94.4543 109.139C95.3516 108.436 96.0389 107.583 96.7832 106.745C97.7618 105.644 98.2015 104.575 97.158 103.307C97.7174 102.735 98.5574 102.619 98.6618 101.709C98.7101 101.288 99.1503 101.11 99.5423 101C99.9288 100.891 100.395 100.761 100.536 100.407C101.147 98.8719 102.382 98.5147 103.807 98.3181C105.243 98.1202 106.118 97.0817 106.635 95.7931C107.204 94.3734 107.814 92.9652 108.029 91.4067C108.291 89.5074 109.693 88.3956 111.536 88.4711C112.864 88.5256 113.905 87.8197 114.302 86.4572C114.879 84.4761 115.684 82.5368 115.492 80.3895C115.436 79.7671 115.562 79.0585 116.003 78.7016C117.11 77.8057 116.996 76.5249 116.927 75.428C116.801 73.4248 117.641 71.873 118.536 70.2509C119.13 69.174 119.919 68.0968 119.535 66.7015C119.501 66.578 119.497 66.4198 119.542 66.3031C120.179 64.6466 120.827 62.9945 121.507 61.2534C121.896 61.6946 121.827 62.0373 121.817 62.3539C121.791 63.2213 122.152 63.7853 122.995 63.9429C126.034 64.5111 128.561 66.1927 131.134 67.8008C132.649 68.7476 133.013 68.5299 133.163 66.7351C133.209 66.1846 133.332 65.7134 133.619 65.2309C134.477 63.7857 134.453 63.7687 136.026 64.3807C136.323 64.4964 136.604 64.7413 136.943 64.557C137.424 64.2954 138.085 63.4193 138.392 64.0952C138.891 65.1922 140.251 65.5529 140.333 66.9709C140.439 68.7917 140.785 69.0074 142.471 68.6492C143.229 68.4883 143.982 68.2362 144.784 67.7044C145.066 68.4454 145.155 69.2175 146.399 68.9138C147.581 68.6252 148.956 68.8793 149.983 69.9703C150.785 70.8217 151.283 70.6535 151.569 69.5649C151.651 69.251 151.593 68.9009 151.629 68.5707C151.74 67.5328 151.897 67.4186 152.786 68.0801C153.283 68.4495 153.69 68.419 154.225 68.3664C156.255 68.1671 157.991 67.2077 159.574 66.0373C160.603 65.2761 161.596 64.9442 162.818 65.057C163.526 65.1223 164.245 65.0688 165.164 65.0688C165 66.7775 164.88 68.3413 165.78 69.7728C166.063 70.224 166.133 71.024 165.954 71.5363C165.378 73.1808 165.864 74.8321 165.706 76.441C165.605 77.4699 165.831 77.9118 166.543 78.3683C166.93 78.6169 167.3 78.8959 167.672 79.1698C168.378 79.6901 168.857 80.0959 168.377 81.2529C167.973 82.2266 168.237 83.4976 168.226 84.6372C168.22 85.3799 168.011 85.9565 167.234 86.1599C166.79 86.2762 166.362 86.4539 166.062 85.8598C165.712 85.1661 164.943 84.9529 164.416 84.4576C164.04 84.1046 163.623 83.948 163.176 84.268C162.679 84.6234 162.333 85.0506 162.395 85.7705C162.595 88.0864 162.574 88.0882 160.463 87.6201C159.23 87.3465 158.669 87.7657 158.615 89.0583C158.58 89.8795 158.04 90.7542 158.837 91.5161C158.92 91.5953 158.873 91.9164 158.788 92.0668C158.076 93.3275 158.365 94.3802 159.099 95.5905C160.023 97.1169 159.616 97.753 157.886 97.8547C156.904 97.9124 155.968 98.0072 155.258 98.8214C154.618 98.1075 154.87 97.4913 155.014 96.8335C155.573 94.2789 154.577 93.0312 152.014 93.0193C150.114 93.0105 148.213 93.0579 146.315 93.0021C145.253 92.9708 144.653 93.1636 144.515 94.4676C144.355 95.9792 143.733 97.4166 143.82 99.0014C143.873 99.9766 144.252 100.281 145.143 100.266C147.304 100.231 149.466 100.246 151.628 100.25C153.832 100.254 154.408 101.21 153.351 103.188C153.092 103.672 152.876 104.132 152.832 104.682C152.761 105.553 152.927 106.288 153.933 106.747Z" fill="#FBC80D"/>
</svg>
