<svg width="152" height="204" viewBox="0 0 152 204" fill="none" xmlns="http://www.w3.org/2000/svg">
<path d="M87.3943 99.2943C87.8407 99.0989 88.1324 98.885 88.4534 98.8146C90.5288 98.3599 91.2057 96.8353 91.267 94.6472C92.3405 95.0465 93.2538 94.671 94.1732 94.3445C94.6298 94.1824 95.0528 93.9311 95.278 93.4775C95.8332 92.3594 96.1885 91.0475 97.743 90.9986C97.9642 89.503 99.2567 89.26 100.265 88.6711C101 88.2417 101.635 88.3463 101.908 89.1578C102.208 90.05 102.753 90.2188 103.572 90.3272C104.809 90.491 105.881 91.3308 107.213 91.3215C107.7 91.3182 108.031 91.9694 108.257 92.5058C108.445 92.9491 108.694 93.3514 109.266 93.3928C111.442 93.5498 111.941 93.9097 112.701 95.8054C112.96 96.4487 113.193 97.1038 113.476 97.7348C113.616 98.045 113.808 98.5249 114.037 98.566C116.011 98.9201 115.289 100.494 115.534 101.718C115.811 103.108 115.571 104.841 117.475 105.479C118.288 105.752 118.957 108.325 118.38 108.772C117.238 109.658 117.728 110.779 117.698 111.803C117.655 113.254 117.442 113.516 116.115 113.245C116.05 113.232 115.99 113.192 115.926 113.171C115.062 112.877 114.202 112.668 113.558 113.605C112.938 114.508 112.955 116.083 113.762 116.913C114.991 118.177 115.724 119.617 116.027 121.388C116.236 122.607 119.108 124.314 120.389 124.11C120.845 124.037 121.274 123.743 121.858 124.151C121.167 126.508 120.206 128.802 118.883 130.861C117.208 133.465 115.615 136.152 113.481 138.413C113.059 138.86 112.661 139.349 112.175 139.707C111.696 140.06 111.148 140.429 110.564 139.768C109.985 139.115 109.436 139.395 109.089 140.02C108.459 141.154 107.506 141.878 106.458 142.534C105.251 143.29 104.863 144.18 105.367 145.482C105.752 146.478 105.661 147.39 105.244 148.24C104.944 148.85 104.765 149.512 104.961 150.037C105.856 152.433 104.927 154.698 104.64 157.008C104.563 157.629 104.441 158.246 104.294 158.853C104.094 159.679 103.942 160.564 104.152 161.342C105.274 165.517 104.538 169.975 106.015 174.081C106.255 174.748 105.993 175.301 105.825 175.899C105.003 178.818 103.94 181.678 103.523 184.7C103.014 188.391 101.886 192.048 102.747 195.841C102.992 196.917 102.437 197.735 101.704 198.136C99.6289 199.272 98.3378 201.028 97.5071 203.295C95.6057 202.412 94.1468 201.023 92.4398 200.06C92.1761 199.911 92.0169 199.638 92.1109 199.367C92.9345 196.99 91.0145 195.969 89.8209 194.732C88.8056 193.681 87.7067 192.899 88.2907 191.162C88.4364 190.729 88.2772 190.193 88.2945 189.705C88.3554 187.99 88.547 187.797 90.224 187.701C91.3542 187.636 91.7875 187.095 91.397 185.902C91.028 184.774 91.0718 184.038 92.3051 183.638C92.9077 183.442 93.0881 182.684 93.3815 182.215C94.157 180.977 95.608 180.273 95.864 178.595C95.9975 177.719 95.9179 177.07 95.3107 176.534C93.8049 175.206 92.4187 173.794 90.1959 173.592C89.0371 173.487 87.8125 173.069 86.6408 172.423C85.3985 171.738 83.6822 171.172 82.236 172.56C81.7736 173.003 81.0948 172.894 80.4831 172.868C79.8451 172.84 79.4056 172.562 79.4667 171.867C79.5807 170.567 78.7939 169.819 78.0002 169.041C77.0202 168.082 76.0374 167.123 75.0991 166.12C74.4607 165.438 73.8352 165.141 72.9675 165.696C72.1657 166.208 71.3256 166.332 70.5344 165.628C70.1428 165.28 69.6797 165.246 69.1995 165.29C68.6375 165.342 68.0808 165.219 67.6559 164.887C65.9384 163.546 63.8652 162.818 62.1843 161.412C60.2005 159.753 58.0442 159.612 55.7779 160.78C55.3221 161.015 54.9984 161.559 54.3359 161.324C53.4415 161.005 52.5249 160.736 51.761 160.145C51.3367 159.816 51.3491 159.274 51.4755 158.793C51.5982 158.325 51.8173 157.886 51.9755 157.427C52.3365 156.38 52.1557 156.022 51.2334 155.717C46.9491 154.3 43.1924 155.423 39.7984 158.253C39.2443 158.715 39.0211 159.456 38.2983 159.853C36.0393 161.094 34.0341 162.809 31.5703 163.685C31.2182 163.81 30.9388 164.192 30.6585 164.488C29.914 165.275 29.017 165.633 27.7089 165.667C28.3031 164.428 27.3133 163.526 27.3575 162.48C27.4128 161.168 27.6702 159.856 27.9412 158.567C28.3821 156.471 28.2644 155.554 26.5124 154.598C24.9077 153.721 24.8781 152.331 24.8838 150.94C24.8898 149.471 25.7133 148.057 25.2284 146.511C25.1235 146.176 25.4409 145.891 25.7292 145.674C26.1075 145.388 26.5169 145.114 26.8071 144.745C27.2153 144.227 26.8975 143.617 26.2479 143.579C26.117 143.571 25.9786 143.598 25.8519 143.637C25.301 143.809 24.6104 144.293 24.3816 143.339C24.193 142.553 24.0794 141.645 25.0678 141.178C25.371 141.034 25.6932 140.873 25.9209 140.633C26.3815 140.147 26.4675 139.6 25.705 139.377C25.1344 139.209 24.6196 139.05 24.7001 138.338C24.8033 137.424 24.2325 136.322 25.2061 135.639C26.005 135.078 26.0717 134.781 25.2071 134.164C23.9749 133.285 23.4458 131.961 23.4823 130.378C23.5015 129.542 23.5708 128.873 24.519 128.641C24.9578 128.533 25.4988 128.348 25.4529 127.722C25.4128 127.176 24.9134 127.206 24.5251 127.13C24.0072 127.029 23.9289 126.633 23.9634 126.184C23.9975 125.74 24.1627 125.346 24.5976 125.21C24.913 125.111 25.2617 125.128 25.595 125.088C25.9861 125.041 26.5065 125.089 26.5145 124.527C26.5211 124.064 26.0847 123.853 25.6902 123.719C24.8618 123.437 24.0819 122.973 23.1786 122.966C22.023 122.956 21.5592 122.166 21.2355 121.183C21.1458 120.91 20.9921 120.515 21.18 120.405C22.4226 119.678 22.3941 118.103 23.2553 117.173C23.8782 116.5 24.3704 115.775 24.6631 114.935C25.3105 113.078 26.9898 112.311 28.3062 111.189C29.4892 110.181 30.7156 109.274 31.1221 107.431C32.3168 108.628 33.0772 109.651 32.9113 111.344C32.7368 113.125 34.3184 115.073 36.0433 115.402C36.7946 115.545 37.4708 115.728 38.0909 116.176C38.9604 116.804 39.875 116.56 40.4798 115.897C41.0843 115.234 41.8567 114.802 42.4232 114.161C43.5242 112.914 44.8573 112.641 46.3378 112.889C48.1965 113.201 47.973 113.015 49.2886 111.682C50.8473 110.102 51.7178 108.116 52.9865 106.383C53.824 105.239 53.751 103.321 52.764 102.269C52.4222 101.904 52.194 101.499 51.9911 101.061C51.4031 99.7909 51.4972 99.4664 52.6805 98.6972C53.1361 98.401 53.6321 98.1617 54.0555 97.8239C54.8783 97.1675 55.5811 96.7827 56.3939 97.9211C56.8976 98.6265 57.7694 98.7363 58.6167 98.655C59.6005 98.5605 60.4796 98.6665 61.0414 99.7074C61.2223 100.043 61.7006 100.191 61.9695 100.494C62.4576 101.045 62.8965 101.131 63.5478 100.709C65.1707 99.6593 67.1162 99.2596 68.5099 97.6761C69.3083 96.7691 70.6987 96.7237 71.9211 96.8461C73.0461 96.9587 73.7753 96.6217 74.3498 95.5064C74.8674 94.5014 75.5407 93.5261 76.7971 93.1659C77.6779 92.9134 77.8095 91.7647 78.4619 91.1465C79.138 90.5059 80.5061 89.9967 81.0351 90.5963C81.6587 91.303 82.3267 91.7695 83.1958 92.0197C83.6127 92.1397 83.8131 92.541 83.9731 92.933C84.1036 93.2528 84.1959 93.5899 84.3345 93.9055C85.3905 96.31 85.3928 96.3089 84.8789 99.2591C85.7185 98.928 86.4744 99.2381 87.3943 99.2943Z" fill="#FB8E0D"/>
<path d="M60.4135 36.4627C60.3952 37.3972 60.3732 38.1757 61.0573 38.7184C61.8809 39.3719 61.7615 40.2035 61.2878 40.94C60.6028 42.005 60.7113 42.9956 61.1831 44.0901C61.5652 44.9765 61.8618 45.9123 62.1011 46.8522C62.4041 48.0417 62.2611 49.1529 61.379 50.1058C60.7318 50.8049 60.1839 51.6014 59.5486 52.3135C59.2404 52.6589 59.1735 53.0355 59.1744 53.4583C59.1767 54.5048 59.1794 55.5513 59.1921 56.5977C59.208 57.9071 59.5944 59.0488 60.6822 59.8185C61.6724 60.5191 61.7656 61.5088 61.5838 62.5971C61.4808 63.2146 61.3376 63.8248 61.2258 64.4408C61.0349 65.4923 60.3883 65.965 59.3958 66.0548C58.7304 66.1151 58.0489 66.0205 57.4078 66.3392C56.2246 66.9274 55.1348 66.8746 54.0715 65.9409C53.2962 65.2602 52.3666 65.5298 51.3988 65.6064C48.92 65.8025 47.3213 67.1326 46.1872 69.2471C45.7999 69.9691 45.2071 70.3581 44.5299 70.6974C44.1077 70.909 43.592 71.0914 43.3329 71.4518C42.0958 73.1727 39.953 73.3327 38.4269 74.5786C37.7379 75.1411 36.6597 75.3377 35.7782 75.4843C33.2672 75.9019 32.0813 77.6958 31.7814 79.8722C31.4015 82.6302 29.9878 84.943 29.3089 87.549C29.0745 88.4488 28.5803 89.2692 27.8503 89.9869C26.8909 90.9303 26.4412 92.1922 27.1931 93.5824C27.568 94.2757 27.5928 95.0498 27.6457 95.8165C27.6743 96.2315 27.7028 96.6477 27.7607 97.059C27.8504 97.6965 28.8043 97.8145 28.6593 98.589C28.1859 101.117 28.7217 103.747 27.9231 106.238C27.8634 106.424 27.7414 106.682 27.5943 106.731C26.2802 107.162 24.9342 106.954 23.6923 106.554C22.7663 106.257 22.2954 105.313 22.3204 104.226C22.3335 103.656 22.2903 103.052 21.8499 102.676C20.9036 101.868 20.5037 101.129 21.3604 99.8877C21.8207 99.2208 20.9993 97.9234 19.8256 97.5554C18.9804 97.2904 18.5486 96.8832 18.4075 96.0556C18.2347 95.0418 17.696 94.266 16.9435 93.6417C16.6102 93.3653 16.2355 93.1026 16.5494 92.6361C17.6138 91.054 17.6615 89.1154 18.3177 87.3925C18.6063 86.6349 19.1269 85.8622 19.815 85.8156C21.9593 85.6703 21.8915 83.9855 22.1742 82.5349C22.4268 81.2393 21.5744 79.9635 20.3156 79.8246C19.4554 79.7297 18.5812 79.7651 17.731 80.1342C17.0649 80.4234 16.3834 81.2646 15.7381 80.8909C15.0238 80.4771 14.3621 79.668 14.0521 78.8744C13.5684 77.6364 12.6206 76.8745 11.8462 75.9281C11.42 75.4072 10.9564 74.9661 10.9097 74.1549C10.8154 72.5151 10.749 72.5135 9.22009 72.2467C8.94658 72.1989 8.69264 72.1536 8.46117 71.7928C9.84218 70.6627 10.6768 69.2474 10.6688 67.29C10.6648 66.2822 11.1449 65.2737 11.3971 64.2631C11.8135 62.5942 12.1557 60.9604 11.7955 59.1789C11.3764 57.1066 11.1982 54.9769 11.0046 52.8634C10.9186 51.9241 10.4926 51.3104 9.79089 50.8192C8.54602 49.9478 6.87868 49.7725 5.99579 48.2779C5.79666 47.9408 5.25924 47.9968 4.8501 48.0268C2.66003 48.1876 2.66008 48.1885 0.570312 46.9268C2.15656 45.5864 3.65801 44.2567 5.2251 43.0156C6.21136 42.2345 7.03952 41.1061 8.52204 41.2179C8.78438 41.2377 9.15172 40.9231 9.33915 40.6619C10.4577 39.1036 11.7512 37.6515 12.5057 35.8573C12.7877 35.1867 13.0804 34.6397 13.6571 34.22C14.8663 33.3399 15.5138 32.1111 15.8711 30.6224C16.3059 28.8103 17.1287 27.1955 18.3753 25.7721C19.2641 24.7572 20.0173 23.5143 20.2264 22.138C20.4056 20.9582 21.5146 19.9315 20.812 18.5833C20.7571 18.478 21.0437 18.0922 21.2458 17.9488C22.4064 17.1254 22.823 15.969 22.8262 14.5615C22.8275 14.0047 23.0053 13.4156 23.4541 13.0626C24.4594 12.2718 24.7115 11.1607 24.8877 9.96279C25.3318 6.94372 26.3319 4.02388 26.2565 0.881836C27.4422 0.900008 28.1765 1.61586 28.8182 2.24836C29.4637 2.88461 30.0791 3.28579 30.9403 3.14628C31.8405 3.00045 32.3523 3.31217 32.5322 4.25905C32.5786 4.5036 32.7871 4.76549 32.9917 4.91858C33.7109 5.45681 33.3532 7.02379 34.4392 6.92994C35.0148 6.8802 35.4766 5.82114 36.0543 5.29321C36.7295 4.6761 37.9199 4.27204 38.3819 4.70502C39.0052 5.28911 40.2364 5.79918 39.9095 7.10569C39.724 7.84698 39.953 8.11315 40.6659 8.18411C42.2938 8.34615 43.1769 9.3447 43.3868 10.992C43.4416 11.422 43.5789 11.7439 43.8735 12.0823C44.3687 12.6511 44.6186 13.3481 44.586 14.1698C44.5268 15.663 45.208 16.3436 46.6305 16.0892C47.6146 15.9132 48.4631 15.5824 48.8352 16.9934C48.9729 17.516 49.5053 17.3662 49.8352 17.0791C50.139 16.8146 50.5059 16.5051 50.6123 16.1424C50.9868 14.8662 52.1989 14.5161 52.9906 13.7116C53.4532 13.2416 53.9664 13.2794 54.2952 13.9587C54.6138 14.617 55.0344 14.8127 55.772 14.5633C56.8575 14.1961 57.8837 14.5687 58.8782 15.0901C60.9136 16.1571 62.9807 17.1599 65.0102 18.2384C65.5108 18.5044 66.0017 18.6659 66.547 18.6679C67.5587 18.6717 68.5979 18.8034 69.5746 18.6084C70.5722 18.4092 71.1584 19.7727 72.2078 19.1494C72.5147 18.9672 72.7735 19.2867 72.8964 19.6856C73.4045 21.3354 72.6157 23.5825 71.0588 24.38C70.4211 24.7066 69.9402 24.97 69.6545 25.7033C69.2949 26.6263 68.3935 26.669 67.5751 26.6302C66.4762 26.578 65.7539 26.8893 65.144 27.9928C64.5228 29.1168 63.8053 30.0745 63.4369 31.4195C63.0371 32.879 61.8398 34.1047 60.9905 35.4326C60.806 35.7211 60.6227 36.0105 60.4135 36.4627Z" fill="#FB8E0D"/>
<path d="M74.518 20.2344C75.66 20.7996 76.6578 21.2244 77.8753 21.2393C79.1999 21.2554 79.5492 22.093 78.9888 23.3757C78.7112 24.0111 78.3752 24.6195 78.1037 25.2575C77.9713 25.5686 77.749 26.0965 77.8689 26.2249C79.0162 27.4532 77.9296 29.3139 79.1263 30.5949C79.6109 31.1137 79.3481 32.1963 79.5784 33.0377C79.804 33.8618 79.6094 34.5881 80.6987 34.7698C81.0291 34.8249 81.0211 35.3479 81.0275 35.6851C81.0432 36.5169 81.0494 37.3316 80.7616 38.1548C80.2887 39.5072 79.9187 40.8435 79.7934 42.354C79.6105 44.5602 80.419 45.9571 81.9151 47.1267C82.6877 47.7306 83.1836 48.3777 83.1205 49.3729C82.9483 52.0857 83.5785 54.7534 83.5169 57.4549C83.5017 58.1253 83.7274 58.716 83.9736 59.2514C84.738 60.9134 84.5046 62.7896 85.16 64.4817C85.5485 65.4851 86.0992 66.0455 87.0725 66.3774C88.8006 66.9666 89.2068 67.8377 88.5877 69.6872C88.3007 70.5444 87.9952 71.3722 87.8553 72.2795C87.7294 73.0962 87.4481 73.8465 86.5277 74.1877C85.6969 74.4956 85.4273 75.1677 85.926 76.0293C86.2113 76.5221 86.4006 77.0306 86.1651 77.6141C85.8692 78.3473 86.2257 78.8484 86.7953 79.1768C87.7635 79.7352 87.5712 80.4721 87.2439 81.3196C86.5025 83.2399 84.9729 84.4581 83.3916 85.4256C82.3804 86.0443 81.502 86.7259 80.7346 87.5847C80.1805 88.205 79.6873 88.8732 78.8558 89.0915C78.3185 89.2325 78.1745 89.7041 77.9204 90.1101C77.257 91.1698 76.5105 92.1517 75.3252 92.6462C74.7269 92.8957 74.3941 93.3463 74.1392 93.9741C73.6762 95.1141 72.9791 95.7662 71.5655 95.8349C69.7206 95.9246 67.8193 96.2446 66.5201 98.0071C65.6984 99.1218 64.172 98.8396 63.0737 99.5342C62.6352 99.8115 61.8735 99.2387 61.6538 98.6673C61.0624 97.1288 59.8325 97.1438 58.6515 97.3512C57.7242 97.5141 57.0485 97.3292 56.5063 96.6108C55.869 95.7662 55.1847 95.75 54.4284 96.3846C53.6417 97.0446 52.7779 97.5754 51.9236 98.1337C50.5703 99.0183 50.4847 99.9567 51.0702 101.556C51.383 102.41 52.1565 102.881 52.351 103.859C52.6484 105.354 51.5215 106.221 51.1721 107.41C50.8957 108.351 50.4547 109.534 49.0974 109.714C48.5531 109.786 48.7264 110.537 48.5283 110.957C48.0196 112.035 47.4723 112.301 46.4639 111.7C45.8499 111.334 45.3829 111.17 44.845 111.685C44.1487 112.352 43.0907 111.854 42.3986 112.52C41.6656 113.226 40.8533 113.862 40.2149 114.649C39.6343 115.365 39.0712 115.592 38.3025 115.112C37.3257 114.503 36.0241 114.687 35.1899 113.753C34.4396 112.913 33.4432 112.204 34.0028 110.754C34.266 110.072 33.9993 109.377 33.5044 108.829C33.0379 108.312 32.7176 107.713 32.4447 107.065C31.9159 105.81 31.6953 105.768 30.4946 106.409C30.0529 106.644 29.7164 106.914 29.5528 107.424C29.459 107.717 29.1822 107.834 28.904 107.652C28.6614 107.493 28.567 107.254 28.6832 106.939C29.6311 104.375 29.1956 101.572 29.958 98.9736C30.0603 98.6249 30.0912 98.22 29.8309 97.9839C28.3545 96.6451 28.8035 94.5983 28.0757 92.9858C27.7175 92.1922 28.0665 91.4393 28.5578 90.8562C29.5929 89.6277 30.4541 88.3535 30.5982 86.6559C30.6374 86.1952 30.9138 85.735 31.1511 85.317C32.1186 83.6131 32.5834 81.7484 32.9199 79.8251C33.3123 77.5822 34.9697 76.6666 36.8498 76.1343C38.0239 75.8019 39.2119 75.6019 40.1299 74.666C40.2993 74.4934 40.6402 74.3657 40.8661 74.4105C41.8423 74.6043 42.3541 73.9295 42.9128 73.332C43.7149 72.4739 44.5285 71.6385 45.708 71.3538C46.3681 71.1945 46.6842 70.6751 46.9846 70.1094C47.3084 69.4995 47.6319 68.8768 48.0462 68.3337C48.8834 67.2362 50.2042 67.1877 51.3535 66.7224C52.7478 66.1579 53.7169 66.6864 54.67 67.5058C55.3979 68.1315 56.1039 68.2045 56.896 67.7366C57.6251 67.306 58.4179 67.2749 59.2351 67.2167C60.9822 67.0922 61.7293 66.4197 62.1929 64.621C62.4514 63.6181 62.6352 62.5897 62.7799 61.5618C62.8807 60.8454 62.6462 60.2718 62.0665 59.7336C59.4694 57.3226 59.0251 53.9102 61.5645 51.3612C63.841 49.0761 63.2036 46.8714 62.4519 44.5103C62.0529 43.2574 61.7579 42.1368 62.3388 40.8981C62.8315 39.8474 62.7049 38.872 61.8702 38.0435C61.0603 37.2393 61.3505 36.7678 61.9772 35.8299C63.1271 34.1089 64.5426 32.5062 64.8912 30.2223C65.1441 28.5661 66.6376 27.7456 68.1721 27.5904C69.3835 27.4678 70.0671 26.822 70.866 26.0189C71.9082 24.9711 72.9646 23.9769 73.7334 22.6766C74.0878 22.0771 74.5253 21.549 74.4495 20.6456C74.4239 20.41 74.4037 20.3195 74.518 20.2344Z" fill="#FB8E0D"/>
<path d="M108.329 29.8816C110.94 30.541 112.207 32.7299 113.754 34.4538C115.085 35.9366 116.325 37.4767 117.94 38.65C118.374 38.9647 118.721 39.4098 119.091 39.812C119.972 40.77 120.796 41.7517 122.224 41.9086C122.855 41.978 123.462 42.4004 123.789 43.0465C123.437 43.5711 122.919 43.6677 122.507 43.6937C119.939 43.8559 119.151 45.8681 118.345 47.8663C117.759 49.3189 117.387 50.8572 116.164 51.9856C115.533 52.5678 115.051 53.339 114.961 54.3284C114.848 55.5664 114.104 56.4915 113.254 57.3214C113.069 57.502 112.968 57.8734 112.656 57.7746C111.144 57.2963 110.845 58.66 110.273 59.4974C109.675 60.3738 108.887 61.2521 109.302 62.5022C109.424 62.8677 109.361 63.209 109.142 63.4865C108.585 64.1928 108.59 65.032 108.548 65.8682C108.534 66.1452 108.582 66.5196 108.432 66.6805C107.161 68.0457 107.349 69.3783 108.149 70.96C108.448 71.5514 108.493 72.2243 109.172 72.5538C109.859 72.8875 109.731 73.3853 109.4 73.9253C108.351 75.6405 107.119 77.154 105.392 78.2092C104.945 78.4823 104.693 78.4677 104.348 78.16C103.89 77.7531 103.259 77.4573 102.981 76.9505C102.1 75.3472 100.571 74.5776 99.2483 73.5208C97.8403 72.3959 96.2394 72.3458 94.8808 73.0938C93.029 74.1132 91.2543 73.7128 89.4127 73.508C88.8988 73.4509 88.7796 73.0857 88.7523 72.6277C88.7179 72.049 88.79 71.4322 89.1404 71.0358C90.0832 69.9693 89.376 68.4543 90.1808 67.353C90.3991 67.0541 90.026 66.7234 89.7181 66.5549C89.1305 66.2333 88.6649 65.6943 87.9375 65.6182C86.3593 65.4529 85.6936 64.081 85.6523 62.8704C85.6115 61.6711 85.3096 60.6079 85.0617 59.4958C84.3626 56.3593 84.1167 53.1767 84.2815 49.9728C84.3636 48.3786 84.0843 47.0761 82.6089 46.2773C81.8623 45.8732 81.6424 44.9586 81.0036 44.427C80.6579 44.1394 80.7945 43.7022 80.8436 43.2687C81.0973 41.0283 81.3915 38.7962 81.9326 36.6092C82.2358 35.3841 82.0202 34.3289 81.2265 33.3601C80.6619 32.6709 80.0792 31.9558 80.5249 30.9256C80.5998 30.7525 80.6178 30.3862 80.5296 30.3294C78.9298 29.3002 80.0884 27.3485 79.1628 26.0471C78.6638 25.3456 79.3492 24.5803 79.7596 23.9762C80.3185 23.1534 80.7571 22.3378 80.4334 21.2397C83.2814 20.9238 85.979 20.406 88.688 20.0488C91.1437 19.7251 93.5866 20.0479 95.8828 21.3953C97.8072 22.5246 99.545 24.0208 101.694 24.7388C101.945 24.8227 102.229 24.9496 102.391 25.1491C104.006 27.1353 106.398 28.071 108.329 29.8816Z" fill="#FB8E0D"/>
<path d="M119.592 91.5458C118.928 90.9911 118.304 91.1564 118.119 91.7037C117.489 93.5722 116.083 94.5511 114.528 95.4236C114.368 95.5134 114.28 95.739 114.168 95.8879C113.372 95.4279 113.462 94.7275 113.467 94.0534C113.473 93.2168 113.153 92.71 112.254 92.8163C111.664 92.8861 111.31 92.9188 111.32 91.9986C111.333 90.804 110.851 90.5806 109.786 91.0014C109.491 91.1178 109.224 91.5598 108.907 91.3027C107.368 90.0574 105.333 90.2073 103.691 89.2661C103.262 89.0207 102.919 88.7259 102.667 88.2948C102.414 87.8618 102.053 87.5667 101.566 87.4368C100.95 87.2723 97.4024 88.622 97.3096 89.2442C97.1569 90.2688 96.4769 90.4118 95.78 90.6161C95.2009 90.7858 94.925 91.0708 94.8037 91.7421C94.506 93.3908 93.9496 93.7666 92.3122 93.699C90.6782 93.6315 90.6502 93.6264 90.3805 95.2076C90.2722 95.8426 90.2333 96.6112 89.6634 96.8485C88.7223 97.2403 88.0244 98.1255 86.9737 98.2334C86.584 98.2735 86.3143 97.9823 86.3663 97.5874C86.4196 97.1831 86.6063 96.7974 86.7363 96.4041C87.0178 95.5525 87.1338 94.7904 86.1027 94.3289C85.441 94.0327 85.1965 93.4029 85.0188 92.6728C84.7652 91.6302 84.2126 90.6862 83.0537 90.5661C82.0726 90.4644 82.2526 89.2336 81.4412 89.0132C81.2374 88.9578 81.2313 88.6556 81.387 88.5036C81.9231 87.9802 82.4292 87.1501 83.0449 87.0436C84.4148 86.8068 85.1375 85.9156 85.8645 84.9011C86.0622 84.6253 86.284 84.3071 86.5678 84.1684C88.1086 83.4152 87.9854 81.8249 88.3294 80.4847C88.4468 80.0274 88.5003 79.3092 88.1134 79.1043C86.8514 78.436 87.3293 77.1667 86.9758 76.1915C86.6261 75.2271 87.1428 74.9109 87.8095 74.6427C88.7179 74.2772 89.7369 74.1597 90.5778 74.5597C91.8949 75.1863 93.075 74.7445 94.2882 74.4224C94.8667 74.2688 95.418 73.998 95.9986 73.8134C97.0582 73.4764 97.9666 73.5468 98.8228 74.3266C99.2231 74.6911 99.6991 74.9748 100.164 75.2531C100.775 75.6184 101.289 76.0442 101.325 76.84C101.363 77.6747 101.764 78.1164 102.576 78.1752C103.084 78.212 103.394 78.5083 103.685 78.9541C104.437 80.103 105.192 80.15 106.209 79.216C106.508 78.9417 106.833 78.6975 107.13 78.4219C107.821 77.7824 108.489 77.495 109.154 78.4625C109.266 78.6254 109.509 78.8756 109.605 78.8394C111.639 78.0693 113.258 80.0319 115.217 79.7375C115.576 79.6836 115.817 79.4362 116.116 79.3347C117.24 78.954 117.982 77.6936 119.331 77.8541C119.619 76.4276 121.05 76.1841 121.796 75.278C122.454 74.4784 123.303 74.1355 124.074 73.6082C124.687 73.1886 126.295 73.908 126.511 74.6269C126.611 74.9588 126.446 75.0982 126.176 75.2491C125.194 75.7977 124.621 76.5575 125.054 77.7931C125.235 78.3084 124.779 78.5138 124.539 78.8246C124.121 79.3671 123.632 79.8749 123.327 80.4801C123.092 80.9456 122.936 81.6753 123.887 81.5404C124.848 81.4041 125.3 81.7519 125.251 82.7706C125.213 83.5541 125.76 84.0477 126.19 84.5596C126.542 84.9782 127.059 85.2803 127.618 85.2439C128.663 85.176 129.321 84.1959 130.34 83.9669C131.291 83.7533 132.106 83.2349 132.123 82.0098C132.127 81.6437 132.333 81.3215 132.618 81.1341C134.152 80.1276 135.728 79.0824 137.635 79.3984C138.784 79.5887 139.745 79.3428 140.741 78.8646C141.534 78.4841 142.341 78.0963 143.181 77.8736C144.025 77.6499 144.353 77.2842 144.741 76.3716C145.463 74.6701 147.69 73.8025 149.573 75.3421C151.73 77.106 151.462 79.3688 150.9 81.5112C150.127 84.4518 149.38 87.4201 148.261 90.2617C147.898 91.1835 147.497 91.6998 146.479 91.2152C146.056 91.0139 145.553 90.9785 145.152 90.7467C144.483 90.3601 143.879 90.3634 143.28 90.8372C142.606 91.3712 141.986 91.5307 141.063 91.2552C139.546 90.8026 138.116 91.3681 137.044 92.5828C136.272 93.4581 135.473 94.317 134.522 94.9381C133.221 95.7868 131.835 96.5366 130.177 96.1512C129.921 96.0915 129.607 96.0646 129.374 96.1625C127.174 97.0892 125.93 95.4784 124.444 94.3158C123.318 93.4357 122.322 92.1517 120.628 92.3737C120.171 92.4337 119.943 91.9935 119.592 91.5458Z" fill="#FB8E0D"/>
<path d="M139.831 63.854C142.017 63.3853 143.978 63.6637 145.93 64.2559C146.505 64.4304 147.121 64.4682 147.72 64.5469C148.363 64.6312 149.064 63.9237 149.634 64.5536C150.116 65.0872 149.862 65.8977 150.056 66.5612C150.465 67.9594 150.813 69.3788 151.277 70.7565C151.694 71.9936 151.569 73.24 151.486 74.4822C151.437 75.2218 150.984 75.3382 150.377 74.8593C148.353 73.2638 146.418 73.1517 144.268 74.4687C143.785 74.7645 143.752 75.2725 143.63 75.7163C143.379 76.6246 142.824 77.0809 141.957 77.3056C141.112 77.5246 140.295 77.8617 139.473 78.1695C139.03 78.3356 138.622 78.5356 138.114 78.3803C135.684 77.6372 133.802 79.116 131.806 80.1021C131.5 80.2535 131.352 80.6126 131.306 80.9729C131.041 83.0351 129.196 83.3619 127.871 84.1687C127.163 84.6002 126.635 83.8091 126.486 83.0916C126.291 82.151 126.398 81.1206 125.57 80.4151C125.523 80.375 125.476 80.2444 125.482 80.2403C127.085 79.1649 124.961 76.4248 127.432 75.6602C128.165 75.4336 128.091 74.4806 127.429 73.7731C125.671 71.8948 123.276 72.0751 121.491 74.0215C120.02 75.6267 118.117 76.7339 116.314 77.8757C115.504 78.3883 114.125 78.7595 113.183 77.5121C112.799 77.0029 112.237 77.1073 111.699 77.334C111.326 77.491 110.937 77.6675 110.544 77.7012C109.635 77.7791 109.153 76.9803 109.525 76.1119C109.823 75.4144 110.098 74.7059 110.382 74.0016C110.748 73.0918 110.804 72.3195 109.893 71.6143C109.116 71.0122 109.403 69.7652 108.725 69.0301C108.664 68.9641 108.682 68.6974 108.751 68.6448C109.918 67.7478 109.543 66.487 109.589 65.2847C109.614 64.624 109.925 63.9569 110.363 63.384C110.754 62.8727 111.082 62.6229 111.692 63.0534C114.667 65.1501 117.162 63.4264 119.068 61.2621C119.651 60.5993 120.155 60.1223 120.991 59.974C122.13 59.7717 123.187 59.3487 124.148 58.6592C124.42 58.464 124.819 58.4368 125.022 58.8115C125.172 59.0885 125 59.4263 124.782 59.5415C123 60.4826 122.936 62.6193 121.839 64.0491C121.088 65.0266 121.706 66.3541 122.871 66.3242C124.02 66.2948 124.176 67.7458 125.255 67.6618C126.103 67.5958 126.776 66.2102 127.787 67.3026C127.848 67.369 128.156 67.2493 128.314 67.1529C129.337 66.5263 129.536 67.0826 129.716 68.0346C130.017 69.6321 130.363 69.7856 131.712 68.9613C132.666 68.3782 133.794 67.6902 133.282 66.2805C132.909 65.2524 134.338 65.6034 134.14 64.684C133.986 63.9696 133.293 63.5605 133.356 62.8131C133.41 62.1866 134.505 61.7035 134.867 62.2114C135.445 63.0213 136.159 63.1817 136.993 63.0558C138.016 62.9011 138.658 63.9977 139.831 63.854Z" fill="#FB8E0D"/>
<path d="M122.603 58.37C121.766 58.6953 121.082 59.1222 120.372 59.1725C119.236 59.2529 118.72 59.9801 117.954 60.6931C116.809 61.7587 115.609 63.1779 113.656 62.7414C112.713 62.5305 112.221 62.0862 111.765 61.1649C111.116 59.8541 111.026 59.2943 112.222 58.9784C114.674 58.3308 115.451 56.2385 116.12 54.1648C116.314 53.5624 116.491 53.0313 116.883 52.5895C118.031 51.2952 118.836 49.8584 119.213 48.1025C119.648 46.0756 121.883 44.3892 123.943 44.3062C124.139 44.2984 124.414 44.2674 124.524 44.3804C125.529 45.4142 126.771 45.5137 128.083 45.4507C128.585 45.4265 128.936 45.8102 129.295 46.1327C129.862 46.6413 130.513 47.2287 131.254 47.0874C133.559 46.6473 135.84 47.5038 138.204 46.8553C141.756 45.8806 145.327 48.2805 146.606 52.1731C147.273 54.2057 147.685 56.3319 148.171 58.4134C148.514 59.8864 149.333 61.2079 149.381 62.8259C148.078 63.4069 146.818 63.6714 145.409 62.9018C144.341 62.3187 143.128 62.1212 141.884 62.4587C140.635 62.7979 139.372 63.0371 138.214 62.1321C137.831 61.8332 137.444 62.0617 137.055 62.1422C136.617 62.2328 136.227 62.1302 136.101 61.6303C135.863 60.6905 135.25 60.4272 134.412 60.605C133.459 60.8072 132.382 61.8208 132.502 62.6728C132.692 64.0168 131.849 65.2246 132.226 66.5842C132.375 67.1188 131.801 67.5484 131.365 68.0091C130.49 67.3216 130.411 65.7719 128.83 65.7959C127.61 65.8145 126.446 65.6304 125.42 66.8052C124.804 65.7538 124.132 64.9553 122.795 65.1312C123.127 64.0417 123.721 63.2521 123.681 62.2558C123.664 61.8212 124.094 61.5865 124.414 61.3211C124.885 60.9313 125.349 60.5157 125.741 60.0439C126.269 59.4071 126.29 58.4309 126 57.8971C125.661 57.272 124.749 57.2342 124.011 57.6515C123.598 57.8854 123.167 58.0867 122.603 58.37Z" fill="#FB8E0D"/>
<path d="M126.466 97.0707C127.342 97.6414 127.99 98.8492 129.015 97.3185C129.421 96.7107 130.414 96.8209 131.035 97.3726C131.712 97.9746 132.237 97.7868 132.807 97.2613C133.056 97.0321 133.331 96.694 133.616 96.6695C135.558 96.5025 136.641 95.089 137.636 93.6584C138.505 92.4083 139.549 92.0373 140.907 92.4404C141.514 92.6209 142.055 92.6571 142.657 92.3623C144.163 91.6261 145.668 91.846 147.186 92.5063C146.436 95.157 144.569 97.0102 142.92 98.9708C141.245 100.962 139.414 102.8 138.094 105.1C137.692 105.8 137.001 106.322 136.452 106.934C135.95 107.494 135.374 107.974 134.984 108.651C134.236 109.951 133.549 109.982 132.667 108.692C132.243 108.071 131.778 107.711 131.063 107.574C129.793 107.331 128.893 106.558 128.423 105.309C128.295 104.969 128.182 104.608 127.843 104.511C125.631 103.871 124.036 101.867 121.668 101.564C120.701 101.439 120.16 100.496 119.244 100.135C117.761 99.5497 116.416 98.5958 114.999 97.8241C114.423 97.5101 114.38 97.1589 114.803 96.689C115.032 96.4345 115.211 96.0543 115.492 95.94C117.018 95.3194 117.936 94.0413 118.904 92.5611C119.239 93.3019 119.609 93.8015 120.392 93.6851C122.288 93.4031 123.653 94.3125 124.373 96.0256C124.836 97.1267 125.683 96.7281 126.466 97.0707Z" fill="#FB8E0D"/>
<path d="M117.4 121.222C117.204 119.238 116.013 117.933 115.029 116.52C114.832 116.238 114.583 115.992 114.415 115.695C114.2 115.315 114.164 114.865 114.396 114.499C114.665 114.073 115.112 114.139 115.481 114.343C116.167 114.719 116.763 114.461 117.411 114.215C118.35 113.858 118.793 113.304 118.742 112.198C118.695 111.153 118.313 109.935 119.543 109.194C119.767 109.059 119.652 108.681 119.586 108.41C119.211 106.878 119.001 105.352 117.658 104.191C116.531 103.216 116.56 101.685 116.795 100.238C117.829 100.135 118.364 100.921 119.061 101.265C121.689 102.566 124.553 103.39 126.894 105.302C127.212 105.561 127.476 105.769 127.693 106.146C128.435 107.433 129.4 108.492 130.932 108.718C131.548 108.809 131.969 109.072 132.024 109.725C132.07 110.258 132.556 110.516 132.686 111.066C131.844 111.596 131.005 112.17 130.124 112.666C129.151 113.214 128.356 113.971 127.74 114.886C126.509 116.714 125.301 118.564 124.182 120.467C122.459 123.397 120.285 123.797 117.867 121.543C117.768 121.45 117.641 121.391 117.4 121.222Z" fill="#FB8E0D"/>
</svg>
