<svg width="212" height="161" viewBox="0 0 212 161" fill="none" xmlns="http://www.w3.org/2000/svg">
<path d="M50.5793 126.986C45.6583 124.627 40.7546 122.502 36.097 119.788C33.3876 118.208 30.6838 116.614 28.0218 114.942C26.4319 113.943 24.6926 113.608 22.9518 113.184C19.2029 112.27 15.496 111.136 11.742 110.275C9.08746 109.667 6.7728 108.298 4.33238 107.194C3.44392 106.792 2.57802 106.331 1.69765 105.907C1.24478 105.689 1.04876 105.476 1.10101 104.792C1.20213 103.466 1.77778 102.65 2.80318 102.127C3.42434 101.81 4.0744 101.562 4.7088 101.276C5.72925 100.816 6.0451 100.024 5.67454 98.8661C5.629 98.7238 5.60385 98.5612 5.52337 98.4468C4.59587 97.1287 5.12781 95.9736 5.91187 94.9185C6.62517 93.9587 7.17634 92.9837 7.18939 91.6867C7.19797 90.8339 7.8188 90.135 7.8195 89.2434C7.81976 88.9132 8.14795 88.7927 8.38661 88.6467C9.49048 87.9718 10.6452 87.3863 11.5004 86.3012C11.6627 86.0953 11.9939 86.0584 12.2329 85.9151C13.1864 85.343 14.2384 84.9249 14.9331 83.9351C15.2233 83.5217 15.5817 83.3676 16.016 83.5508C16.6713 83.8272 17.2588 83.5681 17.8842 83.3945C19.075 83.064 20.279 82.7717 21.4919 82.565C22.0325 82.4729 22.5569 82.3189 22.7621 81.8196C23.1617 80.8473 23.9226 80.9126 24.656 80.7934C25.0494 80.7295 25.4503 81.0269 25.8473 80.6783C26.1474 80.4147 26.4084 80.6918 26.4501 80.9986C26.5424 81.6779 27.0581 81.9512 27.481 82.0785C28.0079 82.2371 28.6203 82.1406 29.1815 82.0491C29.6526 81.9723 29.7952 81.4778 29.883 81.0305C30.1232 79.8064 30.3635 78.5814 30.5615 77.3485C31.56 71.1302 32.5451 64.9094 33.535 58.6894C33.759 57.2817 34.0128 55.8746 34.0591 54.4453C34.08 53.8012 33.8861 53.1984 33.4735 52.6589C32.9531 51.9784 32.511 51.2826 32.6863 50.2256C32.8002 49.5389 32.5662 48.7397 31.819 48.3466C31.4517 48.1534 31.1583 47.789 30.7892 47.6024C29.4237 46.9119 29.0222 45.7391 29.1702 44.1711C29.2642 43.1755 29.2104 42.1618 29.2009 41.1564C29.196 40.6469 29.3332 40.2403 29.8109 40.1239C30.9079 39.8567 31.9783 39.5147 32.9956 38.9823C33.3235 38.8107 33.492 39.1243 33.6869 39.3169C34.24 39.8636 34.8709 39.7837 35.493 39.5516C35.9045 39.3982 36.2458 39.1302 35.9808 38.542C35.8293 38.2058 35.933 37.8638 35.9523 37.5137C36.0282 36.1359 35.0877 34.9392 33.8215 34.9285C32.7739 34.9197 31.7518 34.7528 30.6187 34.6168C30.6187 33.4745 30.6334 32.3234 30.6122 31.1731C30.6024 30.6425 30.7962 30.2427 31.2437 30.1556C31.9379 30.0205 32.6061 29.5243 33.3658 29.954C33.5908 30.0812 33.9026 30.047 34.1747 30.0474C36.9256 30.0513 39.6765 30.0491 42.4274 30.0426C42.7375 30.0418 43.0659 30.1075 43.3204 29.8966C43.584 29.2959 42.767 29.0529 43.0112 28.4964C43.079 28.461 43.1922 28.3658 43.2227 28.391C44.3185 29.2961 45.2851 29.3778 46.0263 27.894C46.048 27.8507 46.0871 27.7794 46.1124 27.7823C47.3582 27.9229 47.807 26.6939 48.5986 26.0551C48.6618 26.0042 48.7726 26.0242 48.9383 26C49.0598 26.6088 49.1979 27.2248 49.3022 27.8477C49.391 28.3774 49.5817 28.8496 50.0684 29.0006C50.8005 29.2277 50.9333 29.8358 50.9556 30.5096C50.9854 31.413 50.9522 32.3186 50.9705 33.2227C50.9814 33.7671 50.8689 34.3253 51.0734 34.8552C51.7731 35.0473 52.4195 34.2131 53.0727 34.6763C53.6035 35.0527 54.0231 35.6148 54.5042 36.0793C54.9161 36.4771 55.3759 36.8201 55.7602 37.2462C56.4107 37.9676 57.0433 38.426 58.0944 38.4196C59.09 38.4134 59.7433 38.0237 60.3721 37.3503C60.8191 36.8715 61.3676 36.6328 61.9536 36.497C62.5393 36.3613 62.8351 36.6767 62.7507 37.3106C62.7249 37.5045 62.6133 37.6827 62.5672 37.8756C62.449 38.3709 62.3308 38.9825 62.8151 39.2179C63.3121 39.4596 63.8521 39.0868 64.0989 38.6154C64.4863 37.8752 64.7547 37.0917 65.7062 37.0623C65.8283 37.0586 65.9822 36.8036 66.0556 36.6313C66.6492 35.2362 67.6172 34.5407 69.028 34.3C69.8693 34.1564 70.4354 33.2486 71.0413 32.5556C71.3472 32.7744 71.5984 32.9721 71.8657 33.1389C72.0383 33.2465 72.2966 33.2309 72.3357 33.0267C72.5002 32.1684 73.2437 31.9372 73.7278 31.4427C74.3538 30.8033 74.5548 30.053 74.5909 29.1591C74.6349 28.0711 74.6695 28.0571 75.7124 28.0325C76.2833 28.019 76.9164 27.8977 77.2401 27.4871C77.8964 26.6549 78.802 26.721 79.6018 26.468C80.1905 26.2818 80.8846 26.2476 81.2775 27.0612C81.4884 27.4981 81.882 27.6526 82.3312 27.6161C82.4226 27.6086 82.5152 27.6007 82.6061 27.6087C84.052 27.7365 84.5582 28.4583 83.8314 29.8559C83.2949 30.8876 83.6102 31.4931 84.1733 32.068C84.6811 32.5863 84.8787 33.1998 85.0949 33.8615C85.3084 34.5148 85.3985 35.2027 85.7601 35.8221C86.1187 36.4361 86.0074 37.2254 85.7674 37.8632C85.3225 39.0452 85.3183 40.164 85.8267 41.3007C85.8664 41.3893 85.9049 41.4884 85.9095 41.5846C85.9825 43.1207 86.7395 44.3946 87.2386 45.767C87.2719 45.8587 87.3408 45.9341 87.3838 46.0226C88.0848 47.4644 87.3815 48.6814 86.8471 49.916C86.7445 50.1529 86.4577 50.131 86.2492 50.2211C85.5679 50.5156 85.4197 51.0132 85.9202 51.5629C86.4936 52.1927 87.1376 52.76 87.8057 53.268C88.6777 53.9312 89.515 54.5956 89.9233 55.7323C90.1879 56.4686 90.5297 57.0184 91.4286 56.9177C92.0226 56.8512 92.5475 57.2761 92.97 57.78C93.2341 58.0949 93.5309 58.6141 93.9677 58.2193C94.3432 57.8799 93.9707 57.5015 93.7621 57.1821C93.2454 56.3907 93.1261 55.5199 93.3922 54.604C93.5493 54.063 93.5604 53.5605 93.4721 52.9884C93.2725 51.6963 93.831 50.5557 94.9629 50.1124C95.5629 49.8774 96.0284 49.2406 96.859 49.5101C97.8162 49.8207 98.229 50.6043 98.6827 51.3894C98.9135 51.7886 98.8881 52.3313 99.4978 52.4435C100.164 52.5662 100.754 52.4312 101.32 52.103C101.557 51.9657 101.73 51.7023 101.958 51.5389C102.959 50.8205 102.968 50.8241 102.522 49.5281C102.437 49.2803 102.402 49.055 102.496 48.8051C103.163 47.03 103.673 45.1827 104.621 43.5382C104.939 42.987 105.244 42.664 105.896 42.6796C107.913 42.7277 109.931 42.6816 111.948 42.7043C112.972 42.7158 113.051 42.8176 113.096 43.8982C113.13 44.7005 113.165 45.5059 113.138 46.3075C113.111 47.1496 113.157 47.9286 113.91 48.4053C114.249 48.6202 114.263 48.9689 114.246 49.3232C114.204 50.2236 114.609 50.8635 115.242 51.349C115.897 51.8515 116.37 52.4242 116.585 53.337C116.864 54.5259 117.953 54.8191 118.825 55.2892C119.191 55.4869 119.385 54.7958 119.789 54.8703C120.097 55.1048 119.95 55.3993 119.886 55.6805C119.753 56.2605 119.998 56.6643 120.423 56.9375C121.735 57.7809 122.847 58.9926 124.34 59.5056C124.422 59.5335 124.491 59.6884 124.555 59.6801C126.588 59.4149 127.33 61.7585 128.962 62.2925C129.18 62.3637 129.167 62.5233 129.207 62.7313C129.39 63.683 130.023 64.1234 130.835 63.7657C131.289 63.5657 131.684 63.4554 132.227 63.6496C131.793 64.4864 131.672 65.3867 131.515 66.302C131.317 67.4573 130.728 68.5372 130.275 69.6338C127.916 75.354 125.54 81.066 123.182 86.7871C121.56 90.7229 119.935 94.6575 118.367 98.619C118.027 99.4775 117.491 100.124 116.962 100.798C115.9 102.15 115.883 103.155 117.03 104.452C117.775 105.294 118.679 106.159 118.494 107.367C118.312 108.552 118.328 109.904 117.545 110.883C116.977 111.594 116.864 112.251 117.262 113.057C117.775 114.098 117.42 115.189 117.128 116.117C116.84 117.035 116.716 117.957 116.59 118.88C116.5 119.536 116.265 119.676 115.725 119.672C112.653 119.653 109.581 119.667 106.51 119.662C102.429 119.656 98.3486 119.647 94.2682 119.63C93.7768 119.628 93.3056 119.673 92.8391 119.286C91.9559 118.555 91.366 118.711 90.6965 119.69C90.5904 119.845 90.492 120.006 90.3699 120.196C89.6002 119.812 88.836 119.524 88.7302 118.43C88.693 118.045 88.3699 117.873 88.0266 117.818C87.7184 117.769 87.4833 117.548 87.4417 117.255C87.3196 116.394 86.7995 116.025 86.1409 115.685C85.6616 115.437 85.2545 115.036 85.0463 114.408C84.661 113.245 83.8245 112.697 82.7152 112.682C81.2483 112.661 79.7803 112.702 78.3141 112.66C77.6859 112.642 77.2754 112.831 77.0232 113.497C76.8325 114.001 76.5119 114.443 76.2942 114.937C76.184 115.187 76.0705 115.359 75.8128 115.389C74.8634 115.5 74.6511 116.254 74.6267 117.108C74.6022 117.961 74.4311 118.664 73.6727 119.112C72.9844 119.52 73.4426 120.444 73.0252 121.09C72.434 120.817 71.8384 120.957 71.2072 121.1C70.4119 121.28 69.6097 121.475 68.7689 121.441C67.7508 121.401 67.5308 121.576 67.3667 122.652C67.2293 123.553 66.879 124.243 66.2588 124.823C65.9283 124.772 65.9113 124.425 65.8002 124.177C65.5708 123.664 65.2133 123.508 64.8006 123.838C64.3118 124.23 63.466 123.928 63.2438 124.853C63.1866 125.091 62.8495 125.042 62.6229 125.052C62.3399 125.064 61.9993 125.105 61.8853 125.374C61.3947 126.53 60.8065 125.949 60.3216 125.456C59.7576 124.883 59.1786 124.644 58.4508 124.937C58.0823 125.086 57.73 124.925 57.3723 124.922C56.7782 124.916 56.2473 124.99 56.0772 125.88C55.8844 126.889 54.9161 127.066 54.2295 127.536C53.4728 128.053 52.7409 128.21 51.9326 127.632C51.5557 127.362 51.0954 127.232 50.5793 126.986Z" fill="#01A451"/>
<path d="M133.356 63.8919C133.875 63.5322 134.257 63.1683 134.515 62.6864C134.664 62.4077 134.989 62.0891 134.695 61.7617C134.452 61.4904 133.998 61.5424 133.791 61.741C132.751 62.7383 131.325 62.348 130.032 63.2125C130.274 62.0188 129.958 61.4933 128.978 61.2914C128.3 61.1516 127.67 60.664 127.392 59.7957C127.226 59.2785 126.808 58.9247 126.228 58.8935C124.159 58.7822 122.627 57.396 121.006 56.2346C120.629 55.9642 120.626 55.5021 120.594 55.0317C120.513 53.8411 120.29 53.7236 119.244 54.1781C118.672 54.4269 117.521 53.7956 117.346 52.9468C117.134 51.9188 116.617 51.3072 115.812 50.8199C115.328 50.5269 115.035 50.0391 115.024 49.3422C115.013 48.6467 114.856 47.9464 114.244 47.5182C113.979 47.3325 113.934 47.0397 113.928 46.7331C113.894 45.0914 113.596 43.4724 113.664 41.816C113.739 39.9691 113.677 38.1158 113.684 36.2653C113.686 35.8712 113.54 35.2651 113.832 35.1337C114.415 34.8704 114.791 34.0891 115.46 34.1904C116.349 34.3251 116.762 33.87 116.943 33.0519C117.037 32.6295 117.327 32.384 117.503 32.0443C117.775 31.5192 118.154 31.5801 118.568 31.7362C119.862 32.2249 119.821 32.184 120.717 31.1739C121.189 30.643 121.856 30.2519 122.578 30.4438C123.607 30.7172 124.13 30.1501 124.614 29.2971C125.222 28.2233 126.464 27.9604 127.514 28.4864C128.306 28.8835 129.052 29.165 130.055 28.7278C130.901 28.3592 131.984 28.2194 132.993 28.6856C133.655 28.9913 134.391 29.1292 135.106 29.2687C135.764 29.3972 136.192 29.0722 136.268 28.3873C136.351 27.6402 136.418 26.7795 135.829 26.2798C134.948 25.5317 135.248 24.8138 135.661 24.0246C135.727 23.8978 135.815 23.7839 135.97 23.5444C137.07 24.7615 138.432 24.2547 139.732 24.2639C139.98 24.2657 140.204 24.233 140.348 24.0264C140.948 23.1668 141.96 23.5138 142.695 23.0546C142.883 22.9368 143.058 23.0194 143.161 23.2088C143.62 24.0591 144.321 24.877 144.112 25.9268C143.869 27.1487 144.457 28.1647 144.578 29.2873C144.635 29.8152 145.069 29.7814 145.439 29.8131C146.482 29.9027 147.528 29.958 148.433 30.6655C148.774 30.9315 149.09 31.2111 149.349 31.5623C150.042 32.503 150.955 32.965 152.039 33.0935C153.158 33.2261 154.045 34.1299 154.338 35.3473C154.546 36.2158 154.786 37.0194 155.6 37.5559C156.456 38.1201 156.963 38.9038 156.555 40.1983C156.23 41.2306 156.832 42.2351 157.257 43.163C157.563 43.8308 157.969 44.4392 158.09 45.1986C158.175 45.7348 158.503 46.0453 158.932 46.3053C159.653 46.743 160.096 47.355 160.062 48.3544C160.038 49.0744 160.306 49.7332 161.062 49.9459C161.317 50.0175 161.534 50.2673 161.489 50.463C161.256 51.4874 161.845 52.2017 162.132 53.0568C162.336 53.6625 162.665 53.9841 163.064 54.2303C163.648 54.5907 164.39 54.636 164.836 55.2921C164.881 55.3582 165.034 55.4211 165.081 55.3888C165.893 54.8287 166.993 55.1119 167.724 54.2861C168.099 53.8616 168.339 53.422 168.269 52.8248C168.142 51.7348 168.567 50.8532 169.246 50.1435C169.961 49.3965 170.41 48.4906 170.849 47.5543C171.245 46.7106 171.87 46.1641 172.586 45.5741C173.604 44.7367 174.713 44.1272 175.755 43.3741C176.653 42.7249 177.239 41.7343 177.483 40.5687C177.672 39.6644 178.215 39.2882 178.982 39.0304C179.646 38.8068 179.968 39.0716 180.085 39.6941C180.175 40.1749 180.168 40.6902 180.13 41.1835C180.081 41.8312 180.357 42.0319 180.897 42.158C181.37 42.2684 181.795 42.1761 182.247 42.1237C182.969 42.04 183.576 42.1647 183.937 43.028C184.415 44.1689 185.304 44.8529 186.355 45.3528C187.146 45.7288 187.929 46.1256 188.676 46.6315C189.353 47.0893 190.239 47.0582 191.057 47.038C191.375 47.0301 191.695 46.9276 192.01 46.9469C192.674 46.9875 192.785 47.2116 192.543 47.8954C192.121 49.0892 192.117 49.1004 193.275 49.5292C194.1 49.835 194.949 50.0783 195.695 50.5863C196.221 50.9444 196.905 50.9545 197.262 50.6552C198.287 49.793 198.954 50.7154 199.599 51.1582C200.095 51.4982 200.237 51.6358 200.448 50.9924C200.648 50.385 200.983 50.3667 201.361 50.8042C201.845 51.3646 202.423 51.5927 203.121 51.7789C203.966 52.0045 204.704 52.6679 205.568 52.9355C206.872 53.3392 208.064 54.0094 209.256 54.6866C209.374 54.7537 209.613 54.7525 209.628 54.8232C209.74 55.3832 209.917 55.9862 209.726 56.5223C209.448 57.3024 210.363 58.3926 209.231 58.903C208.485 59.2399 208.383 59.5973 208.83 60.3664C209.342 61.2474 209.04 62.4947 208.151 63.2717C207.612 63.7422 207.381 64.372 207.492 64.9485C207.675 65.8986 207.255 66.365 206.637 66.7363C206.038 67.0962 205.8 67.5488 205.88 68.3091C206.038 69.8092 205.373 71.0479 204.586 72.1649C203.626 73.5258 202.881 74.9285 202.697 76.6885C202.61 77.5296 201.947 78.1437 201.352 78.6887C201.103 78.9166 200.815 79.0984 200.728 79.4551C200.439 80.6405 199.565 81.4677 199.142 82.5748C198.921 83.1561 198.532 83.5273 197.869 83.5118C197.049 83.4925 196.603 84.2729 196.044 84.7417C194.265 86.2329 192.555 87.8198 190.816 89.3672C190.674 89.4933 190.501 89.5808 190.37 89.7184C189.949 90.1639 189.988 90.483 190.513 90.7253C191.022 90.9596 191.555 91.1121 192.12 91.0562C192.649 91.0038 193.126 91.0539 193.401 91.6669C193.476 91.8349 193.637 91.9703 193.783 92.0849C194.03 92.2796 194.493 92.1981 194.538 92.63C194.59 93.1213 194.116 93.0483 193.866 93.2128C193.582 93.3997 193.563 93.7096 193.593 94.0028C193.707 95.152 193.19 96.0306 192.791 97.0423C192.351 98.1555 191.621 98.8807 191.011 99.771C190.904 99.9281 190.781 100.124 190.777 100.306C190.75 101.467 190.036 101.727 189.168 101.908C188.736 101.999 188.313 102.207 187.901 102.449C186.915 103.028 186.344 103.691 186.689 105.041C186.94 106.024 186.446 106.873 185.898 107.652C185.036 108.875 185.057 109.6 186.157 110.582C186.864 111.213 186.958 111.807 186.811 112.769C186.443 115.164 185.18 117.046 184.096 119.043C184.005 119.212 183.894 119.425 183.745 119.492C181.979 120.289 181.591 122.399 180.36 123.711C179.96 124.137 179.854 124.876 179.816 125.53C179.787 126.044 179.591 126.496 179.449 126.968C179.219 127.735 178.748 128.025 177.984 127.998C175.327 127.904 172.679 127.699 170.034 127.423C168.575 127.271 167.106 127.241 165.645 127.143C163.68 127.011 161.716 126.814 159.748 126.709C156.732 126.548 153.726 126.182 150.716 125.913C149.438 125.799 148.158 125.759 146.878 125.616C144.01 125.296 141.123 125.176 138.248 124.918C135.695 124.689 133.148 124.378 130.596 124.118C130.17 124.074 129.776 124.032 129.548 123.563C129.174 122.793 128.144 123.211 127.821 122.543C127.521 121.922 127.318 121.254 126.788 120.816C125.959 120.131 124.968 119.74 124.113 119.084C123.664 118.74 123.39 118.432 123.302 117.818C123.174 116.932 122.896 116.061 123.059 115.156C123.184 114.457 122.79 114.004 122.476 113.541C122.035 112.89 121.704 112.223 121.529 111.424C121.174 109.807 120.615 108.283 119.484 107.09C119.419 107.021 119.324 106.941 119.316 106.858C119.189 105.378 118.202 104.522 117.35 103.545C116.684 102.782 116.549 101.756 117.134 101.287C118.693 100.039 119.131 98.097 119.866 96.3559C122.394 90.3644 124.862 84.3427 127.347 78.3296C128.966 74.4123 130.572 70.4886 132.192 66.572C132.387 66.1019 132.465 65.6356 132.425 65.1192C132.375 64.4753 132.691 64.0889 133.356 63.8919Z" fill="#01A451"/>
<path d="M194.593 94.9945C194.358 94.4124 194.067 94.0577 194.761 93.5776C195.575 93.0146 195.455 92.2758 194.653 91.7074C194.464 91.5733 194.158 91.5144 194.083 91.3311C193.655 90.2752 192.902 90.1279 191.982 90.4149C192.237 89.0825 192.678 88.7414 193.594 89.1816C194.431 89.584 195.229 90.0819 196.176 89.6171C196.248 89.5816 196.416 89.5935 196.43 89.6315C196.936 91.0694 198.461 90.7523 199.262 91.6784C199.423 91.8638 199.637 92.0422 199.606 92.2962C199.475 93.3735 200.019 94.3537 199.935 95.4237C199.903 95.8217 199.868 96.2657 199.989 96.624C200.382 97.789 200.18 98.918 199.898 100.035C199.615 101.152 199.336 102.249 199.34 103.435C199.342 104.297 198.872 104.913 198.165 105.319C197.661 105.609 197.521 106.193 198.008 106.521C198.791 107.048 198.677 108.17 199.454 108.742C200.095 109.214 200.476 110.121 200.979 110.829C201.509 111.575 202.046 112.314 202.583 113.053C202.753 113.286 202.907 113.545 203.113 113.731C203.37 113.965 203.779 114.121 203.956 113.767C204.323 113.031 205.034 113.091 205.566 112.768C206.394 112.267 206.983 112.717 206.996 113.734C207.013 115 206.988 115.029 205.843 115.563C204.478 116.201 203.647 117.295 203.739 119.001C203.791 119.956 203.292 120.623 202.92 121.323C202.541 122.037 202.748 122.414 203.29 122.591C204.03 122.833 204.377 123.292 204.544 124.128C204.666 124.738 204.981 125.331 205.631 125.535C206.278 125.737 206.553 126.147 206.139 126.867C205.754 127.535 205.841 128.089 206.43 128.561C206.932 128.964 207.148 129.522 207.25 130.22C207.423 131.403 208.075 131.978 209.168 132.031C210.168 132.079 210.964 132.873 212 132.836C211.856 134.081 210.948 134.428 210.252 134.877C209.639 135.273 209.114 135.666 208.914 136.426C208.593 137.638 207.688 138.494 207.348 139.68C207.207 140.175 206.904 140.416 206.531 140.614C206.181 140.8 206.039 141.184 206.206 141.488C206.634 142.267 206.677 143.41 207.704 143.66C208.4 143.829 208.479 144.236 208.141 144.853C208.049 145.021 207.858 145.214 207.885 145.354C208.153 146.741 207.603 148.119 207.872 149.499C207.901 149.647 207.895 149.839 207.976 149.932C209.084 151.199 208.445 152.757 208.609 154.309C208.175 154.345 207.487 153.78 207.462 154.825C207.451 155.264 207.017 155.256 206.702 155.251C205.594 155.232 204.671 155.516 203.76 156.397C203.067 157.067 201.975 157.255 201.037 157.571C200.503 157.751 200.148 157.163 199.704 156.945C199.31 156.75 198.965 156.275 198.481 156.689C198.013 157.089 197.969 157.586 198.222 158.164C198.319 158.388 198.314 158.654 198.136 159C197.358 157.91 195.923 158.133 195.166 156.952C194.937 156.594 194.438 156.926 194.181 157.118C193.52 157.61 193.143 157.615 192.499 156.898C191.844 156.168 191.094 155.505 190.443 154.747C189.685 153.865 189.697 153.851 188.767 154.697C188.689 154.67 188.592 154.666 188.536 154.611C187.562 153.649 187.443 153.632 186.67 154.722C186.108 155.514 185.771 156.457 185.415 157.479C184.79 157.38 184.282 156.956 183.754 156.62C182.66 155.925 181.643 155.101 180.354 154.812C179.505 154.622 179.217 153.854 179.613 152.973C179.984 152.147 179.936 151.15 180.632 150.417C179.156 150.497 178.304 151.289 176.956 153.748C176.558 153.021 176.387 152.318 176.681 151.498C176.969 150.692 176.581 149.912 176.475 149.133C176.386 148.478 176.24 147.855 176.453 147.209C176.583 146.811 176.587 146.425 176.407 146.04C176.229 145.659 176.223 145.271 176.384 144.876C176.592 144.37 176.55 143.894 176.216 143.469C175.91 143.08 175.869 142.572 176.033 142.184C176.697 140.603 176.825 138.903 176.951 137.219C177.045 135.969 177.613 134.948 177.982 133.831C178.185 133.216 178.48 132.621 178.465 131.96C178.449 131.253 179.042 130.949 179.195 130.389C179.652 128.711 180.614 127.241 180.784 125.441C180.851 124.736 181.118 124.093 181.654 123.626C182.018 123.31 182.204 122.838 182.432 122.401C182.835 121.629 183.183 120.838 184.059 120.492C184.721 120.23 184.99 119.427 185.298 118.755C185.923 117.392 186.869 116.222 187.235 114.707C187.376 114.126 187.572 113.551 187.637 112.959C187.751 111.899 187.796 110.919 186.724 110.224C185.873 109.673 185.909 109.04 186.584 108.1C187.171 107.283 187.511 106.438 187.443 105.338C187.347 103.797 187.777 103.258 189.118 102.714C189.62 102.51 190.179 102.567 190.645 102.152C191.076 101.768 191.452 101.483 191.516 100.755C191.605 99.7294 191.951 99.4802 193.022 99.3524C193.433 99.3034 193.674 99.0472 193.504 98.679C193.162 97.9354 193.069 97.3722 193.916 97.0288C194.02 96.9867 194.169 96.7407 194.142 96.6907C193.743 95.9375 194.736 95.719 194.593 94.9945Z" fill="#01A451"/>
<path d="M65.3168 142.604C65.0631 141.971 65.5319 141.368 65.0777 140.783C64.9648 140.638 64.9967 139.985 65.2809 139.55C65.7679 138.805 65.7642 137.975 65.2361 137.178C64.7416 136.432 64.7728 135.469 64.492 134.626C64.3293 134.137 64.6622 133.47 64.9964 132.964C65.3667 132.404 65.4926 131.796 65.2741 131.108C65.1049 130.576 65.0335 129.967 65.2113 129.469C65.5591 128.496 64.9815 127.932 64.5408 127.347C64.1939 126.887 63.678 126.717 63.2993 127.391C63.139 127.677 63.0027 127.838 62.6578 127.751C60.8141 127.287 59.0549 127.878 57.2865 128.321C56.5777 128.499 55.8922 128.816 55.1446 128.753C54.9047 128.733 54.6606 128.632 54.6398 128.356C54.628 128.2 54.7777 127.926 54.9089 127.875C55.9109 127.485 56.535 126.654 57.1533 125.758C57.5108 125.241 59.6018 125.33 60.1298 125.787C60.3087 125.942 60.4583 126.137 60.6274 126.307C61.3447 127.025 61.5658 127.061 62.1676 126.244C62.5748 125.692 62.8622 125.424 63.4952 125.898C63.8533 126.166 64.32 126.068 64.3378 125.376C64.3462 125.05 64.4736 124.799 64.7057 124.603C65.0448 124.318 65.2592 124.183 65.4919 124.809C65.8545 125.785 66.3379 125.912 67.032 125.241C67.6447 124.649 68.22 123.972 68.1774 122.947C68.142 122.093 68.4723 121.8 69.2706 121.918C69.795 121.996 70.3581 121.835 70.8934 121.721C71.3427 121.625 71.7525 121.557 72.23 121.676C73.3923 121.966 73.7123 121.686 73.9995 120.384C74.0856 119.994 74.209 119.673 74.5457 119.401C75.2563 118.825 75.7193 118.081 75.5996 116.998C75.5436 116.491 75.4823 115.831 76.3396 115.954C76.8116 116.021 77.02 115.526 77.1937 115.109C77.3454 114.745 77.4879 114.375 77.6118 113.998C77.8694 113.216 78.3671 112.967 79.1051 113.003C80.2453 113.059 81.3894 113.022 82.5319 113.018C83.4905 113.014 84.1607 113.422 84.5312 114.468C84.7424 115.065 85.1238 115.592 85.4576 116.129C85.5508 116.278 85.7787 116.473 85.8913 116.438C86.9137 116.12 86.8569 117.03 87.0175 117.641C87.1504 118.147 87.2675 118.635 87.8091 118.746C88.2277 118.831 88.408 119.151 88.5687 119.53C88.8828 120.27 89.6572 120.329 90.1722 120.789C90.4868 121.07 90.9083 120.734 91.2124 120.345C92.01 119.324 92.4014 119.313 93.1582 120.21C93.2752 120.349 93.4418 120.618 93.3951 120.715C92.9854 121.566 93.3411 122.685 92.634 123.409C92.2518 123.8 92.3517 124.246 92.4843 124.656C92.6513 125.172 92.8885 125.667 93.1444 126.139C93.3814 126.576 93.4884 126.957 93.0959 127.347C92.9089 127.534 92.8437 127.803 92.9456 128.038C93.3628 129.003 93.1255 129.913 92.7837 130.81C92.5232 131.494 92.7197 132.199 92.9906 132.7C93.7474 134.097 93.4487 135.518 93.3135 136.954C93.2997 137.101 93.2135 137.239 93.19 137.386C93.0033 138.559 93.2579 138.979 94.3646 139.015C96.1454 139.072 97.9287 139.032 99.7109 139.039C100.478 139.042 101.247 138.923 101.866 139.685C102.27 140.182 102.912 139.898 103.445 139.973C103.981 140.049 104.63 139.927 104.862 140.621C105.104 141.342 105.069 142.023 104.513 142.701C103.496 143.942 103.422 145.272 104.314 146.594C105.025 147.646 105.377 148.867 105.923 149.993C106.084 150.325 105.973 150.575 105.767 150.8C105.508 151.084 105.249 151.371 104.965 151.624C104.351 152.171 104.021 152.853 104.122 153.732C104.211 154.499 104.038 155.07 103.405 155.516C102.434 156.202 102.332 157.48 102.005 158.538C101.791 159.229 101.529 159.682 100.98 160C100.698 160.164 100.429 160.355 100.153 160.532C99.1243 161.195 99.1271 161.191 98.1498 160.277C97.7158 159.871 97.2358 159.591 96.6427 159.804C95.795 160.107 94.8337 159.514 94.0378 160.211C93.2285 159.475 92.143 160.295 91.4733 159.844C90.6362 159.28 89.7086 158.57 89.3293 157.419C89.1668 156.925 88.8719 156.57 88.4347 156.663C87.5425 156.851 86.8265 156.3 86.1008 155.992C85.0016 155.524 83.753 155.295 82.9196 154.21C82.746 153.984 82.432 153.853 82.3296 153.604C81.8999 152.559 81.3139 152.107 80.2758 152.662C79.9542 152.833 79.7109 152.49 79.4659 152.246C78.8925 151.673 78.1966 151.302 77.4997 150.95C76.8444 150.619 76.1471 150.55 75.548 151.022C75.2045 151.293 74.9244 151.323 74.5513 151.228C73.8426 151.048 73.1389 150.848 72.3935 150.889C71.7889 150.922 71.4925 150.51 71.4266 149.864C71.3637 149.248 71.1228 148.813 70.4865 148.802C69.6497 148.787 69.7173 147.603 68.9216 147.395C67.8525 147.115 67.0063 146.417 66.9611 145.005C66.9573 144.887 66.8124 144.686 66.716 144.673C65.951 144.566 65.9812 143.938 65.9276 143.326C65.8987 142.997 65.61 142.855 65.3168 142.604Z" fill="#01A451"/>
<path d="M69.9382 9.83715C70.4911 9.74564 70.9788 9.62332 71.4849 9.52077C72.4886 9.3174 73.4059 9.41826 73.9898 10.5702C74.3248 11.2313 74.7764 11.7297 75.6822 11.3176C76.3602 11.0091 77.1585 11.2477 77.8313 11.5997C78.4653 11.9315 78.9617 11.907 79.4423 11.3166C79.8274 10.8436 80.1444 10.9026 80.3098 11.5504C80.3733 11.7994 80.5317 12.0401 80.7624 12.0785C81.3713 12.1798 81.5216 12.6676 81.7609 13.1729C82.1341 13.9609 82.4985 14.0092 83.191 13.5319C83.3448 13.4259 83.4713 13.2496 83.6364 13.1913C84.7611 12.7941 84.7715 12.7897 84.6845 11.6765C84.5981 10.572 84.5969 10.5646 85.6584 10.3605C85.8924 10.3155 86.1458 10.3047 86.2484 10.0497C86.6562 9.03686 87.3947 9.36414 88.0256 9.59943C88.5633 9.79994 89.065 9.67942 89.5641 9.71195C90.9916 9.80499 91.8562 8.28755 93.2418 8.46283C93.3933 8.48199 93.6497 8.34257 93.7178 8.1996C94.5088 6.53962 96.207 6.82138 97.4678 6.1876C97.9086 5.96603 98.3704 5.8164 98.5091 5.32725C98.6667 4.77137 99.0191 4.5243 99.4415 4.30718C99.8733 4.08532 100.168 3.69673 100.5 3.34804C101.045 2.77604 101.314 2.16943 100.967 1.33991C100.698 0.696812 100.997 0.419342 101.609 0.415049C102.024 0.41214 102.442 0.38687 102.853 0.328459C103.281 0.267658 103.717 -0.302237 104.126 0.215535C104.595 0.810358 105.208 1.41438 105.043 2.30251C104.875 3.20993 104.87 4.16346 104.251 4.95868C103.662 5.71598 103.879 6.20749 104.764 6.39632C105.444 6.54161 106.132 6.64895 106.807 6.81961C107.114 6.89741 107.483 7.0503 107.324 7.527C107.05 8.34751 107.455 8.93529 107.809 9.58928C108.525 10.9115 108.253 12.284 107.023 12.9616C106.287 13.3676 106.056 13.6975 106.358 14.5567C106.548 15.0983 106.46 15.7196 106.179 16.2936C105.496 17.6873 105.171 19.2294 105.186 20.7655C105.2 22.2881 105.585 23.819 106.63 24.9588C107.112 25.4856 107.031 26.0372 107.026 26.613C107.019 27.5052 106.92 28.3655 107.458 29.1955C107.733 29.6188 107.878 30.0216 108.419 30.1177C108.959 30.2137 109.306 30.6936 109.529 31.169C110.084 32.3518 111.038 32.8598 112.139 33.2231C113.611 33.7095 113.638 33.7741 113.645 35.4259C113.651 37.0758 113.652 38.7258 113.644 40.3757C113.637 41.8178 113.631 41.8246 112.233 41.8289C110.189 41.8352 108.145 41.848 106.102 41.821C105.411 41.8118 105.024 42.0088 104.562 42.6951C103.364 44.4731 102.924 46.5685 102.11 48.5009C101.809 49.2154 102.445 49.57 102.687 50.183C102.006 50.5502 101.327 50.9168 100.648 51.2823C100.255 51.4936 100.032 51.2844 99.8967 50.9104C99.6875 50.3311 99.1925 49.9775 98.9092 49.4823C98.3987 48.5901 97.471 48.7038 96.7774 48.2775C96.7118 48.2372 96.5853 48.2627 96.5071 48.3029C95.6799 48.7281 94.7661 49.04 94.0991 49.7112C93.4524 50.3618 93.1122 51.2734 93.0507 52.2538C93.0102 52.8998 93.0785 53.5616 92.975 54.1929C92.8797 54.7745 92.6925 55.3403 92.7526 55.933C91.4919 56.2003 90.81 55.6592 90.3724 54.4688C90.0062 53.4725 89.241 52.8095 88.3486 52.3056C87.3661 51.7508 87.3009 51.3512 87.7767 50.299C88.1721 49.4244 88.2466 48.4327 88.7619 47.5666C89.0559 47.0723 88.6905 46.2535 88.3645 45.7611C87.8714 45.0162 87.7943 44.0764 87.2339 43.3759C87.0403 43.134 86.9791 42.7268 86.9478 42.3855C86.8709 41.5482 86.8298 40.7376 86.4249 39.9523C86.1998 39.5156 86.2201 38.8579 86.4481 38.3462C87.0717 36.946 87.089 35.6354 86.146 34.3687C85.9552 34.1125 85.8759 33.7257 85.8298 33.3859C85.717 32.5539 85.3843 31.8778 84.782 31.3414C84.3398 30.9476 84.1574 30.5295 84.6042 29.953C84.754 29.7598 84.6839 29.376 84.7309 29.0823C84.975 27.5559 84.6474 27.0012 83.2155 26.8596C82.4646 26.7854 81.8577 26.6783 81.5472 25.8288C81.4051 25.4398 81.0603 25.44 80.7112 25.5392C79.9681 25.7504 79.7244 25.3119 79.6251 24.6019C79.4181 23.1218 79.3675 23.0851 77.9341 23.4404C76.7867 23.7249 75.7329 23.6168 74.725 22.7564C75.7684 21.2458 74.7794 20.0454 74.0895 18.9584C73.2528 17.64 73.0726 16.3761 73.4723 14.8886C73.8317 13.5512 72.8705 12.8096 72.059 12.2514C71.1713 11.6408 70.5014 10.8851 69.9382 9.83715Z" fill="#01A451"/>
<path d="M18.2856 112.825C20.9067 113.484 23.4145 114.126 25.9344 114.704C26.6788 114.875 27.3082 115.25 27.9551 115.639C32.1148 118.142 36.2164 120.773 40.5432 122.919C44.7811 125.022 49.0681 127.005 53.3346 129.038C53.6301 129.179 53.9434 129.278 54.2312 129.434C54.6301 129.651 54.8497 129.938 54.3502 130.308C53.7346 130.764 53.2613 131.383 52.7287 131.936C52.1356 132.552 51.4978 133.188 50.5531 133.031C50.1904 132.971 49.9147 133.216 49.7159 133.478C49.1534 134.218 48.2672 134.489 47.7043 135.228C47.0874 136.038 46.1495 135.821 45.369 135.888C44.6728 135.948 44.2124 136.122 43.9672 136.81C43.3643 138.5 41.9949 139.19 40.6427 139.889C40.2277 140.104 39.8226 140.036 39.6828 139.422C39.5753 138.95 39.2619 138.789 38.8492 138.808C37.4594 138.875 36.1201 138.43 34.7473 138.312C34.3698 138.28 34.0229 138.328 33.6588 138.375C33.1574 138.44 32.6072 138.586 32.1507 138.434C30.8569 138.003 29.7325 138.29 28.5813 138.983C27.4828 139.645 26.2509 139.315 25.4929 138.309C25.3062 138.061 25.3415 137.734 25.3417 137.432C25.343 135.055 25.3469 132.677 25.3528 130.3C25.3533 130.098 25.2988 129.808 25.3965 129.709C26.3267 128.761 25.7147 127.425 26.1276 126.354C26.2402 126.062 26.2401 125.72 25.978 125.529C25.6818 125.312 25.3649 125.406 25.076 125.626C24.0249 126.426 23.0272 127.302 22.1164 128.284C20.8119 129.691 19.3209 130.465 17.4391 130.317C16.206 130.22 14.9614 130.299 13.6478 130.299C13.6956 129.449 13.7845 128.671 13.0243 128.242C12.9417 128.195 12.9124 127.968 12.9113 127.824C12.9007 126.472 12.0421 126.059 11.0539 125.765C9.5552 125.319 8.0292 125.078 6.45322 125.143C6.45191 124.444 6.91994 124.272 7.14617 123.922C7.79368 122.919 7.69221 122.209 7.13526 121.162C6.47412 119.919 5.36435 119.036 4.90578 117.652C4.76561 117.23 4.38919 117.047 4.08109 116.886C3.33286 116.496 3.00838 115.771 2.78803 115.011C2.57866 114.289 2.47482 113.54 1.97168 112.961C1.88663 112.863 1.80506 112.649 1.84541 112.549C2.30048 111.42 1.55432 111.073 0.882473 110.577C-0.110787 109.843 -0.136436 109.609 0.178988 108.772C0.317355 108.405 0.512832 108.175 0.861623 108.118C1.13882 108.073 1.50828 108.066 1.59503 107.782C1.97916 106.526 2.67378 107.085 3.30505 107.4C4.98278 108.237 6.65115 109.096 8.31994 109.954C8.81999 110.211 9.31265 110.455 9.86273 110.595C12.6392 111.3 15.4065 112.049 18.2856 112.825Z" fill="#01A451"/>
<path d="M173.86 43.5468C173.014 44.1098 172.469 44.9073 171.608 45.3381C171 45.6429 170.643 46.5025 170.327 47.2231C169.988 47.9975 169.576 48.6917 169.056 49.3333C168.289 50.2803 167.726 51.3112 167.793 52.7085C167.846 53.7923 167.409 54.1027 166.459 53.9719C165.68 53.8646 164.896 54.1528 164.104 53.8483C163.453 53.598 162.89 53.3948 163.1 52.4341C163.175 52.0908 162.992 51.8536 162.795 51.6454C162.515 51.3497 162.402 51.0038 162.386 50.5732C162.361 49.8506 162.321 49.1266 161.39 49.134C161.02 49.1369 161.005 48.7231 161.052 48.4443C161.272 47.1148 160.571 46.3838 159.704 45.7424C159.239 45.398 158.948 44.9582 158.792 44.3193C158.617 43.6052 158.321 42.9031 157.964 42.2754C157.435 41.3433 157.369 40.3633 157.658 39.3879C157.853 38.7281 157.678 38.3331 157.279 37.9361C157.077 37.7352 156.895 37.5077 156.685 37.3192C155.851 36.5723 155.091 35.8068 155.609 34.4237C155.667 34.2704 155.615 33.9347 155.511 33.8583C154.672 33.2431 154.132 32.1289 153.011 31.9862C151.926 31.8479 151.086 31.3627 150.28 30.4262C149.636 29.6781 148.791 28.9686 147.593 28.9677C145.736 28.9664 145.151 28.061 145.447 26.0035C145.514 25.5355 145.175 25.1349 145.449 24.633C145.813 24.6978 146.219 24.7304 146.528 25.0195C148.187 26.5746 149.961 26.1598 151.729 25.3759C152.257 25.142 152.705 25.0033 153.276 25.2028C154.103 25.4916 154.957 25.5227 155.837 24.8735C155.799 25.7821 156.194 26.0699 156.848 26.0041C157.027 25.9861 157.248 25.8939 157.38 25.9755C158.678 26.7765 159.521 25.7726 160.338 24.9785C161.167 24.173 162.147 23.4211 162.154 21.9502C162.156 21.6201 162.309 21.2601 162.471 20.967C163.04 19.9323 163.385 18.7968 163.756 17.6675C164.068 16.7162 164.804 16.0699 165.226 15.1662C166.095 13.3057 167.055 11.4876 168.522 10.0863C168.989 9.64027 169.04 8.93729 169.161 8.30108C169.242 7.87715 169.086 7.37261 169.588 7C170.47 7.87011 171.52 8.59745 171.639 10.1337C171.65 10.2835 171.634 10.4947 171.713 10.5704C172.823 11.6348 172.37 13.077 172.427 14.3686C172.532 16.7326 172.965 19.0067 173.803 21.1662C174.093 21.9133 173.799 22.9278 174.359 23.3996C175.032 23.9667 174.797 24.7743 175.111 25.4033C175.257 25.6945 175.124 26.1041 175.395 26.4346C175.556 26.3955 175.729 26.3665 175.895 26.3117C177.325 25.8387 177.517 25.9403 178.104 27.5065C178.226 27.8315 178.348 28.1567 178.46 28.486C178.634 28.9974 178.937 29.2134 179.443 29.3453C181.103 29.7781 181.583 30.6077 181.345 32.4832C181.207 33.5678 181.188 34.7382 180.784 35.6958C180.326 36.7818 179.976 38.1418 178.561 38.3783C177.696 38.5231 177.178 39.1693 176.911 40.1506C176.457 41.8176 175.627 43.1453 173.86 43.5468Z" fill="#01A451"/>
</svg>
