<svg width="213" height="162" viewBox="0 0 213 162" fill="none" xmlns="http://www.w3.org/2000/svg">
<path d="M51.1497 127.868C46.2286 125.509 41.3249 123.384 36.6673 120.669C33.9579 119.09 31.2541 117.496 28.5921 115.824C27.0022 114.825 25.2629 114.49 23.5221 114.066C19.7733 113.152 16.0664 112.018 12.3123 111.157C9.65778 110.549 7.34312 109.18 4.9027 108.076C4.01423 107.674 3.14833 107.212 2.26796 106.789C1.8151 106.57 1.61907 106.358 1.67132 105.673C1.77244 104.348 2.34809 103.532 3.37349 103.009C3.99465 102.692 4.64471 102.444 5.27911 102.158C6.29956 101.698 6.61542 100.905 6.24485 99.7479C6.19931 99.6056 6.17416 99.443 6.09368 99.3286C5.16619 98.0106 5.69812 96.8554 6.48218 95.8004C7.19548 94.8405 7.74666 93.8655 7.7597 92.5685C7.76828 91.7157 8.38911 91.0169 8.38981 90.1252C8.39007 89.7951 8.71827 89.6745 8.95692 89.5286C10.0608 88.8536 11.2155 88.2681 12.0707 87.183C12.233 86.9772 12.5642 86.9403 12.8032 86.7969C13.7567 86.2248 14.8087 85.8067 15.5034 84.817C15.7936 84.4035 16.152 84.2495 16.5863 84.4326C17.2417 84.7091 17.8291 84.4499 18.4546 84.2763C19.6453 83.9458 20.8493 83.6536 22.0622 83.4469C22.6028 83.3547 23.1272 83.2008 23.3324 82.7014C23.732 81.7292 24.493 81.7944 25.2264 81.6753C25.6197 81.6114 26.0206 81.9087 26.4176 81.5601C26.7177 81.2966 26.9787 81.5736 27.0204 81.8804C27.1127 82.5598 27.6285 82.8331 28.0513 82.9603C28.5782 83.1189 29.1906 83.0224 29.7518 82.9309C30.2229 82.8541 30.3655 82.3596 30.4533 81.9124C30.6935 80.6883 30.9338 79.4632 31.1318 78.2304C32.1303 72.0121 33.1154 65.7912 34.1053 59.5713C34.3293 58.1635 34.5831 56.7564 34.6294 55.3271C34.6503 54.6831 34.4564 54.0802 34.0438 53.5407C33.5234 52.8603 33.0813 52.1645 33.2566 51.1074C33.3705 50.4208 33.1365 49.6215 32.3894 49.2285C32.022 49.0352 31.7286 48.6708 31.3596 48.4842C29.994 47.7937 29.5925 46.6209 29.7405 45.053C29.8345 44.0574 29.7807 43.0436 29.7712 42.0383C29.7663 41.5287 29.9035 41.1221 30.3812 41.0058C31.4782 40.7386 32.5486 40.3966 33.5659 39.8642C33.8938 39.6925 34.0623 40.0062 34.2572 40.1987C34.8103 40.7455 35.4412 40.6655 36.0633 40.4335C36.4748 40.28 36.8161 40.0121 36.5511 39.4239C36.3996 39.0876 36.5033 38.7457 36.5226 38.3955C36.5985 37.0177 35.658 35.821 34.3918 35.8103C33.3442 35.8015 32.3221 35.6346 31.189 35.4987C31.189 34.3563 31.2037 33.2052 31.1825 32.0549C31.1727 31.5243 31.3665 31.1245 31.814 31.0374C32.5082 30.9023 33.1764 30.4062 33.9361 30.8358C34.1611 30.9631 34.473 30.9288 34.745 30.9292C37.4959 30.9332 40.2468 30.9309 42.9977 30.9244C43.3078 30.9237 43.6362 30.9893 43.8907 30.7785C44.1544 30.1778 43.3373 29.9347 43.5815 29.3783C43.6493 29.3428 43.7625 29.2476 43.793 29.2728C44.8888 30.1779 45.8554 30.2597 46.5967 28.7759C46.6183 28.7326 46.6574 28.6613 46.6827 28.6641C47.9285 28.8047 48.3773 27.5757 49.169 26.9369C49.2321 26.886 49.3429 26.906 49.5086 26.8818C49.6301 27.4906 49.7682 28.1067 49.8726 28.7295C49.9613 29.2593 50.152 29.7315 50.6387 29.8824C51.3708 30.1095 51.5036 30.7177 51.5259 31.3915C51.5557 32.2948 51.5225 33.2005 51.5408 34.1045C51.5518 34.6489 51.4393 35.2071 51.6437 35.7371C52.3434 35.9291 52.9898 35.095 53.6431 35.5582C54.1739 35.9346 54.5934 36.4967 55.0745 36.9612C55.4864 37.3589 55.9462 37.7019 56.3305 38.1281C56.981 38.8494 57.6136 39.3079 58.6647 39.3014C59.6603 39.2953 60.3137 38.9055 60.9424 38.2321C61.3894 37.7534 61.9379 37.5146 62.5239 37.3788C63.1096 37.2431 63.4054 37.5585 63.321 38.1924C63.2952 38.3863 63.1836 38.5645 63.1376 38.7574C63.0193 39.2528 62.9011 39.8643 63.3854 40.0998C63.8825 40.3414 64.4225 39.9686 64.6692 39.4972C65.0566 38.757 65.3251 37.9735 66.2765 37.9442C66.3986 37.9404 66.5526 37.6854 66.6259 37.5131C67.2195 36.118 68.1875 35.4226 69.5983 35.1818C70.4396 35.0382 71.0058 34.1305 71.6116 33.4375C71.9175 33.6563 72.1688 33.854 72.436 34.0207C72.6086 34.1284 72.8669 34.1128 72.906 33.9085C73.0705 33.0502 73.814 32.8191 74.2981 32.3246C74.9241 31.6852 75.1251 30.9348 75.1612 30.0409C75.2052 28.9529 75.2398 28.9389 76.2828 28.9143C76.8537 28.9009 77.4867 28.7795 77.8104 28.369C78.4667 27.5367 79.3724 27.6028 80.1721 27.3499C80.7608 27.1637 81.4549 27.1294 81.8478 27.943C82.0588 28.3799 82.4523 28.5345 82.9015 28.4979C82.9929 28.4905 83.0855 28.4825 83.1764 28.4905C84.6223 28.6183 85.1285 29.3401 84.4017 30.7377C83.8652 31.7694 84.1805 32.375 84.7436 32.9498C85.2514 33.4682 85.449 34.0816 85.6652 34.7433C85.8787 35.3966 85.9688 36.0846 86.3304 36.7039C86.689 37.318 86.5777 38.1073 86.3377 38.7451C85.8928 39.927 85.8886 41.0459 86.397 42.1825C86.4367 42.2711 86.4752 42.3702 86.4798 42.4664C86.5528 44.0025 87.3098 45.2765 87.8089 46.6488C87.8422 46.7406 87.9111 46.8159 87.9541 46.9044C88.6551 48.3462 87.9519 49.5632 87.4174 50.7979C87.3148 51.0348 87.028 51.0128 86.8195 51.1029C86.1382 51.3974 85.99 51.8951 86.4905 52.4447C87.064 53.0746 87.708 53.6418 88.376 54.1499C89.248 54.813 90.0853 55.4774 90.4937 56.6141C90.7582 57.3505 91.1 57.9002 91.999 57.7996C92.5929 57.7331 93.1178 58.1579 93.5403 58.6619C93.8044 58.9768 94.1012 59.496 94.538 59.1011C94.9135 58.7617 94.541 58.3833 94.3325 58.064C93.8158 57.2725 93.6964 56.4018 93.9625 55.4858C94.1197 54.9448 94.1307 54.4424 94.0424 53.8702C93.8428 52.5781 94.4013 51.4376 95.5332 50.9942C96.1332 50.7592 96.5987 50.1224 97.4293 50.3919C98.3865 50.7025 98.7994 51.4861 99.2531 52.2712C99.4838 52.6705 99.4584 53.2132 100.068 53.3254C100.734 53.448 101.324 53.3131 101.89 52.9848C102.127 52.8475 102.301 52.5841 102.528 52.4208C103.53 51.7024 103.538 51.7059 103.092 50.4099C103.007 50.1622 102.972 49.9369 103.066 49.6869C103.733 47.9118 104.243 46.0646 105.191 44.4201C105.509 43.8688 105.814 43.5458 106.467 43.5614C108.483 43.6095 110.501 43.5635 112.518 43.5861C113.542 43.5976 113.621 43.6995 113.667 44.78C113.7 45.5824 113.735 46.3877 113.709 47.1893C113.681 48.0314 113.728 48.8105 114.48 49.2871C114.82 49.502 114.833 49.8507 114.817 50.205C114.775 51.1054 115.179 51.7453 115.812 52.2308C116.467 52.7333 116.941 53.306 117.155 54.2188C117.434 55.4078 118.524 55.701 119.395 56.171C119.761 56.3687 119.955 55.6776 120.359 55.7521C120.667 55.9866 120.52 56.2812 120.456 56.5624C120.323 57.1423 120.568 57.5461 120.993 57.8194C122.306 58.6627 123.417 59.8744 124.91 60.3874C124.992 60.4154 125.061 60.5702 125.125 60.5619C127.158 60.2968 127.9 62.6403 129.533 63.1743C129.751 63.2456 129.738 63.4051 129.778 63.6132C129.96 64.5648 130.594 65.0053 131.406 64.6475C131.859 64.4475 132.254 64.3373 132.797 64.5314C132.364 65.3683 132.242 66.2685 132.085 67.1838C131.887 68.3391 131.298 69.419 130.846 70.5157C128.486 76.2358 126.11 81.9478 123.752 87.6689C122.13 91.6047 120.505 95.5393 118.937 99.5009C118.597 100.359 118.062 101.006 117.532 101.68C116.471 103.032 116.453 104.036 117.601 105.334C118.345 106.176 119.249 107.041 119.064 108.248C118.883 109.434 118.898 110.786 118.116 111.765C117.548 112.476 117.434 113.133 117.832 113.939C118.345 114.98 117.99 116.071 117.698 116.999C117.41 117.917 117.286 118.839 117.16 119.762C117.07 120.418 116.835 120.558 116.295 120.554C113.224 120.535 110.152 120.549 107.08 120.544C102.999 120.538 98.919 120.529 94.8385 120.512C94.3471 120.51 93.8759 120.554 93.4094 120.168C92.5262 119.437 91.9363 119.593 91.2668 120.572C91.1607 120.727 91.0623 120.888 90.9402 121.078C90.1705 120.694 89.4063 120.406 89.3005 119.311C89.2633 118.927 88.9402 118.754 88.5969 118.7C88.2888 118.651 88.0536 118.43 88.0121 118.137C87.8899 117.276 87.3699 116.907 86.7113 116.566C86.2319 116.319 85.8248 115.918 85.6166 115.29C85.2313 114.127 84.3948 113.579 83.2855 113.564C81.8186 113.543 80.3506 113.584 78.8844 113.542C78.2562 113.524 77.8457 113.713 77.5935 114.379C77.4028 114.883 77.0823 115.325 76.8645 115.819C76.7543 116.068 76.6408 116.241 76.3831 116.271C75.4337 116.382 75.2214 117.136 75.197 117.989C75.1725 118.843 75.0014 119.546 74.243 119.994C73.5547 120.402 74.0129 121.326 73.5955 121.972C73.0043 121.699 72.4087 121.839 71.7775 121.982C70.9822 122.162 70.18 122.356 69.3392 122.323C68.3211 122.283 68.1011 122.457 67.937 123.534C67.7997 124.435 67.4493 125.125 66.8291 125.705C66.4986 125.654 66.4816 125.307 66.3705 125.059C66.1411 124.546 65.7836 124.39 65.3709 124.72C64.8821 125.112 64.0363 124.81 63.8141 125.735C63.7569 125.973 63.4199 125.924 63.1932 125.934C62.9103 125.946 62.5696 125.987 62.4557 126.255C61.965 127.412 61.3768 126.831 60.8919 126.338C60.3279 125.765 59.7489 125.526 59.0211 125.819C58.6526 125.968 58.3004 125.807 57.9426 125.803C57.3485 125.798 56.8177 125.872 56.6475 126.762C56.4547 127.77 55.4864 127.948 54.7998 128.417C54.0431 128.934 53.3112 129.092 52.5029 128.514C52.126 128.244 51.6657 128.114 51.1497 127.868Z" fill="#ED3237"/>
<path d="M133.926 64.7737C134.445 64.414 134.828 64.0501 135.085 63.5682C135.234 63.2895 135.559 62.971 135.265 62.6436C135.022 62.3723 134.569 62.4242 134.361 62.6228C133.321 63.6202 131.896 63.2299 130.602 64.0944C130.844 62.9006 130.529 62.3752 129.549 62.1733C128.87 62.0334 128.24 61.5458 127.962 60.6776C127.796 60.1603 127.378 59.8066 126.798 59.7753C124.729 59.664 123.197 58.2778 121.577 57.1164C121.199 56.846 121.196 56.3839 121.164 55.9136C121.083 54.7229 120.86 54.6054 119.814 55.0599C119.242 55.3087 118.091 54.6774 117.916 53.8286C117.704 52.8007 117.187 52.189 116.382 51.7017C115.898 51.4088 115.605 50.9209 115.594 50.224C115.583 49.5285 115.426 48.8283 114.815 48.4001C114.549 48.2144 114.504 47.9215 114.498 47.6149C114.464 45.9733 114.167 44.3543 114.234 42.6978C114.31 40.851 114.248 38.9976 114.255 37.1471C114.256 36.753 114.111 36.1469 114.402 36.0155C114.986 35.7523 115.361 34.9709 116.03 35.0722C116.919 35.2069 117.332 34.7518 117.514 33.9337C117.607 33.5113 117.897 33.2658 118.073 32.9261C118.345 32.401 118.724 32.4619 119.138 32.618C120.432 33.1067 120.391 33.0658 121.288 32.0557C121.759 31.5248 122.427 31.1337 123.149 31.3257C124.177 31.599 124.701 31.032 125.184 30.1789C125.792 29.1051 127.035 28.8422 128.084 29.3683C128.876 29.7653 129.623 30.0468 130.626 29.6097C131.471 29.2411 132.554 29.1012 133.563 29.5675C134.225 29.8731 134.961 30.011 135.676 30.1506C136.334 30.2791 136.762 29.954 136.838 29.2691C136.921 28.5221 136.989 27.6613 136.4 27.1617C135.518 26.4135 135.818 25.6956 136.231 24.9064C136.298 24.7796 136.385 24.6658 136.54 24.4262C137.64 25.6434 139.002 25.1365 140.302 25.1457C140.551 25.1475 140.774 25.1148 140.918 24.9083C141.518 24.0487 142.53 24.3956 143.265 23.9364C143.454 23.8186 143.629 23.9013 143.731 24.0906C144.19 24.9409 144.892 25.7589 144.682 26.8086C144.439 28.0305 145.027 29.0465 145.148 30.1691C145.205 30.697 145.639 30.6632 146.009 30.695C147.052 30.7845 148.098 30.8399 149.003 31.5474C149.344 31.8134 149.66 32.093 149.919 32.4442C150.612 33.3849 151.525 33.8468 152.609 33.9753C153.729 34.108 154.616 35.0117 154.908 36.2291C155.116 37.0977 155.357 37.9012 156.171 38.4377C157.027 39.0019 157.533 39.7857 157.125 41.0802C156.801 42.1124 157.402 43.117 157.827 44.0449C158.133 44.7126 158.54 45.321 158.66 46.0804C158.745 46.6166 159.074 46.9271 159.502 47.1871C160.223 47.6249 160.666 48.2368 160.632 49.2362C160.608 49.9562 160.876 50.615 161.632 50.8277C161.887 50.8993 162.104 51.1491 162.06 51.3449C161.826 52.3692 162.415 53.0836 162.703 53.9386C162.906 54.5444 163.235 54.8659 163.634 55.1122C164.219 55.4725 164.961 55.5178 165.406 56.1739C165.451 56.24 165.604 56.303 165.651 56.2707C166.463 55.7106 167.563 55.9937 168.294 55.1679C168.67 54.7435 168.909 54.3038 168.84 53.7066C168.713 52.6167 169.137 51.7351 169.817 51.0254C170.532 50.2784 170.98 49.3724 171.42 48.4361C171.816 47.5924 172.44 47.046 173.157 46.4559C174.174 45.6185 175.283 45.0091 176.325 44.2559C177.223 43.6067 177.81 42.6161 178.053 41.4506C178.243 40.5463 178.786 40.1701 179.552 39.9123C180.216 39.6887 180.539 39.9535 180.655 40.576C180.746 41.0568 180.738 41.572 180.701 42.0653C180.651 42.713 180.928 42.9137 181.467 43.0398C181.94 43.1502 182.366 43.0579 182.817 43.0055C183.539 42.9218 184.146 43.0466 184.508 43.9098C184.985 45.0507 185.875 45.7347 186.926 46.2346C187.716 46.6106 188.499 47.0074 189.247 47.5133C189.923 47.9711 190.809 47.94 191.627 47.9198C191.945 47.9119 192.265 47.8094 192.58 47.8287C193.244 47.8693 193.356 48.0934 193.114 48.7773C192.691 49.971 192.688 49.9823 193.845 50.411C194.67 50.7168 195.52 50.9602 196.266 51.4681C196.792 51.8263 197.476 51.8363 197.832 51.537C198.858 50.6749 199.524 51.5972 200.17 52.04C200.665 52.38 200.808 52.5176 201.019 51.8743C201.218 51.2668 201.553 51.2485 201.931 51.6861C202.416 52.2464 202.994 52.4745 203.691 52.6607C204.536 52.8863 205.274 53.5498 206.139 53.8174C207.442 54.2211 208.635 54.8913 209.827 55.5685C209.945 55.6356 210.184 55.6343 210.198 55.705C210.311 56.2651 210.488 56.868 210.296 57.4041C210.018 58.1842 210.933 59.2744 209.802 59.7848C209.055 60.1217 208.953 60.4792 209.4 61.2482C209.912 62.1292 209.61 63.3765 208.721 64.1535C208.182 64.624 207.951 65.2539 208.062 65.8303C208.246 66.7804 207.825 67.2468 207.207 67.6181C206.609 67.9781 206.37 68.4306 206.45 69.191C206.608 70.6911 205.944 71.9298 205.156 73.0468C204.196 74.4077 203.451 75.8103 203.268 77.5704C203.18 78.4115 202.518 79.0255 201.922 79.5706C201.673 79.7984 201.385 79.9802 201.298 80.337C201.009 81.5223 200.135 82.3495 199.713 83.4566C199.491 84.0379 199.103 84.4091 198.44 84.3936C197.62 84.3744 197.173 85.1547 196.614 85.6235C194.836 87.1148 193.125 88.7017 191.386 90.249C191.244 90.3752 191.071 90.4626 190.941 90.6002C190.519 91.0457 190.558 91.3648 191.084 91.6071C191.592 91.8415 192.126 91.994 192.69 91.9381C193.219 91.8857 193.697 91.9358 193.971 92.5487C194.046 92.7167 194.207 92.8522 194.353 92.9667C194.601 93.1615 195.063 93.08 195.109 93.5119C195.161 94.0031 194.686 93.9301 194.436 94.0946C194.152 94.2815 194.134 94.5914 194.163 94.8847C194.278 96.0338 193.76 96.9124 193.361 97.9241C192.922 99.0373 192.192 99.7625 191.582 100.653C191.474 100.81 191.351 101.006 191.347 101.187C191.32 102.349 190.607 102.609 189.738 102.79C189.306 102.88 188.883 103.089 188.471 103.331C187.486 103.909 186.914 104.573 187.259 105.923C187.51 106.906 187.017 107.754 186.468 108.533C185.607 109.757 185.628 110.481 186.728 111.464C187.435 112.095 187.529 112.689 187.381 113.65C187.014 116.045 185.75 117.928 184.667 119.925C184.575 120.094 184.465 120.307 184.315 120.374C182.549 121.171 182.162 123.281 180.93 124.593C180.53 125.019 180.424 125.758 180.386 126.412C180.357 126.926 180.161 127.378 180.019 127.85C179.789 128.617 179.318 128.907 178.554 128.88C175.897 128.786 173.25 128.581 170.605 128.305C169.146 128.153 167.677 128.123 166.216 128.025C164.25 127.893 162.287 127.695 160.318 127.59C157.303 127.43 154.297 127.064 151.286 126.795C150.008 126.681 148.729 126.641 147.449 126.498C144.58 126.178 141.693 126.058 138.818 125.8C136.265 125.57 133.718 125.26 131.167 125C130.741 124.956 130.346 124.914 130.118 124.444C129.744 123.674 128.715 124.092 128.392 123.425C128.091 122.804 127.888 122.136 127.358 121.698C126.529 121.012 125.538 120.622 124.683 119.966C124.234 119.622 123.961 119.314 123.872 118.7C123.745 117.814 123.466 116.943 123.629 116.038C123.755 115.339 123.36 114.886 123.046 114.422C122.605 113.772 122.274 113.105 122.099 112.306C121.745 110.689 121.185 109.165 120.054 107.972C119.989 107.903 119.894 107.823 119.887 107.74C119.759 106.259 118.773 105.404 117.92 104.427C117.254 103.663 117.119 102.638 117.704 102.169C119.263 100.921 119.702 98.9788 120.436 97.2377C122.965 91.2462 125.433 85.2245 127.918 79.2114C129.537 75.2942 131.142 71.3704 132.762 67.4539C132.957 66.9837 133.036 66.5174 132.995 66.001C132.945 65.3571 133.262 64.9707 133.926 64.7737Z" fill="#ED3237"/>
<path d="M195.163 95.8763C194.928 95.2943 194.637 94.9395 195.332 94.4594C196.145 93.8965 196.025 93.1577 195.223 92.5893C195.034 92.4552 194.728 92.3963 194.653 92.213C194.226 91.157 193.472 91.0097 192.552 91.2967C192.807 89.9643 193.248 89.6232 194.164 90.0634C195.001 90.4659 195.799 90.9637 196.746 90.4989C196.818 90.4635 196.986 90.4753 197 90.5134C197.506 91.9512 199.031 91.6341 199.833 92.5602C199.993 92.7456 200.207 92.9241 200.176 93.178C200.045 94.2553 200.589 95.2356 200.505 96.3055C200.473 96.7036 200.438 97.1475 200.559 97.5058C200.952 98.6708 200.75 99.7998 200.468 100.917C200.185 102.034 199.906 103.131 199.91 104.317C199.913 105.179 199.442 105.795 198.735 106.201C198.231 106.49 198.091 107.075 198.578 107.403C199.361 107.93 199.247 109.052 200.024 109.624C200.665 110.096 201.046 111.003 201.55 111.711C202.079 112.456 202.616 113.195 203.153 113.934C203.323 114.168 203.478 114.426 203.683 114.613C203.941 114.847 204.349 115.003 204.526 114.649C204.893 113.912 205.604 113.973 206.137 113.65C206.964 113.148 207.553 113.599 207.566 114.616C207.583 115.881 207.558 115.911 206.414 116.445C205.048 117.083 204.217 118.177 204.309 119.883C204.361 120.838 203.862 121.505 203.49 122.205C203.111 122.918 203.318 123.296 203.86 123.473C204.6 123.715 204.947 124.174 205.114 125.01C205.236 125.62 205.551 126.213 206.201 126.417C206.848 126.619 207.123 127.029 206.709 127.749C206.324 128.417 206.411 128.971 207.001 129.443C207.502 129.846 207.718 130.404 207.82 131.102C207.993 132.285 208.645 132.86 209.738 132.913C210.739 132.961 211.535 133.755 212.57 133.717C212.426 134.963 211.519 135.31 210.822 135.759C210.209 136.155 209.684 136.548 209.484 137.307C209.163 138.52 208.258 139.376 207.918 140.562C207.777 141.056 207.474 141.298 207.101 141.496C206.751 141.682 206.609 142.066 206.776 142.37C207.204 143.149 207.247 144.292 208.275 144.542C208.97 144.711 209.049 145.117 208.711 145.735C208.619 145.903 208.428 146.096 208.455 146.236C208.723 147.622 208.174 149.001 208.442 150.381C208.471 150.529 208.465 150.721 208.547 150.814C209.654 152.081 209.015 153.639 209.179 155.191C208.745 155.227 208.057 154.662 208.032 155.707C208.021 156.146 207.587 156.138 207.272 156.133C206.164 156.114 205.241 156.398 204.331 157.278C203.637 157.949 202.545 158.137 201.607 158.453C201.073 158.633 200.718 158.045 200.274 157.826C199.88 157.632 199.535 157.157 199.051 157.571C198.583 157.971 198.539 158.468 198.792 159.046C198.889 159.269 198.884 159.536 198.706 159.882C197.928 158.792 196.493 159.014 195.736 157.833C195.507 157.476 195.008 157.808 194.751 158C194.09 158.492 193.713 158.497 193.069 157.78C192.414 157.05 191.664 156.387 191.013 155.629C190.255 154.747 190.267 154.733 189.337 155.579C189.259 155.552 189.162 155.548 189.106 155.493C188.132 154.531 188.013 154.514 187.24 155.604C186.678 156.396 186.341 157.338 185.985 158.361C185.36 158.262 184.852 157.838 184.324 157.502C183.23 156.807 182.213 155.983 180.924 155.694C180.075 155.504 179.787 154.736 180.183 153.855C180.554 153.029 180.506 152.032 181.202 151.299C179.726 151.379 178.874 152.171 177.526 154.63C177.128 153.903 176.957 153.2 177.251 152.379C177.54 151.574 177.151 150.794 177.045 150.015C176.956 149.36 176.811 148.737 177.023 148.091C177.153 147.693 177.157 147.306 176.977 146.922C176.799 146.541 176.793 146.153 176.955 145.758C177.162 145.252 177.12 144.775 176.786 144.351C176.48 143.962 176.439 143.454 176.603 143.066C177.267 141.485 177.395 139.785 177.521 138.101C177.615 136.851 178.183 135.829 178.552 134.713C178.755 134.098 179.05 133.503 179.035 132.842C179.019 132.135 179.612 131.831 179.765 131.271C180.222 129.593 181.184 128.123 181.354 126.322C181.421 125.618 181.688 124.975 182.225 124.508C182.588 124.192 182.774 123.72 183.002 123.283C183.406 122.511 183.753 121.72 184.629 121.374C185.291 121.112 185.56 120.309 185.868 119.636C186.493 118.274 187.439 117.104 187.805 115.589C187.946 115.007 188.142 114.433 188.207 113.841C188.322 112.781 188.366 111.801 187.294 111.106C186.443 110.554 186.479 109.921 187.154 108.982C187.741 108.165 188.082 107.32 188.013 106.219C187.917 104.679 188.347 104.14 189.688 103.596C190.19 103.392 190.749 103.449 191.215 103.034C191.646 102.649 192.022 102.365 192.086 101.637C192.176 100.611 192.521 100.362 193.592 100.234C194.004 100.185 194.244 99.929 194.074 99.5609C193.732 98.8172 193.639 98.254 194.487 97.9106C194.59 97.8686 194.739 97.6225 194.712 97.5726C194.313 96.8194 195.306 96.6009 195.163 95.8763Z" fill="#ED3237"/>
<path d="M65.8871 143.486C65.6334 142.853 66.1022 142.249 65.648 141.665C65.5351 141.52 65.567 140.867 65.8512 140.432C66.3383 139.687 66.3345 138.857 65.8064 138.06C65.3119 137.314 65.3431 136.351 65.0624 135.507C64.8996 135.018 65.2325 134.352 65.5667 133.846C65.937 133.286 66.063 132.677 65.8444 131.99C65.6752 131.458 65.6038 130.848 65.7816 130.351C66.1295 129.378 65.5519 128.813 65.1111 128.229C64.7642 127.769 64.2483 127.598 63.8696 128.273C63.7094 128.559 63.573 128.72 63.2281 128.633C61.3844 128.169 59.6252 128.76 57.8568 129.203C57.148 129.381 56.4626 129.698 55.7149 129.635C55.4751 129.615 55.2309 129.514 55.2101 129.238C55.1984 129.082 55.348 128.808 55.4792 128.757C56.4812 128.367 57.1053 127.536 57.7236 126.64C58.0811 126.123 60.1721 126.212 60.7001 126.669C60.8791 126.823 61.0286 127.019 61.1977 127.188C61.915 127.907 62.1361 127.943 62.7379 127.126C63.1451 126.574 63.4325 126.305 64.0655 126.78C64.4236 127.048 64.8903 126.95 64.9081 126.257C64.9165 125.932 65.044 125.68 65.276 125.485C65.6152 125.2 65.8295 125.065 66.0622 125.691C66.4248 126.667 66.9082 126.794 67.6023 126.123C68.215 125.531 68.7903 124.854 68.7478 123.829C68.7123 122.975 69.0427 122.682 69.8409 122.8C70.3653 122.878 70.9285 122.717 71.4637 122.602C71.913 122.506 72.3228 122.439 72.8004 122.558C73.9626 122.848 74.2826 122.568 74.5698 121.266C74.6559 120.876 74.7794 120.555 75.116 120.282C75.8267 119.707 76.2896 118.963 76.1699 117.88C76.1139 117.373 76.0526 116.713 76.9099 116.836C77.3819 116.903 77.5903 116.407 77.7641 115.99C77.9157 115.627 78.0583 115.257 78.1821 114.88C78.4397 114.097 78.9374 113.849 79.6754 113.885C80.8156 113.941 81.9597 113.904 83.1022 113.899C84.0608 113.896 84.731 114.304 85.1015 115.35C85.3127 115.947 85.6941 116.474 86.0279 117.011C86.1211 117.16 86.349 117.355 86.4616 117.32C87.484 117.002 87.4273 117.912 87.5878 118.523C87.7208 119.029 87.8378 119.516 88.3794 119.627C88.798 119.713 88.9783 120.033 89.1391 120.412C89.4531 121.152 90.2275 121.211 90.7425 121.671C91.0571 121.952 91.4786 121.615 91.7827 121.226C92.5803 120.206 92.9717 120.195 93.7285 121.092C93.8455 121.23 94.0122 121.5 93.9654 121.597C93.5557 122.447 93.9114 123.567 93.2043 124.291C92.8221 124.682 92.922 125.128 93.0546 125.537C93.2216 126.053 93.4588 126.549 93.7147 127.021C93.9517 127.457 94.0587 127.839 93.6662 128.229C93.4792 128.415 93.414 128.685 93.5159 128.92C93.9331 129.885 93.6958 130.795 93.3541 131.692C93.0935 132.375 93.2901 133.081 93.561 133.581C94.3177 134.979 94.019 136.4 93.8838 137.836C93.87 137.983 93.7838 138.12 93.7603 138.268C93.5736 139.441 93.8282 139.861 94.9349 139.897C96.7157 139.954 98.499 139.914 100.281 139.921C101.048 139.924 101.817 139.805 102.437 140.567C102.84 141.064 103.483 140.78 104.015 140.855C104.551 140.931 105.2 140.809 105.433 141.503C105.674 142.224 105.639 142.905 105.083 143.583C104.066 144.824 103.992 146.154 104.884 147.475C105.595 148.528 105.948 149.749 106.494 150.875C106.654 151.207 106.543 151.456 106.338 151.682C106.078 151.966 105.819 152.253 105.535 152.506C104.921 153.052 104.591 153.735 104.693 154.614C104.781 155.381 104.608 155.951 103.975 156.398C103.004 157.084 102.903 158.362 102.575 159.42C102.361 160.111 102.099 160.564 101.551 160.882C101.268 161.046 100.999 161.237 100.723 161.414C99.6946 162.077 99.6974 162.073 98.7201 161.159C98.2861 160.753 97.8061 160.473 97.213 160.685C96.3653 160.989 95.4041 160.395 94.6081 161.092C93.7989 160.357 92.7133 161.177 92.0436 160.726C91.2065 160.162 90.2789 159.452 89.8997 158.301C89.7371 157.807 89.4422 157.452 89.0051 157.545C88.1128 157.733 87.3968 157.182 86.6711 156.874C85.5719 156.406 84.3233 156.177 83.4899 155.092C83.3163 154.866 83.0023 154.734 82.8999 154.486C82.4702 153.441 81.8842 152.989 80.8462 153.543C80.5245 153.715 80.2812 153.372 80.0362 153.128C79.4628 152.555 78.767 152.184 78.07 151.832C77.4147 151.501 76.7174 151.432 76.1183 151.904C75.7748 152.175 75.4947 152.204 75.1216 152.11C74.4129 151.93 73.7092 151.73 72.9638 151.771C72.3592 151.804 72.0628 151.392 71.9969 150.746C71.934 150.13 71.6931 149.695 71.0568 149.684C70.22 149.669 70.2876 148.485 69.4919 148.276C68.4228 147.997 67.5766 147.299 67.5314 145.887C67.5276 145.769 67.3828 145.568 67.2863 145.555C66.5214 145.447 66.5516 144.819 66.4979 144.208C66.469 143.879 66.1803 143.737 65.8871 143.486Z" fill="#ED3237"/>
<path d="M70.5083 10.719C71.0612 10.6275 71.5489 10.5052 72.055 10.4026C73.0586 10.1992 73.976 10.3001 74.5598 11.4521C74.8949 12.1131 75.3464 12.6116 76.2523 12.1994C76.9302 11.891 77.7286 12.1295 78.4014 12.4816C79.0354 12.8133 79.5317 12.7888 80.0124 12.1984C80.3975 11.7254 80.7145 11.7844 80.8798 12.4323C80.9434 12.6812 81.1017 12.922 81.3325 12.9603C81.9413 13.0617 82.0916 13.5495 82.3309 14.0547C82.7042 14.8427 83.0686 14.891 83.7611 14.4137C83.9149 14.3078 84.0414 14.1314 84.2065 14.0731C85.3311 13.6759 85.3416 13.6716 85.2545 12.5583C85.1682 11.4539 85.167 11.4465 86.2285 11.2424C86.4624 11.1974 86.7158 11.1866 86.8185 10.9315C87.2263 9.91869 87.9647 10.246 88.5957 10.4813C89.1333 10.6818 89.6351 10.5613 90.1342 10.5938C91.5616 10.6868 92.4263 9.16939 93.8119 9.34467C93.9633 9.36383 94.2198 9.2244 94.2879 9.08144C95.0789 7.42145 96.7771 7.70322 98.0379 7.06944C98.4786 6.84786 98.9404 6.69823 99.0791 6.20909C99.2368 5.65321 99.5891 5.40613 100.012 5.18902C100.443 4.96715 100.738 4.57857 101.07 4.22987C101.615 3.65787 101.884 3.05127 101.537 2.22175C101.268 1.57865 101.567 1.30118 102.179 1.29689C102.594 1.29398 103.012 1.26871 103.423 1.2103C103.851 1.14949 104.288 0.579599 104.696 1.09737C105.165 1.69219 105.778 2.29622 105.613 3.18434C105.445 4.09177 105.44 5.04529 104.821 5.84051C104.232 6.59782 104.449 7.08933 105.334 7.27816C106.014 7.42345 106.702 7.53079 107.377 7.70144C107.684 7.77925 108.053 7.93214 107.894 8.40884C107.62 9.22935 108.025 9.81712 108.379 10.4711C109.095 11.7933 108.823 13.1658 107.593 13.8435C106.857 14.2494 106.626 14.5793 106.928 15.4385C107.118 15.9801 107.03 16.6014 106.749 17.1755C106.067 18.5691 105.741 20.1113 105.756 21.6474C105.77 23.17 106.155 24.7008 107.2 25.8406C107.682 26.3674 107.601 26.919 107.596 27.4949C107.589 28.387 107.49 29.2474 108.028 30.0773C108.303 30.5006 108.448 30.9035 108.989 30.9995C109.529 31.0955 109.877 31.5755 110.099 32.0508C110.654 33.2336 111.608 33.7416 112.709 34.105C114.181 34.5913 114.208 34.656 114.215 36.3078C114.221 37.9577 114.222 39.6077 114.214 41.2576C114.207 42.6997 114.201 42.7065 112.803 42.7108C110.759 42.7171 108.715 42.7298 106.672 42.7028C105.981 42.6937 105.594 42.8906 105.132 43.5769C103.934 45.3549 103.495 47.4503 102.68 49.3828C102.379 50.0973 103.016 50.4518 103.257 51.0648C102.576 51.4321 101.898 51.7986 101.218 52.1641C100.825 52.3754 100.602 52.1662 100.467 51.7923C100.258 51.2129 99.7626 50.8593 99.4793 50.3641C98.9688 49.4719 98.0411 49.5857 97.3475 49.1593C97.2819 49.119 97.1553 49.1445 97.0771 49.1847C96.25 49.6099 95.3362 49.9219 94.6692 50.593C94.0225 51.2437 93.6822 52.1552 93.6208 53.1357C93.5803 53.7817 93.6486 54.4434 93.5451 55.0747C93.4498 55.6563 93.2625 56.2221 93.3227 56.8148C92.062 57.0821 91.3801 56.541 90.9425 55.3507C90.5763 54.3543 89.8111 53.6913 88.9186 53.1874C87.9362 52.6326 87.871 52.233 88.3467 51.1809C88.7422 50.3062 88.8166 49.3145 89.3319 48.4484C89.626 47.9542 89.2606 47.1353 88.9346 46.6429C88.4415 45.898 88.3644 44.9582 87.8039 44.2577C87.6104 44.0158 87.5492 43.6086 87.5179 43.2673C87.441 42.4301 87.3999 41.6195 86.995 40.8341C86.7699 40.3974 86.7902 39.7397 87.0181 39.228C87.6418 37.8278 87.659 36.5173 86.7161 35.2506C86.5253 34.9943 86.4459 34.6076 86.3998 34.2677C86.2871 33.4358 85.9544 32.7596 85.3521 32.2232C84.9099 31.8295 84.7275 31.4113 85.1742 30.8349C85.324 30.6416 85.254 30.2578 85.3009 29.9642C85.5451 28.4377 85.2175 27.8831 83.7856 27.7415C83.0347 27.6672 82.4278 27.5602 82.1173 26.7106C81.9751 26.3217 81.6304 26.3218 81.2813 26.4211C80.5381 26.6323 80.2945 26.1938 80.1952 25.4837C79.9881 24.0036 79.9376 23.9669 78.5042 24.3223C77.3567 24.6067 76.303 24.4986 75.2951 23.6382C76.3385 22.1276 75.3494 20.9273 74.6596 19.8402C73.8229 18.5219 73.6427 17.2579 74.0424 15.7704C74.4018 14.433 73.4406 13.6915 72.6291 13.1333C71.7414 12.5226 71.0714 11.7669 70.5083 10.719Z" fill="#ED3237"/>
<path d="M18.8559 113.707C21.477 114.366 23.9849 115.007 26.5048 115.586C27.2491 115.757 27.8785 116.132 28.5254 116.521C32.6851 119.024 36.7867 121.655 41.1135 123.801C45.3514 125.903 49.6384 127.887 53.9049 129.92C54.2004 130.06 54.5137 130.16 54.8016 130.316C55.2004 130.533 55.42 130.82 54.9206 131.19C54.3049 131.646 53.8316 132.265 53.299 132.818C52.7059 133.434 52.0681 134.069 51.1234 133.913C50.7608 133.853 50.485 134.098 50.2862 134.36C49.7237 135.1 48.8375 135.371 48.2746 136.11C47.6577 136.92 46.7198 136.703 45.9393 136.77C45.2431 136.83 44.7827 137.004 44.5375 137.691C43.9346 139.382 42.5652 140.072 41.213 140.771C40.798 140.986 40.3929 140.918 40.2531 140.304C40.1456 139.832 39.8322 139.671 39.4195 139.69C38.0297 139.757 36.6904 139.312 35.3176 139.194C34.9401 139.162 34.5933 139.21 34.2291 139.257C33.7277 139.322 33.1775 139.468 32.721 139.316C31.4272 138.885 30.3028 139.171 29.1516 139.865C28.0531 140.527 26.8212 140.197 26.0632 139.191C25.8765 138.943 25.9118 138.616 25.912 138.314C25.9133 135.937 25.9172 133.559 25.9231 131.182C25.9236 130.98 25.8691 130.69 25.9668 130.591C26.897 129.643 26.285 128.307 26.6979 127.236C26.8106 126.943 26.8104 126.602 26.5483 126.41C26.2522 126.194 25.9352 126.288 25.6463 126.508C24.5952 127.308 23.5975 128.183 22.6867 129.166C21.3822 130.573 19.8913 131.347 18.0094 131.199C16.7763 131.102 15.5317 131.181 14.2181 131.181C14.266 130.331 14.3548 129.552 13.5946 129.123C13.512 129.077 13.4827 128.85 13.4816 128.706C13.471 127.354 12.6124 126.941 11.6242 126.647C10.1255 126.201 8.59952 125.96 7.02353 126.024C7.02222 125.326 7.49025 125.154 7.71648 124.803C8.364 123.8 8.26253 123.091 7.70557 122.044C7.04443 120.801 5.93466 119.918 5.4761 118.534C5.33593 118.111 4.9595 117.929 4.65141 117.768C3.90318 117.378 3.57869 116.653 3.35834 115.893C3.14897 115.17 3.04514 114.422 2.54199 113.843C2.45695 113.745 2.37537 113.531 2.41572 113.431C2.87079 112.302 2.12464 111.955 1.45279 111.458C0.459526 110.725 0.433877 110.491 0.7493 109.654C0.887668 109.287 1.08314 109.056 1.43194 109C1.70913 108.955 2.0786 108.948 2.16534 108.664C2.54948 107.408 3.24409 107.967 3.87537 108.282C5.55309 109.118 7.22146 109.978 8.89025 110.836C9.39031 111.093 9.88296 111.337 10.433 111.476C13.2095 112.182 15.9768 112.931 18.8559 113.707Z" fill="#ED3237"/>
<path d="M174.43 44.4286C173.585 44.9916 173.039 45.7892 172.179 46.22C171.57 46.5247 171.213 47.3844 170.898 48.1049C170.559 48.8793 170.146 49.5736 169.626 50.2151C168.859 51.1621 168.296 52.193 168.364 53.5903C168.416 54.6742 167.98 54.9845 167.03 54.8538C166.25 54.7465 165.466 55.0347 164.674 54.7301C164.023 54.4798 163.46 54.2766 163.67 53.3159C163.745 52.9726 163.563 52.7354 163.365 52.5272C163.085 52.2315 162.972 51.8857 162.957 51.455C162.931 50.7324 162.891 50.0085 161.961 50.0158C161.59 50.0188 161.576 49.6049 161.622 49.3261C161.842 47.9966 161.141 47.2656 160.275 46.6242C159.809 46.2798 159.518 45.84 159.362 45.2012C159.188 44.487 158.891 43.7849 158.535 43.1572C158.006 42.2251 157.94 41.2451 158.228 40.2697C158.424 39.6099 158.249 39.2149 157.849 38.8179C157.647 38.6171 157.465 38.3895 157.255 38.201C156.421 37.4542 155.661 36.6886 156.18 35.3055C156.237 35.1523 156.185 34.8165 156.081 34.7401C155.243 34.125 154.702 33.0108 153.582 32.868C152.496 32.7298 151.656 32.2445 150.85 31.308C150.206 30.5599 149.361 29.8504 148.164 29.8495C146.306 29.8482 145.721 28.9429 146.017 26.8854C146.085 26.4173 145.745 26.0167 146.019 25.5148C146.383 25.5796 146.79 25.6123 147.098 25.9013C148.757 27.4564 150.532 27.0417 152.3 26.2577C152.827 26.0239 153.275 25.8851 153.847 26.0847C154.673 26.3735 155.527 26.4045 156.407 25.7554C156.369 26.6639 156.764 26.9517 157.419 26.886C157.598 26.868 157.818 26.7757 157.951 26.8574C159.249 27.6584 160.092 26.6544 160.909 25.8604C161.738 25.0549 162.718 24.3029 162.724 22.8321C162.726 22.5019 162.88 22.1419 163.041 21.8489C163.61 20.8141 163.956 19.6787 164.326 18.5493C164.638 17.598 165.374 16.9517 165.796 16.048C166.666 14.1876 167.625 12.3695 169.092 10.9682C169.559 10.5221 169.61 9.81912 169.732 9.18291C169.813 8.75899 169.656 8.25445 170.159 7.88184C171.04 8.75195 172.09 9.47929 172.209 11.0156C172.22 11.1654 172.204 11.3766 172.283 11.4523C173.393 12.5167 172.94 13.9589 172.997 15.2505C173.102 17.6144 173.535 19.8885 174.374 22.048C174.664 22.7952 174.369 23.8097 174.929 24.2814C175.603 24.8485 175.367 25.6561 175.682 26.2851C175.828 26.5764 175.695 26.986 175.965 27.3164C176.127 27.2774 176.3 27.2484 176.465 27.1935C177.896 26.7205 178.087 26.8222 178.675 28.3883C178.797 28.7133 178.918 29.0385 179.03 29.3678C179.204 29.8792 179.507 30.0952 180.013 30.2271C181.674 30.66 182.153 31.4896 181.915 33.365C181.778 34.4496 181.758 35.62 181.354 36.5776C180.896 37.6636 180.546 39.0236 179.132 39.2602C178.266 39.405 177.748 40.0511 177.481 41.0324C177.028 42.6995 176.198 44.0271 174.43 44.4286Z" fill="#ED3237"/>
</svg>
