<svg width="212" height="173" viewBox="0 0 212 173" fill="none" xmlns="http://www.w3.org/2000/svg">
<path d="M203.243 25.9039C204.459 26.6911 205.493 27.3413 206.519 28.0029C208.16 29.0606 208.476 30.4483 207.313 31.9193C206.615 32.8018 205.867 33.6964 204.968 34.3735C203.107 35.7752 201.634 37.3653 201.102 39.6509C201.005 40.0709 200.742 40.5284 200.197 40.6574C198.598 41.0356 198.321 42.3898 197.854 43.5927C197.138 45.4348 197.579 47.4683 196.837 49.3169C196.655 49.7702 196.885 50.2357 197.325 50.5294C199.317 51.8596 200.183 54.2865 202.448 55.3648C202.761 55.5137 202.999 55.8839 203.177 56.2007C203.499 56.7755 203.49 57.3347 202.634 57.3685C201.77 57.4027 200.882 57.393 200.04 57.2319C199.349 57.0997 198.664 56.9444 198.079 57.3197C196.763 58.1654 195.457 58.5572 193.859 58.0129C193.188 57.7843 192.409 58.3141 192.361 59.0107C192.267 60.3612 191.332 60.7972 190.313 61.4176C188.766 62.3594 188.136 63.9305 187.938 65.6631C187.891 66.0789 187.989 66.5967 188.294 66.6164C190.311 66.7467 190.058 68.0123 189.903 69.3119C189.822 69.9955 190.508 70.1779 190.957 70.505C191.279 70.7401 191.511 71.0858 191.315 71.4623C191.124 71.8289 190.71 71.8565 190.312 71.7829C190.218 71.7655 190.122 71.7461 190.034 71.7112C189.032 71.3139 187.827 70.8253 187.161 71.9016C186.286 73.3142 188.008 73.5985 188.638 74.4101C189.597 75.647 190.452 76.9846 191.318 78.2851C191.933 79.2094 191.963 80.77 191.065 81.7165C190.144 82.6882 189.778 83.9733 188.787 84.8671C188.44 85.1799 187.902 85.6008 187.927 85.9404C188.104 88.369 185.724 89.7134 185.302 91.8665C185.044 93.1851 184.168 93.7171 182.797 93.6346C182.026 93.5882 181.246 93.5947 180.474 93.6384C178.245 93.7645 176.857 95.5059 177.321 97.5587C177.953 100.358 176.484 103.576 173.87 105.049C172.989 105.545 172.91 106.384 172.511 107.143C171.156 109.727 170.81 112.588 169.616 115.18C169.538 115.35 169.474 115.559 169.334 115.663C168.379 116.371 169.837 117.757 168.517 118.335C167.551 118.758 166.529 119.075 165.594 119.554C163.803 120.47 161.817 120.984 160.111 122.078C159.185 122.671 158.204 122.777 157.08 122.376C155.588 121.842 154.132 122.154 152.578 122.59C150.806 123.087 148.837 122.894 146.99 123.203C144.678 123.589 142.368 124.093 140.345 125.336C139.933 125.589 139.561 125.899 139.06 125.914C135.506 126.025 132.5 127.842 129.212 128.76C126.78 129.439 124.482 130.239 122.383 131.583C121.789 131.963 121.153 132.046 120.457 131.735C120.026 131.543 119.537 131.452 119.064 131.366C115.955 130.797 115.444 130.956 113.947 133.482C112.896 135.256 111.574 136.275 109.373 135.6C108.454 135.318 107.719 136.128 106.697 135.846C106.53 134.328 105.37 132.991 105.502 131.285C105.541 130.778 105.06 130.491 104.553 130.38C103.549 130.161 102.967 129.343 102.176 128.826C101.101 128.122 100.647 127.138 101.499 125.971C102.37 124.777 102.24 123.46 101.832 122.234C101.233 120.432 101.58 118.96 102.956 117.66C103.381 117.259 103.645 116.772 103.784 116.216C104.301 114.149 103.134 112.537 100.711 112.082C100.056 111.959 99.3559 111.979 98.6847 112.03C96.2592 112.216 96.3561 112.178 95.0243 109.972C94.2912 108.757 93.8154 107.506 93.3117 106.21C92.7393 104.738 92.6575 103.703 93.8635 102.456C94.8859 101.399 94.5921 99.8393 93.0791 98.8551C91.527 97.8454 91.3943 96.7278 91.9481 95.2945C92.2137 94.607 92.1534 94.0125 91.7001 93.4674C90.6843 92.2463 89.0934 91.5378 88.3749 90.0398C88.3148 89.9146 88.0107 89.7749 87.8868 89.8181C85.1476 90.7742 82.0816 89.7019 79.4162 91.0804C79.3317 91.1241 79.2205 91.1565 79.1738 91.2262C78.3567 92.4467 77.5277 92.7124 76.5586 91.3429C76.2731 90.9394 75.6799 90.7362 75.2703 91.0514C72.9822 92.8125 70.21 92.416 67.596 92.7657C66.8584 92.8644 66.0524 92.9535 65.4094 93.4392C65.0398 93.7184 64.7922 93.8838 64.1917 93.5666C62.2932 92.5639 62.2555 92.639 61.0111 94.4408C60.8561 94.6652 60.6325 94.8461 60.2618 95.2347C59.4478 93.9841 58.6007 92.9124 59.5698 91.4635C60.2912 90.385 59.7246 89.9203 58.6724 89.7754C55.6778 89.3633 52.6901 88.8963 49.6358 89.2C48.4859 89.3143 47.3463 89.1378 46.2544 88.616C44.3639 87.7124 42.0587 88.3867 40.1785 87.0739C39.4546 86.5684 38.2599 87.2517 37.565 87.8902C36.6851 88.6988 35.7212 89.1719 34.5406 89.3864C33.6954 89.54 33.0133 90.7754 32.0182 89.8039C31.5504 89.3473 31.4893 85.9712 31.8565 85.5521C32.162 85.2033 32.6572 84.9726 32.8668 84.5882C33.4584 83.5034 35.0338 83.0522 34.5436 81.1945C34.2338 80.0203 35.7031 78.8771 36.9351 78.3221C38.6203 77.5631 39.4071 76.4587 40.1712 74.7723C41.0788 72.7693 42.3847 70.9054 45.4533 70.3055C48.3502 69.7391 51.5746 70.5459 54.2286 68.6941C54.8977 68.2273 55.4647 68.848 55.8946 69.3951C56.5677 70.2514 57.2673 70.2921 58.0444 69.4751C58.4323 69.0674 58.9983 68.8065 59.3502 68.3781C61.2095 66.1139 63.5491 65.5469 66.5494 65.5534C68.6441 65.5579 70.7449 65.8583 72.8203 65.6987C75.0555 65.5268 77.0479 66.1006 78.8379 67.1824C79.8293 67.7816 80.667 67.7933 81.5113 67.3391C83.181 66.4409 85.0144 65.786 86.2983 64.2825C87.4088 62.9818 89.0257 62.233 90.4811 61.3835C91.4929 60.7929 91.61 60.3182 91.2733 59.4081C91.0485 58.8002 91.0092 58.1238 90.7483 57.5346C90.3286 56.5863 90.5145 55.7969 90.9845 54.8972C92.0549 52.8486 91.5836 51.8754 89.337 51.2284C88.8801 51.0968 88.375 51.1209 88.0529 50.7044C87.9956 50.6304 87.9558 50.5438 87.9077 50.4628C89.1006 48.3527 90.8372 46.6562 92.7443 45.1929C94 44.2294 94.188 43.3341 93.5227 42.0949C92.8556 40.8521 92.2487 39.606 92.1306 38.1723C92.0401 37.0738 90.9822 36.7002 90.1801 36.2659C88.9471 35.5983 88.9151 34.8835 89.565 33.7911C90.2138 32.7002 91.0159 31.6906 90.8471 30.2143C90.7237 29.1342 91.7013 28.3678 92.7933 28.0493C94.3623 27.5916 95.8113 26.8452 97.4498 26.5235C99.0931 26.2008 99.3402 25.6153 98.9022 24.1047C98.6956 23.3925 98.4773 22.6548 98.0937 22.0244C97.1934 20.5448 96.2621 19.1649 98.1986 17.7195C98.7085 17.3389 98.3351 16.6799 98.0499 16.1804C97.6747 15.5234 97.3717 14.8668 97.4718 14.0693C97.6054 13.0047 98.0775 12.5345 99.2006 12.9728C99.8269 13.2173 100.42 13.5906 101.069 13.7221C102.746 14.0623 103.964 13.0379 103.591 11.453C103.343 10.4037 103.661 9.49094 103.698 8.50975C104.58 8.33959 105.091 8.92488 105.292 9.46157C105.992 11.331 107.341 11.7222 109.17 11.3142C109.724 11.1905 110.367 10.9827 110.698 11.6296C111.001 12.2205 110.538 12.6762 110.195 13.1229C109.852 13.5696 109.435 13.9832 109.189 14.4751C108.862 15.1281 109.069 15.7765 109.638 16.2325C110.28 16.7466 110.913 16.5952 111.378 15.9681C111.933 15.2196 112.716 15.0224 113.604 14.8458C115.287 14.5109 116.969 14.1212 118.008 12.56C118.374 12.0112 119.167 11.9351 119.687 11.6094C123.502 9.22081 127.911 7.7741 131.273 4.63965C132.758 3.25554 134.53 2.1596 136.573 1.39162C139.367 0.34183 141.872 1.13374 144.458 1.80056C145.251 2.00486 145.359 2.51152 145.118 3.31054C144.106 6.65957 144.143 6.67203 147.382 7.94698C147.739 8.08709 148.154 8.12358 148.47 8.3162C150.315 9.43958 151.771 9.55211 153.622 7.88248C155.47 6.21506 158.049 7.13833 159.838 8.27944C162.559 10.0157 165.336 11.695 168.156 13.2299C170.827 14.6834 173.906 15.7441 177.109 14.7867C178.238 14.4492 178.903 14.7326 179.718 15.3198C181.433 16.5545 182.858 18.0768 184.396 19.4879C185.27 20.2898 185.214 21.3358 185.203 22.3523C185.188 23.7418 185.846 24.4256 187.307 24.3857C188.168 24.3623 189.012 24.5047 189.876 24.1625C192.579 23.0918 195.098 23.0866 197.775 24.6861C199.213 25.5453 201.276 25.4413 203.243 25.9039Z" fill="#01A451"/>
<path d="M71.5591 169.46C71.2011 168.648 71.3157 167.93 71.5071 167.199C71.9035 165.683 71.2205 164.474 69.6671 164.479C66.8334 164.488 64.0349 163.625 61.1589 164.357C59.4195 164.8 59.0858 164.292 59.6503 162.664C59.8934 161.963 60.1004 161.25 60.3226 160.542C60.4607 160.102 60.7272 159.572 60.2464 159.259C58.5525 158.155 58.3422 156.131 57.0442 154.724C54.7819 152.273 54.2912 149.178 54.7901 145.973C55.0625 144.224 53.1357 140.075 51.3896 139.493C49.6468 138.913 49.1561 137.152 47.7892 136.443C46.3992 135.721 44.9472 137.484 43.3338 136.896C42.2295 136.494 41.0167 136.752 39.9041 136.581C37.8358 136.263 35.3096 137.488 33.7867 135.098C30.6584 134.602 27.8954 132.47 24.7778 132.592C22.4352 132.684 20.3186 131.995 18.0769 131.928C17.7223 131.917 17.3344 131.745 17.0305 131.549C15.1919 130.364 13.3856 129.829 11.5638 131.585C11.3766 131.765 11.0419 131.83 10.7622 131.893C8.97384 132.296 7.25834 130.753 5.74589 131.26C3.93223 131.867 2.4834 131.764 0.570312 131.003C2.68198 129.547 4.39106 128.013 6.58901 127.119C8.06451 126.518 9.27714 125.458 9.9692 124.163C11.005 122.225 12.5287 120.711 13.9364 119.08C14.1817 118.796 14.3643 118.456 14.6361 118.2C15.4957 117.392 14.1525 116.049 15.2312 115.476C16.1304 114.998 16.8179 114.458 17.2732 113.61C17.6237 112.957 18.4582 112.408 18.2987 111.663C17.7826 109.249 19.3366 107.995 21.0396 106.799C21.7439 106.305 22.0688 105.667 21.9361 104.882C21.5929 102.85 22.2749 101.276 23.9678 100.008C24.5583 99.5665 24.9959 98.9018 25.4061 98.2798C26.1219 97.1948 27.0176 96.4998 28.4206 96.3863C29.805 96.2744 30.7485 95.4503 31.1629 94.2069C31.8592 92.1175 33.5566 91.1443 35.5107 90.4434C36.2331 90.1843 36.995 90.0547 37.5601 89.4757C38.6969 88.3109 39.8954 87.8421 41.1952 89.2826C41.2557 89.3496 41.3589 89.4273 41.4394 89.4245C44.5229 89.3193 47.4161 90.7118 50.5229 90.468C52.1302 90.3418 53.7124 90.0382 55.3406 90.7374C56.8871 91.4015 58.3678 91.8817 58.0559 93.9419C58.0076 94.2607 58.2848 94.6407 58.4551 94.9716C59.323 96.658 60.4565 96.852 61.8182 95.5358C62.1395 95.2251 62.1975 94.667 62.9746 94.573C63.4533 95.3455 62.9917 96.333 63.3561 97.1329C63.6784 97.8405 64.2087 98.4784 65.0941 98.3307C65.8819 98.1992 65.9627 97.4809 66.0427 96.802C66.3244 94.4111 66.3865 94.606 68.763 94.0993C71.7469 93.4629 74.704 93.7998 77.6737 93.6938C79.2465 93.6376 81.4472 94.028 82.3521 91.8897C82.5122 91.5114 83.0189 91.3067 83.3256 91.4707C84.5502 92.1251 85.6288 92.1785 87.0249 91.6781C87.712 91.4319 88.4624 92.8976 89.5243 93.2719C90.883 93.7508 90.4092 94.8186 90.0398 95.8537C89.5414 97.2503 89.59 98.5212 91.3207 99.3072C92.6521 99.9118 93.0918 100.809 91.9749 102.178C90.9027 103.492 91.0798 104.833 91.7775 106.54C92.5713 108.482 93.3815 110.474 94.0428 112.491C94.6093 114.218 95.6404 114.826 97.25 113.891C98.5355 113.144 99.4431 113.534 100.469 113.977C102.403 114.811 102.544 115.273 101.248 117.071C99.6175 119.332 99.7655 121.927 99.5663 124.464C99.5311 124.912 99.8421 125.445 99.683 125.816C98.5445 128.472 100.331 129.781 102.244 130.974C103.182 131.56 103.676 131.92 103.478 133.29C103.313 134.434 104.151 135.99 105.043 136.927C106.147 138.086 107.974 137.662 109.481 137.594C110.981 137.526 112.389 136.89 113.959 136.818C115.174 136.762 116.669 136.239 116.649 134.455C116.642 133.831 117.072 133.496 117.797 133.506C118.46 133.516 119.156 133.253 119.784 133.373C121.679 133.736 123.138 132.998 124.536 131.927C125.287 131.351 126.042 130.771 127.038 130.584C129.132 130.19 131.168 129.586 132.325 132.276C132.801 133.384 134.315 133.46 135.448 133.169C136.703 132.847 137.871 133.198 139.23 132.997C138.866 134.66 138.097 135.529 136.457 135.462C135.666 135.43 134.952 135.756 134.203 135.891C130.59 136.538 129.031 138.982 128.555 142.102C128.405 143.085 128.18 143.658 127.347 144.019C125.139 144.973 123.504 146.825 121.178 147.595C119.572 148.126 120.248 149.646 119.89 150.864C118.097 150.575 116.523 149.813 114.766 149.941C112.23 150.126 109.725 150.258 108.165 152.622C107.899 153.025 107.502 153.286 106.982 153.337C102.676 153.764 98.9001 155.836 96.0683 158.518C92.7045 161.704 88.8465 163.988 85.0613 166.501C82.9367 167.911 80.8506 169.388 79.8776 171.932C79.3664 173.268 77.7196 173.153 76.9687 171.849C76.7429 171.457 76.6454 170.985 76.548 170.539C76.3008 169.404 75.736 168.998 74.4772 169.366C73.6746 169.6 72.7611 169.485 71.5591 169.46Z" fill="#01A451"/>
<path d="M192.723 82.26C193.46 80.0495 193.921 78.0936 192.038 76.3889C191.142 75.5777 192.164 73.8084 190.361 73.4406C190.799 72.7653 191.419 73.1172 191.901 72.9984C192.974 72.7347 193.278 72.1693 192.949 71.1469C192.448 69.5939 191.146 68.2801 191.428 66.4856C191.449 66.3536 191.266 66.111 191.119 66.0491C190.133 65.6341 189.505 65.1856 190.067 63.9527C190.618 62.7444 191.609 62.3624 192.776 62.1594C193.133 62.0972 193.528 62.2286 193.905 62.2776C194.896 62.4066 195.739 62.3201 195.472 61.0381C195.336 60.3848 195.664 60.2502 196.207 60.1591C196.578 60.0968 197.05 60.0406 197.276 59.8045C199.24 57.7504 201.397 58.6689 203.311 59.6397C205.948 60.9766 208.399 62.6507 210.941 64.1624C211.654 64.5867 211.66 65.0966 211.451 65.8177C210.479 69.1844 210.669 72.5599 211.181 75.9996C211.557 78.5295 211.964 81.1819 210.485 83.6194C210.095 84.2617 209.762 84.8798 209.027 85.2811C205.867 87.0055 204.233 89.7036 203.782 93.116C201.807 94.9985 202.086 98.2021 200.097 99.7767C198.578 100.979 197.915 103.179 195.476 103.512C194.633 103.627 194.256 105.074 193.917 106.045C192.369 110.473 191.478 110.091 186.644 109.601C185.544 109.49 184.539 108.996 183.321 108.991C181.252 108.981 180.703 108.25 180.528 106.263C180.413 104.966 180.479 103.621 178.87 103.025C178.471 102.877 178.279 102.533 178.546 102.138C179.519 100.699 178.877 99.0989 178.998 97.586C179.164 95.4825 179.645 94.8493 181.87 94.7676C182.063 94.7605 182.263 94.7364 182.449 94.7701C184.935 95.2181 186.29 94.1108 186.827 91.8596C186.982 91.2069 187.303 90.681 187.909 90.281C188.289 90.0299 188.831 89.5968 188.816 89.265C188.683 86.2334 191.39 84.7306 192.723 82.26Z" fill="#01A451"/>
<path d="M159.251 123.956C162.755 121.942 166.317 120.541 169.91 119.207C171.045 118.786 172.298 118.451 171.019 116.936C170.761 116.632 170.802 116.256 171.007 115.898C172.562 113.169 172.615 109.886 174.521 107.269C175.362 106.115 176.788 105.622 177.61 104.451C177.791 104.193 178.465 104.663 178.645 105.147C178.944 105.955 178.87 106.798 178.839 107.63C178.804 108.578 179.18 109.291 180.13 109.574C183.037 110.44 185.831 111.762 189.052 111.278C190.764 111.021 191.353 111.913 190.436 113.379C189.767 114.447 189.701 115.38 190.091 116.528C190.414 117.48 190.417 118.529 190.628 119.522C191.221 122.307 191.227 122.346 188.737 123.719C187.731 124.274 186.687 124.747 185.511 124.907C181.324 125.477 178.425 128.079 175.61 130.776C174.723 131.626 174.651 132.721 174.892 133.894C175.389 136.313 174.73 137.07 172.169 137.102C169.077 137.141 165.984 137.162 162.891 137.162C161.931 137.162 161.043 137.659 160.033 137.394C158.938 137.108 158.157 136.798 158.941 135.531C159.184 135.138 159.375 134.692 159.479 134.246C159.733 133.157 159.281 132.689 158.105 132.73C156.782 132.776 155.709 133.523 154.702 134.143C153.343 134.979 154.765 136.129 154.82 137.342C153.76 137.889 152.428 137.593 151.335 138.196C150.547 138.63 149.541 138.291 148.886 137.744C146.487 135.741 144.059 136.558 141.604 137.534C141.253 137.673 140.947 137.933 140.588 138.029C140.06 138.172 139.664 137.863 139.348 137.492C139.013 137.1 138.906 136.68 139.311 136.256C139.442 136.12 139.595 135.998 139.701 135.846C140.43 134.793 141.747 133.711 140.702 132.406C139.724 131.184 138.072 130.944 136.512 131.307C135.432 131.558 134.437 131.705 133.457 131.107C132.35 130.432 132.325 129.797 133.377 129.039C134.737 128.058 136.367 127.842 137.974 127.579C138.538 127.487 139.241 127.641 139.664 127.371C143.784 124.741 148.74 125.108 153.228 123.819C154.267 123.521 155.399 123.424 156.26 124.186C157.302 125.106 158.165 124.781 159.251 123.956Z" fill="#01A451"/>
</svg>
