<svg width="211" height="172" viewBox="0 0 211 172" fill="none" xmlns="http://www.w3.org/2000/svg">
<path d="M202.672 25.022C203.889 25.8093 204.923 26.4595 205.949 27.1211C207.589 28.1787 207.906 29.5665 206.743 31.0375C206.045 31.9199 205.297 32.8146 204.398 33.4917C202.537 34.8933 201.064 36.4835 200.532 38.7691C200.434 39.1891 200.171 39.6466 199.626 39.7756C198.028 40.1538 197.751 41.5079 197.283 42.7109C196.568 44.553 197.008 46.5864 196.267 48.4351C196.085 48.8884 196.315 49.3539 196.755 49.6476C198.747 50.9778 199.613 53.4046 201.878 54.483C202.191 54.6319 202.429 55.0021 202.606 55.3189C202.929 55.8937 202.92 56.4528 202.063 56.4867C201.2 56.5209 200.312 56.5111 199.47 56.3501C198.779 56.2179 198.093 56.0625 197.509 56.4378C196.193 57.2835 194.887 57.6754 193.289 57.1311C192.617 56.9025 191.839 57.4322 191.791 58.1288C191.697 59.4794 190.762 59.9154 189.743 60.5357C188.196 61.4776 187.565 63.0487 187.368 64.7813C187.321 65.1971 187.419 65.7149 187.724 65.7346C189.741 65.8649 189.487 67.1304 189.333 68.4301C189.251 69.1137 189.937 69.2961 190.386 69.6232C190.709 69.8582 190.94 70.204 190.744 70.5804C190.553 70.9471 190.14 70.9746 189.742 70.9011C189.648 70.8837 189.552 70.8643 189.464 70.8294C188.461 70.4321 187.257 69.9435 186.59 71.0198C185.716 72.4324 187.438 72.7167 188.067 73.5283C189.027 74.7652 189.882 76.1028 190.748 77.4032C191.363 78.3276 191.393 79.8882 190.495 80.8347C189.574 81.8064 189.207 83.0915 188.217 83.9852C187.87 84.2981 187.331 84.719 187.356 85.0586C187.533 87.4871 185.154 88.8316 184.732 90.9847C184.474 92.3032 183.597 92.8353 182.227 92.7527C181.455 92.7064 180.676 92.7129 179.904 92.7565C177.674 92.8826 176.287 94.6241 176.75 96.6769C177.383 99.4759 175.914 102.694 173.299 104.167C172.419 104.663 172.34 105.502 171.941 106.261C170.585 108.845 170.24 111.706 169.046 114.298C168.968 114.468 168.904 114.677 168.763 114.781C167.808 115.489 169.266 116.875 167.947 117.453C166.98 117.876 165.958 118.194 165.024 118.672C163.233 119.588 161.247 120.102 159.54 121.196C158.615 121.789 157.633 121.896 156.51 121.494C155.018 120.961 153.562 121.272 152.008 121.708C150.236 122.205 148.267 122.012 146.42 122.321C144.108 122.707 141.798 123.212 139.775 124.454C139.363 124.707 138.991 125.017 138.49 125.033C134.936 125.143 131.929 126.96 128.641 127.878C126.21 128.557 123.912 129.357 121.812 130.701C121.219 131.081 120.583 131.165 119.887 130.854C119.456 130.661 118.966 130.57 118.493 130.484C115.384 129.915 114.874 130.074 113.377 132.6C112.325 134.374 111.004 135.393 108.803 134.718C107.884 134.436 107.149 135.246 106.127 134.964C105.959 133.446 104.8 132.109 104.932 130.403C104.971 129.896 104.49 129.609 103.983 129.498C102.979 129.279 102.396 128.461 101.606 127.944C100.53 127.24 100.077 126.256 100.929 125.089C101.8 123.896 101.67 122.578 101.262 121.353C100.662 119.55 101.01 118.078 102.386 116.778C102.81 116.377 103.074 115.89 103.213 115.335C103.73 113.267 102.564 111.655 100.141 111.2C99.4858 111.077 98.7856 111.097 98.1144 111.149C95.6889 111.334 95.7858 111.296 94.454 109.09C93.7208 107.876 93.2451 106.624 92.7414 105.329C92.169 103.856 92.0871 102.821 93.2932 101.574C94.3156 100.518 94.0218 98.9575 92.5088 97.9733C90.9566 96.9636 90.824 95.846 91.3778 94.4127C91.6434 93.7252 91.5831 93.1306 91.1298 92.5856C90.114 91.3645 88.5231 90.6559 87.8046 89.158C87.7445 89.0327 87.4404 88.893 87.3165 88.9363C84.5773 89.8924 81.5113 88.82 78.8459 90.1986C78.7613 90.2423 78.6502 90.2746 78.6035 90.3444C77.7864 91.5649 76.9574 91.8306 75.9883 90.461C75.7028 90.0576 75.1096 89.8544 74.7 90.1696C72.4119 91.9306 69.6397 91.5342 67.0257 91.8839C66.2881 91.9826 65.4821 92.0716 64.839 92.5574C64.4695 92.8365 64.2219 93.002 63.6214 92.6848C61.7229 91.6821 61.6852 91.7572 60.4407 93.559C60.2857 93.7834 60.0622 93.9642 59.6915 94.3529C58.8774 93.1023 58.0303 92.0306 58.9995 90.5817C59.7209 89.5032 59.1543 89.0384 58.1021 88.8936C55.1075 88.4815 52.1198 88.0145 49.0655 88.3181C47.9155 88.4325 46.776 88.256 45.6841 87.7342C43.7935 86.8306 41.4884 87.5048 39.6081 86.192C38.8843 85.6866 37.6896 86.3699 36.9947 87.0084C36.1148 87.817 35.1509 88.2901 33.9703 88.5046C33.125 88.6581 32.443 89.8936 31.4478 88.9221C30.98 88.4654 30.919 85.0894 31.2862 84.6702C31.5916 84.3215 32.0869 84.0907 32.2965 83.7064C32.8881 82.6216 34.4635 82.1703 33.9733 80.3126C33.6635 79.1384 35.1327 77.9952 36.3648 77.4403C38.05 76.6813 38.8368 75.5768 39.6009 73.8905C40.5085 71.8875 41.8144 70.0235 44.883 69.4236C47.7799 68.8572 51.0043 69.664 53.6583 67.8123C54.3274 67.3455 54.8944 67.9662 55.3243 68.5132C55.9974 69.3695 56.6969 69.4102 57.4741 68.5933C57.8619 68.1855 58.428 67.9246 58.7799 67.4962C60.6392 65.2321 62.9788 64.6651 65.979 64.6715C68.0738 64.676 70.1746 64.9765 72.2499 64.8169C74.4852 64.645 76.4776 65.2188 78.2676 66.3006C79.259 66.8998 80.0967 66.9115 80.941 66.4573C82.6107 65.5591 84.4441 64.9042 85.728 63.4006C86.8385 62.1 88.4554 61.3511 89.9108 60.5017C90.9226 59.9111 91.0397 59.4364 90.703 58.5262C90.4781 57.9183 90.4388 57.242 90.178 56.6527C89.7583 55.7045 89.9442 54.915 90.4142 54.0154C91.4846 51.9668 91.0132 50.9936 88.7666 50.3465C88.3098 50.2149 87.8047 50.2391 87.4826 49.8226C87.4253 49.7485 87.3855 49.662 87.3374 49.581C88.5303 47.4708 90.2669 45.7743 92.174 44.3111C93.4297 43.3476 93.6176 42.4522 92.9524 41.2131C92.2853 39.9703 91.6784 38.7242 91.5603 37.2904C91.4698 36.192 90.4119 35.8183 89.6098 35.384C88.3768 34.7165 88.3448 34.0016 88.9947 32.9092C89.6435 31.8184 90.4456 30.8088 90.2768 29.3324C90.1534 28.2524 91.131 27.4859 92.223 27.1674C93.792 26.7097 95.241 25.9634 96.8795 25.6416C98.5228 25.319 98.7699 24.7334 98.3318 23.2228C98.1253 22.5106 97.907 21.773 97.5234 21.1425C96.6231 19.663 95.6918 18.283 97.6283 16.8377C98.1382 16.4571 97.7647 15.7981 97.4796 15.2986C97.1044 14.6416 96.8014 13.985 96.9015 13.1875C97.0351 12.1229 97.5072 11.6527 98.6302 12.0909C99.2566 12.3354 99.8499 12.7087 100.498 12.8402C102.176 13.1804 103.394 12.1561 103.02 10.5712C102.773 9.52189 103.091 8.60911 103.128 7.62791C104.01 7.45775 104.521 8.04305 104.722 8.57973C105.422 10.4492 106.771 10.8404 108.599 10.4323C109.153 10.3087 109.796 10.1008 110.128 10.7478C110.431 11.3386 109.968 11.7944 109.625 12.2411C109.281 12.6877 108.865 13.1014 108.619 13.5933C108.292 14.2463 108.499 14.8947 109.068 15.3506C109.71 15.8648 110.343 15.7134 110.808 15.0863C111.363 14.3377 112.146 14.1406 113.034 13.964C114.717 13.6291 116.399 13.2394 117.438 11.6782C117.804 11.1294 118.597 11.0533 119.117 10.7276C122.932 8.33898 127.341 6.89227 130.703 3.75782C132.188 2.3737 133.96 1.27776 136.003 0.50978C138.796 -0.540006 141.301 0.251903 143.888 0.91872C144.681 1.12302 144.789 1.62969 144.547 2.42871C143.536 5.77774 143.573 5.7902 146.812 7.06515C147.168 7.20525 147.583 7.24174 147.9 7.43437C149.744 8.55774 151.201 8.67027 153.052 7.00064C154.9 5.33323 157.479 6.25649 159.268 7.3976C161.989 9.13385 164.766 10.8132 167.586 12.348C170.256 13.8015 173.335 14.8622 176.539 13.9048C177.668 13.5674 178.332 13.8507 179.148 14.438C180.863 15.6727 182.288 17.195 183.826 18.606C184.7 19.408 184.644 20.454 184.633 21.4705C184.618 22.86 185.276 23.5438 186.737 23.5039C187.597 23.4804 188.442 23.6229 189.306 23.2807C192.009 22.2099 194.528 22.2048 197.205 23.8042C198.643 24.6635 200.706 24.5595 202.672 25.022Z" fill="#FBC80D"/>
<path d="M70.9888 168.578C70.6308 167.766 70.7453 167.048 70.9368 166.317C71.3332 164.801 70.6502 163.592 69.0968 163.597C66.2631 163.606 63.4646 162.743 60.5886 163.476C58.8492 163.918 58.5155 163.411 59.08 161.782C59.3231 161.081 59.5301 160.368 59.7523 159.661C59.8904 159.221 60.1569 158.69 59.6761 158.377C57.9822 157.273 57.7719 155.249 56.4739 153.842C54.2116 151.391 53.7209 148.296 54.2198 145.091C54.4922 143.342 52.5653 139.193 50.8192 138.612C49.0765 138.031 48.5858 136.27 47.2188 135.561C45.8289 134.839 44.3769 136.602 42.7635 136.014C41.6592 135.612 40.4464 135.87 39.3338 135.699C37.2655 135.381 34.7393 136.606 33.2163 134.217C30.0881 133.721 27.3251 131.588 24.2075 131.71C21.8649 131.802 19.7483 131.113 17.5066 131.046C17.152 131.035 16.7641 130.863 16.4602 130.667C14.6216 129.483 12.8153 128.947 10.9935 130.703C10.8063 130.883 10.4716 130.948 10.1919 131.011C8.40353 131.415 6.68803 129.871 5.17558 130.378C3.36192 130.985 1.91309 130.882 0 130.121C2.11167 128.666 3.82075 127.131 6.0187 126.237C7.4942 125.636 8.70683 124.576 9.39888 123.281C10.4347 121.343 11.9584 119.829 13.3661 118.198C13.6113 117.914 13.794 117.574 14.0658 117.318C14.9253 116.511 13.5822 115.167 14.6609 114.594C15.5601 114.116 16.2476 113.576 16.7029 112.728C17.0534 112.075 17.8879 111.526 17.7284 110.781C17.2123 108.367 18.7663 107.113 20.4693 105.918C21.1736 105.423 21.4985 104.785 21.3658 104C21.0226 101.968 21.7045 100.394 23.3975 99.1266C23.988 98.6846 24.4255 98.02 24.8358 97.398C25.5515 96.3129 26.4473 95.618 27.8503 95.5045C29.2347 95.3926 30.1782 94.5685 30.5926 93.325C31.2889 91.2356 32.9863 90.2625 34.9403 89.5616C35.6628 89.3025 36.4247 89.1729 36.9898 88.5939C38.1266 87.4291 39.325 86.9603 40.6249 88.4008C40.6854 88.4677 40.7886 88.5454 40.8691 88.5427C43.9526 88.4375 46.8458 89.83 49.9525 89.5861C51.5599 89.46 53.1421 89.1564 54.7702 89.8556C56.3168 90.5197 57.7975 90.9999 57.4856 93.0601C57.4373 93.3789 57.7145 93.7588 57.8848 94.0898C58.7527 95.7762 59.8862 95.9702 61.2478 94.6539C61.5692 94.3433 61.6271 93.7852 62.4043 93.6912C62.883 94.4637 62.4214 95.4511 62.7858 96.2511C63.1081 96.9587 63.6384 97.5965 64.5238 97.4488C65.3116 97.3174 65.3924 96.5991 65.4724 95.9201C65.7541 93.5293 65.8162 93.7242 68.1927 93.2174C71.1766 92.5811 74.1337 92.918 77.1034 92.812C78.6761 92.7558 80.8769 93.1462 81.7818 91.0079C81.9419 90.6296 82.4486 90.4249 82.7553 90.5888C83.9799 91.2432 85.0585 91.2967 86.4546 90.7963C87.1417 90.5501 87.8921 92.0158 88.954 92.39C90.3127 92.869 89.8389 93.9367 89.4695 94.9719C88.9711 96.3684 89.0197 97.6393 90.7504 98.4253C92.0818 99.0299 92.5215 99.9275 91.4046 101.296C90.3324 102.61 90.5095 103.952 91.2072 105.658C92.001 107.6 92.8112 109.592 93.4725 111.609C94.039 113.337 95.07 113.944 96.6796 113.009C97.9651 112.262 98.8727 112.653 99.8986 113.095C101.833 113.929 101.974 114.391 100.677 116.189C99.0471 118.45 99.1952 121.046 98.996 123.582C98.9608 124.03 99.2718 124.563 99.1127 124.934C97.9742 127.591 99.7605 128.899 101.673 130.093C102.612 130.678 103.106 131.039 102.908 132.408C102.743 133.553 103.581 135.108 104.473 136.045C105.577 137.204 107.403 136.78 108.911 136.712C110.41 136.644 111.818 136.009 113.389 135.936C114.604 135.88 116.099 135.357 116.079 133.574C116.072 132.949 116.502 132.614 117.227 132.625C117.89 132.634 118.586 132.372 119.213 132.492C121.109 132.854 122.568 132.116 123.966 131.045C124.717 130.469 125.472 129.889 126.468 129.702C128.562 129.308 130.598 128.704 131.755 131.395C132.23 132.502 133.745 132.578 134.878 132.287C136.133 131.966 137.301 132.316 138.66 132.115C138.295 133.778 137.527 134.647 135.886 134.58C135.095 134.548 134.382 134.874 133.633 135.009C130.02 135.656 128.461 138.1 127.985 141.22C127.835 142.203 127.61 142.777 126.777 143.137C124.569 144.092 122.933 145.943 120.607 146.713C119.002 147.244 119.678 148.764 119.32 149.982C117.527 149.694 115.953 148.932 114.195 149.059C111.66 149.244 109.155 149.377 107.595 151.74C107.329 152.143 106.932 152.404 106.412 152.456C102.106 152.882 98.3298 154.954 95.498 157.636C92.1342 160.822 88.2762 163.106 84.491 165.619C82.3664 167.03 80.2803 168.507 79.3072 171.05C78.7961 172.386 77.1493 172.271 76.3984 170.967C76.1726 170.575 76.0751 170.104 75.9777 169.657C75.7305 168.522 75.1656 168.116 73.9068 168.484C73.1043 168.719 72.1908 168.603 70.9888 168.578Z" fill="#FBC80D"/>
<path d="M192.153 81.3782C192.89 79.1677 193.35 77.2117 191.468 75.507C190.572 74.6958 191.593 72.9266 189.791 72.5588C190.229 71.8835 190.848 72.2353 191.331 72.1166C192.404 71.8528 192.708 71.2874 192.378 70.2651C191.878 68.7121 190.576 67.3983 190.858 65.6038C190.879 65.4718 190.696 65.2292 190.548 65.1672C189.563 64.7522 188.935 64.3038 189.497 63.0708C190.048 61.8625 191.039 61.4805 192.205 61.2775C192.563 61.2153 192.958 61.3468 193.334 61.3958C194.326 61.5248 195.168 61.4382 194.902 60.1562C194.766 59.503 195.094 59.3683 195.637 59.2773C196.008 59.215 196.479 59.1587 196.705 58.9226C198.669 56.8686 200.826 57.7871 202.741 58.7578C205.378 60.0948 207.828 61.7689 210.37 63.2806C211.084 63.7049 211.089 64.2148 210.881 64.9359C209.909 68.3026 210.099 71.678 210.611 75.1178C210.987 77.6476 211.394 80.3001 209.914 82.7375C209.525 83.3799 209.192 83.998 208.457 84.3992C205.297 86.1237 203.662 88.8218 203.212 92.2341C201.237 94.1167 201.516 97.3202 199.526 98.8949C198.008 100.097 197.345 102.297 194.905 102.63C194.063 102.745 193.686 104.192 193.346 105.163C191.798 109.591 190.908 109.209 186.073 108.719C184.974 108.608 183.969 108.114 182.751 108.109C180.682 108.099 180.133 107.368 179.958 105.381C179.843 104.085 179.909 102.739 178.3 102.143C177.9 101.995 177.709 101.651 177.976 101.256C178.949 99.8167 178.307 98.217 178.427 96.7042C178.594 94.6007 179.075 93.9675 181.3 93.8858C181.493 93.8787 181.692 93.8546 181.879 93.8883C184.365 94.3363 185.72 93.229 186.256 90.9777C186.412 90.3251 186.733 89.7992 187.339 89.3992C187.719 89.1481 188.261 88.715 188.246 88.3832C188.113 85.3515 190.82 83.8488 192.153 81.3782Z" fill="#FBC80D"/>
<path d="M158.681 123.074C162.185 121.06 165.746 119.659 169.34 118.326C170.475 117.904 171.728 117.569 170.449 116.054C170.191 115.75 170.232 115.374 170.436 115.016C171.992 112.287 172.045 109.005 173.951 106.387C174.792 105.233 176.218 104.741 177.04 103.569C177.221 103.311 177.895 103.781 178.074 104.265C178.374 105.073 178.3 105.916 178.269 106.748C178.234 107.696 178.61 108.409 179.56 108.692C182.467 109.558 185.261 110.88 188.482 110.396C190.194 110.139 190.783 111.031 189.866 112.497C189.197 113.565 189.131 114.498 189.521 115.646C189.844 116.598 189.847 117.647 190.058 118.64C190.651 121.425 190.657 121.464 188.167 122.837C187.161 123.392 186.117 123.865 184.941 124.025C180.754 124.595 177.855 127.197 175.04 129.894C174.153 130.744 174.081 131.839 174.322 133.012C174.819 135.431 174.16 136.188 171.599 136.22C168.507 136.259 165.414 136.28 162.321 136.28C161.361 136.28 160.473 136.777 159.463 136.513C158.368 136.226 157.587 135.917 158.371 134.649C158.614 134.256 158.805 133.81 158.909 133.365C159.163 132.275 158.711 131.808 157.534 131.848C156.212 131.894 155.139 132.641 154.132 133.261C152.772 134.097 154.195 135.247 154.25 136.46C153.19 137.007 151.858 136.711 150.765 137.314C149.977 137.748 148.971 137.409 148.316 136.862C145.917 134.859 143.489 135.676 141.034 136.652C140.683 136.791 140.377 137.051 140.018 137.147C139.49 137.29 139.094 136.981 138.778 136.611C138.443 136.218 138.336 135.798 138.741 135.374C138.872 135.238 139.025 135.116 139.131 134.964C139.86 133.911 141.176 132.829 140.132 131.524C139.154 130.302 137.502 130.062 135.942 130.425C134.862 130.676 133.866 130.823 132.887 130.225C131.78 129.55 131.755 128.915 132.807 128.157C134.167 127.176 135.796 126.96 137.404 126.698C137.968 126.606 138.671 126.759 139.094 126.489C143.214 123.859 148.17 124.226 152.658 122.937C153.697 122.639 154.829 122.543 155.69 123.304C156.732 124.224 157.595 123.899 158.681 123.074Z" fill="#FBC80D"/>
</svg>
