<svg width="166" height="183" viewBox="0 0 166 183" fill="none" xmlns="http://www.w3.org/2000/svg">
<path d="M133.349 112.566C133.587 112.476 133.59 112.379 133.607 112.284C133.714 111.667 133.179 110.835 134.12 110.498C135.032 110.171 135.365 111.023 135.908 111.433C136.599 111.954 136.668 112.508 136.165 113.188C135.161 114.549 134.107 115.89 133.236 117.32C131.593 120.021 129.994 122.768 128.983 125.713C126.74 132.248 122.029 137.465 117.119 142.302C112.945 146.413 108.055 150.018 102.387 152.771C95.9858 155.881 91.0249 160.374 89.2776 167.271C88.2806 171.206 86.064 174.759 82.1546 177.24C79.7183 178.785 77.5685 180.693 75.1643 182.284C73.3205 183.504 71.9621 182.796 71.9002 180.703C71.8491 178.972 71.9116 177.239 71.8982 175.506C71.8884 174.227 72.3942 173.064 73.7717 172.773C76.6384 172.169 77.0578 169.316 79.3182 168.186C79.7998 167.946 79.6134 167.291 79.2463 166.894C78.4178 165.996 77.4872 165.008 76.2316 164.833C74.0558 164.531 72.681 163.13 71.047 162.132C69.4827 161.176 69.2789 159.35 68.7319 157.841C68.3695 156.841 67.8989 156.272 66.8723 155.73C64.8827 154.68 63.1057 153.473 60.8192 152.722C58.4977 151.96 56.1376 150.579 54.9315 148.155C54.1325 146.549 52.5733 145.402 50.3548 145.498C48.9879 145.557 47.7383 145.189 46.8826 144.288C45.8414 143.193 44.9317 142.574 43.1169 142.974C41.7406 143.278 40.8895 141.904 40.3367 140.911C39.2891 139.03 37.5518 137.801 35.8771 136.462C34.6801 135.505 33.8423 135.524 32.6159 136.546C31.2767 137.662 30.0328 139.022 27.7099 139.677C29.3666 135.668 26.1389 133.847 23.8675 131.741C21.5155 129.561 18.5423 127.976 16.5161 125.433C15.3371 123.953 9.66635 122.938 7.88535 123.618C7.35933 123.819 7.0308 124.194 6.77927 124.618C5.3571 127.014 3.05958 126.203 0.570312 126.186C1.25024 124.886 2.17742 124.234 2.97114 123.498C3.34006 123.156 4.11649 122.883 4.12806 122.561C4.21342 120.185 6.61456 119.951 8.01576 118.735C11.1711 115.996 15.1224 113.772 16.7136 109.782C16.9903 109.088 17.48 108.517 18.2248 108.409C20.067 108.14 20.9232 106.956 21.5469 105.629C22.4041 103.805 24.1843 102.699 25.693 101.507C27.1953 100.32 28.2463 98.8059 29.7572 97.625C30.657 96.9217 30.8289 96.423 32.1727 96.9681C33.4437 97.4838 33.8908 95.8859 33.7019 95.3816C32.976 93.4437 34.3496 93.12 35.7829 92.5586C36.7401 92.1838 37.7688 91.6479 38.3759 90.9207C39.7327 89.2956 41.3943 88.3533 43.6136 88.0095C45.4099 87.7313 46.4679 86.465 47.3022 85.1437C47.8039 84.3492 48.3057 83.6083 49.3174 83.4349C50.8057 83.1796 52.0707 82.2146 53.4648 82.0695C57.3814 81.6619 60.1431 79.5026 63.0125 77.4728C63.9447 76.8134 64.8879 76.6383 65.9941 76.7631C68.3394 77.0276 70.7153 77.7918 72.9734 76.4526C74.9809 77.832 77.2885 76.1614 79.262 76.8963C81.1111 77.5848 83.4115 76.7225 84.9334 78.3363C84.9878 78.3939 85.1493 78.4174 85.2395 78.393C88.4017 77.5379 91.2652 79.2724 94.3159 79.2339C95.8714 79.2143 96.9453 79.6752 97.7803 80.843C98.5853 81.9688 99.8423 82.5195 101.319 82.5049C103.829 82.4801 105.831 83.391 107.961 84.5793C111.404 86.5004 114.495 88.4903 116.897 91.5816C118.224 93.2911 120.117 94.8495 121.852 96.3865C123.468 97.8195 125.828 97.4678 127.82 97.9594C129.47 98.3666 131.323 98.6083 133.17 98.1477C134.274 97.8723 135.511 98.0585 136.457 98.9639C136.321 99.209 136.257 99.5517 136.035 99.6919C133.758 101.13 132.3 102.823 133.393 105.521C133.62 106.082 133.141 106.646 132.713 107.071C132.362 107.42 131.826 107.619 131.47 107.966C130.644 108.772 128.949 109.342 129.489 110.629C130.02 111.898 131.436 112.631 133.349 112.566Z" fill="#7A00DA" fill-opacity="0.86"/>
<path d="M139.308 17.1386C139.241 18.6926 140.043 19.8352 139.629 21.3093C139.216 22.7809 141.17 23.8779 141.853 25.2637C142.27 26.1122 143.081 26.8134 143.761 27.5466C145.346 29.256 146.133 30.8593 144.821 33.2187C143.689 35.2539 145.077 36.5656 147.697 36.1596C151.213 35.6145 154.605 36.1912 158.317 36.5461C157.613 37.795 157.474 39.0083 157.445 40.2225C157.396 42.2215 158.679 42.8946 160.617 41.944C160.932 41.7892 161.431 41.1172 161.544 41.577C161.935 43.1738 163.82 41.5842 164.287 42.7501C164.323 42.8403 164.337 42.9411 164.389 43.0222C166.189 45.8099 166.056 45.6799 163.13 48.0984C161.379 49.5465 159.721 51.2457 158.823 53.3014C157.89 55.4359 156.242 56.1732 153.812 55.9946C152.433 55.8932 151.03 55.9179 149.649 56.0165C147.827 56.1467 146.173 56.5967 144.707 57.7618C142.811 59.2682 140.499 59.8988 138.374 58.2015C135.609 55.993 132.417 56.3862 129.263 56.7187C127.982 56.8538 126.819 57.0633 125.536 56.6857C123.68 56.1398 122.088 56.6928 121.186 58.2354C120.225 59.8789 118.754 60.1864 116.91 60.0791C115.551 60.0001 114.28 60.0224 112.941 60.7426C109.936 62.3592 109.859 62.2425 110.265 65.5673C110.394 66.6232 109.526 67.3812 108.537 66.8111C106.065 65.3864 103.411 65.8202 100.786 65.8126C99.6725 65.8095 98.6233 65.5841 97.7523 65.026C95.4801 63.5701 92.8677 63.2505 90.2111 63.0174C89.6794 62.9707 89.1035 63.0279 88.6232 62.8618C85.5655 61.8042 82.5049 61.496 79.2541 62.2099C78.2044 62.4404 76.9715 61.8613 76.1988 60.9422C75.3298 59.9086 74.2627 60.0152 73.0473 60.4103C70.83 61.1313 68.8196 60.3829 68.1895 58.293C67.7194 56.7336 66.8172 55.3241 66.641 53.6375C66.3911 51.2447 63.2247 48.3616 60.7498 48.3702C59.1363 48.3758 57.4716 49.0849 55.9328 49.6903C54.8093 50.1323 53.8249 50.2743 53.0556 49.4083C52.2755 48.5301 52.7113 47.6611 53.3997 46.7992C54.7495 45.1093 56.1056 43.4398 55.3381 41.0745C55.1042 40.3536 55.4993 39.3022 55.9662 38.5936C57.5999 36.1137 57.3683 33.2287 58.3068 30.6081C58.5809 29.8431 58.4193 29.0938 58.0456 28.3711C57.3495 27.0247 57.6387 26.0021 59.167 25.2474C60.7468 24.4674 61.6819 23.3499 61.7697 21.5704C61.849 19.9616 62.8663 18.4791 63.0286 16.8312C63.1166 15.9367 63.9869 15.549 64.787 15.3251C68.1751 14.377 69.043 11.6777 69.7661 9.14512C70.2167 7.56705 71.0613 6.65165 72.4271 5.807C74.978 4.22957 78.1682 3.70617 80.5078 1.79109C80.7214 1.61625 81.1333 1.42578 81.3503 1.49667C85.2015 2.75546 89.3493 1.58538 93.2067 2.68196C94.3605 3.00996 95.5186 2.99159 95.9275 1.91764C96.5161 0.371822 97.6623 0.890755 98.4223 1.3502C100.453 2.57801 102.859 2.57974 105.042 3.26929C105.242 3.33258 105.499 3.45614 105.656 3.39608C109.873 1.783 113.08 5.15103 116.949 5.23858C117.377 5.24826 117.813 5.44211 117.965 5.83717C118.656 7.63858 119.946 7.87703 121.743 7.13436C122.695 6.74113 123.607 7.35176 124.533 7.4209C126.444 7.56371 128.392 7.66604 130.291 7.49113C132.106 7.32399 133.664 7.18843 134.48 9.05961C134.672 9.49892 135.293 9.65067 135.827 9.75205C138.402 10.2408 139.136 11.9246 139.235 14.0074C139.28 14.9661 139.286 15.9264 139.308 17.1386Z" fill="#7A00DA" fill-opacity="0.86"/>
<path d="M76.5077 63.4453C77.4039 63.8078 78.062 64.3765 78.8099 64.1518C82.2487 63.1184 85.517 64.226 88.8275 64.7216C90.6076 64.9881 92.3248 65.5775 94.1626 65.5686C94.3706 65.5676 94.6443 65.5803 94.7778 65.6924C97.4039 67.8989 100.555 67.718 103.772 67.3643C104.755 67.2561 105.89 67.4161 106.34 68.2432C107.522 70.4177 108.829 68.9437 110.213 68.5585C111.961 68.0719 112.14 67.0275 111.974 65.6407C111.639 62.8288 112.821 61.8659 115.918 62.355C118.18 62.7122 119.975 62.3361 121.389 60.4397C122.958 58.3364 123.544 58.3607 125.97 59.78C126.431 60.05 127.234 60.4544 127.377 60.1755C128.332 58.3147 130.356 59.3579 131.784 58.7925C133.276 58.2016 134.91 58.503 136.218 59.6421C140.071 62.9988 142.73 61.9031 146.537 59.3339C149.43 57.3812 152.805 57.4785 156.16 57.6356C156.776 57.6643 158.311 61.1343 158.115 61.8822C157.993 62.3473 157.851 62.8374 157.575 63.2359C155.232 66.6161 155.936 70.1431 156.662 73.7701C157.155 76.2322 157.712 78.7687 156.523 81.3021C156.142 82.1152 156.2 83.2794 156.523 84.1422C157.69 87.2681 156.586 90.2202 155.884 93.1945C155.509 94.7833 154.797 96.3053 154.313 97.8766C153.993 98.9181 153.171 99.4445 152.19 99.8899C149.021 101.329 146.29 103.34 143.523 105.301C141.821 106.507 140.691 108.174 139.283 109.615C138.322 110.599 137.466 110.692 136.235 110.056C135.124 109.482 134.219 108.994 134.96 107.656C135.138 107.335 135.223 106.838 135.077 106.526C133.864 103.933 135.784 102.35 137.628 101.145C138.845 100.35 139.155 99.7058 138.825 98.6059C138.47 97.4263 137.473 97.0005 136.187 96.8595C134.393 96.6627 132.541 96.5901 130.8 96.6648C128.618 96.7584 126.578 96.1685 124.451 96.2158C123.127 96.2453 122.383 95.4601 121.602 94.6071C119.654 92.4808 118.025 90.13 115.667 88.2882C112.381 85.7206 108.902 83.4335 105.067 81.5864C99.7795 81.6058 96.3776 76.969 91.075 76.9909C90.5804 76.9929 90.0931 76.5669 89.5417 76.7324C85.9117 77.8224 82.9185 76.4323 80.0037 74.7558C79.493 74.4621 79.0168 74.4171 78.5327 74.7352C77.2419 75.5836 75.9929 75.9082 74.5018 74.9708C73.7788 74.5163 72.8823 75.0001 72.0479 75.1857C70.6455 75.4976 69.322 76.4629 67.7262 75.7278C67.6673 75.6089 67.4705 75.3882 67.5273 75.3006C69.6682 71.9993 67.6891 68.3832 68.5112 64.9576C69.0045 62.9023 68.7804 63.0168 71.2461 62.621C73.1083 62.3221 74.7864 62.0614 76.5077 63.4453Z" fill="#7A00DA" fill-opacity="0.86"/>
</svg>
