<svg width="424" height="488" viewBox="0 0 424 488" fill="none" xmlns="http://www.w3.org/2000/svg">
<path fill-rule="evenodd" clip-rule="evenodd" d="M73.9299 44.0114H380.515V460.311H73.9299V44.0114Z" fill="black" stroke="#373435" stroke-width="0.288" stroke-miterlimit="22.9256"/>
<path fill-rule="evenodd" clip-rule="evenodd" d="M281.943 198.521C306.033 230.656 323.24 230.472 343.191 236.182C343.191 237.659 342.829 240.807 342.829 242.283C320.232 237.699 296.64 230.523 278.767 203.96C279.388 202.397 270.423 183.153 281.943 198.521Z" fill="#01A451" stroke="#373435" stroke-width="0.288" stroke-miterlimit="22.9256"/>
<path fill-rule="evenodd" clip-rule="evenodd" d="M273.326 212.463C274.281 211.411 275.235 210.358 276.19 209.306C279.181 212.476 280.6 217.674 281.589 225.218C283.271 238.051 314.712 270.73 313.427 277.701C313.718 279.711 311.082 279.806 308.056 275.246C300.344 263.621 281.731 236.633 279.953 231.878C277.169 224.433 274.881 217.785 273.326 212.463Z" fill="#ED3297" stroke="#ED3297" stroke-width="0.288" stroke-miterlimit="22.9256"/>
<path fill-rule="evenodd" clip-rule="evenodd" d="M153.702 181.339C154.262 181.339 154.716 181.772 154.716 182.306C154.716 182.84 154.262 183.273 153.702 183.273C153.142 183.273 152.688 182.84 152.688 182.306C152.688 181.772 153.142 181.339 153.702 181.339Z" fill="#FEFEFE" stroke="#FEFEFE" stroke-width="0.288" stroke-miterlimit="22.9256"/>
<path d="M227.647 312.453C241.277 319.759 250.673 302.79 257.43 296.63" stroke="#FEFEFE" stroke-width="2.66683" stroke-miterlimit="22.9256"/>
<path fill-rule="evenodd" clip-rule="evenodd" d="M270.699 294.673C275.743 298.999 286.857 303.805 283.514 310.595C274.715 328.468 250.772 355.404 236.941 381.632C228.26 369.529 219.383 357.684 208.185 348.869C229.023 330.803 251.736 313.657 270.699 294.673Z" fill="#FEFEFE"/>
<path fill-rule="evenodd" clip-rule="evenodd" d="M162.862 316.719C168.905 324.986 178.8 332.67 192.244 340.295C198.539 343.866 185.315 355.385 178.803 360.504C175.143 364.452 171.201 370.317 168.186 375.757C160.018 362.75 155.965 344.432 148.172 335.09L162.862 316.719Z" fill="#FEFEFE"/>
<path fill-rule="evenodd" clip-rule="evenodd" d="M211.103 408.141C218.825 415.415 227.239 423.205 234.756 431.857C235.527 432.745 237.047 432.861 237.82 431.94C253.561 413.164 270.315 394.564 282.225 376.401C292.782 375.144 295.349 381.656 313.589 384.16C315.399 384.128 320.598 384.905 327.067 387.185C327.548 387.355 339.718 386.663 345.18 390.671C356.443 392.197 368.759 383.535 380.022 382.893C385.208 375.473 353.597 405.388 352.767 407.271C346.998 420.362 331.569 430.727 318.703 439.986C318.703 439.986 304.016 444.101 297.568 449C283.361 468.393 259.411 479.519 252.588 478.401C240.136 476.36 226.946 477.103 215.521 480.083C215.953 455.431 203.834 430.36 207.721 408.978C208.436 405.048 208.645 405.825 211.103 408.141Z" fill="black"/>
<path fill-rule="evenodd" clip-rule="evenodd" d="M340.928 319.846C343.143 320.897 344.599 322.808 345.296 325.578L345.604 331.26L340.417 330.349L340.928 319.846Z" fill="#ED3297" stroke="#040404" stroke-width="2.66683" stroke-miterlimit="22.9256"/>
<path fill-rule="evenodd" clip-rule="evenodd" d="M205.661 359.901C214.745 370.401 224.642 381.646 233.484 394.134C234.391 395.415 236.18 395.584 237.089 394.253C255.606 367.153 275.313 340.305 289.324 314.088C301.742 312.273 304.762 321.672 326.218 325.287C328.347 325.241 334.462 326.362 342.072 329.654C342.638 329.899 356.954 328.9 363.379 334.685C376.627 336.887 389.876 332.832 403.125 331.904C398.119 349.365 376.835 358.853 364.909 376.053C357.388 388.584 352.046 404.089 332.233 405.868C332.233 405.868 318.214 414.424 310.629 421.495C296.385 438.175 278.614 463.889 254.461 461.317C239.595 459.735 224.297 459.443 210.858 463.746C211.366 428.161 197.11 391.974 201.683 361.11C202.523 355.438 202.769 356.559 205.661 359.901Z" fill="#FEFEFE" stroke="#FEFEFE" stroke-width="0.288" stroke-miterlimit="22.9256"/>
<path fill-rule="evenodd" clip-rule="evenodd" d="M258.784 426.854C260.128 426.854 261.218 427.922 261.218 429.237C261.218 430.554 260.128 431.621 258.784 431.621C257.441 431.621 256.351 430.554 256.351 429.237C256.351 427.922 257.441 426.854 258.784 426.854Z" fill="black" stroke="black" stroke-width="2.66683" stroke-miterlimit="22.9256"/>
<path fill-rule="evenodd" clip-rule="evenodd" d="M265.348 423.044C266.691 423.044 267.781 424.111 267.781 425.427C267.781 426.744 266.691 427.811 265.348 427.811C264.004 427.811 262.915 426.744 262.915 425.427C262.915 424.111 264.004 423.044 265.348 423.044Z" fill="black" stroke="black" stroke-width="2.66683" stroke-miterlimit="22.9256"/>
<path fill-rule="evenodd" clip-rule="evenodd" d="M271.181 419.472C272.525 419.472 273.615 420.54 273.615 421.856C273.615 423.172 272.525 424.239 271.181 424.239C269.838 424.239 268.749 423.172 268.749 421.856C268.749 420.54 269.838 419.472 271.181 419.472Z" fill="black" stroke="black" stroke-width="2.66683" stroke-miterlimit="22.9256"/>
<path fill-rule="evenodd" clip-rule="evenodd" d="M276.149 415.901C277.112 415.901 277.893 416.666 277.893 417.609C277.893 418.552 277.112 419.318 276.149 419.318C275.186 419.318 274.405 418.552 274.405 417.609C274.405 416.666 275.186 415.901 276.149 415.901Z" fill="black" stroke="black" stroke-width="2.66683" stroke-miterlimit="22.9256"/>
<path fill-rule="evenodd" clip-rule="evenodd" d="M280.174 411.674C281.383 411.674 282.363 412.634 282.363 413.819C282.363 415.003 281.383 415.963 280.174 415.963C278.965 415.963 277.985 415.003 277.985 413.819C277.985 412.634 278.965 411.674 280.174 411.674Z" fill="black" stroke="black" stroke-width="2.66683" stroke-miterlimit="22.9256"/>
<path fill-rule="evenodd" clip-rule="evenodd" d="M285.108 407.389C286.107 407.389 286.917 408.183 286.917 409.161C286.917 410.139 286.107 410.933 285.108 410.933C284.11 410.933 283.3 410.139 283.3 409.161C283.3 408.183 284.11 407.389 285.108 407.389Z" fill="black" stroke="black" stroke-width="2.66683" stroke-miterlimit="22.9256"/>
<path fill-rule="evenodd" clip-rule="evenodd" d="M287.91 403.247C288.909 403.247 289.719 404.04 289.719 405.019C289.719 405.997 288.909 406.79 287.91 406.79C286.912 406.79 286.102 405.997 286.102 405.019C286.102 404.04 286.912 403.247 287.91 403.247Z" fill="black" stroke="black" stroke-width="2.66683" stroke-miterlimit="22.9256"/>
<path fill-rule="evenodd" clip-rule="evenodd" d="M209.64 442.191C211.046 440.635 212.802 442.011 215.497 442.426C216.99 439.738 218.373 440.344 220.905 443.083C222.731 440.418 227.054 439.837 228.021 441.205C228.792 442.295 230.013 442.681 230.558 441.523C231.791 438.903 233.976 439.248 236.006 441.284C240.227 436.637 241.562 438.875 243.208 439.99C244.58 440.918 246.158 440.405 247.306 439.108C249.968 436.102 252.122 437.294 254.577 437.205C257.312 434.017 260.317 433.535 263.459 434.421C264.354 431.914 266.151 431.016 269.144 430.245C270.142 428.496 271.611 427.334 274.117 427.461C275.028 423.797 276.557 421.508 279.447 422.24C281.35 419.884 282.506 416.956 285.841 417.368C285.955 414.331 289.394 411.799 289.394 411.799C292.361 407.136 293.428 408.031 292.592 413.54C292.183 416.233 289.958 421.767 284.414 421.949C282.789 426.824 279.053 431.485 274.117 431.637C270.005 436.313 263.736 439.857 257.775 439.642C257.414 444.207 250.446 442.441 246.761 443.122C245.151 445.482 238.499 445.943 232.092 444.443C232.092 444.443 233.004 447.957 210.138 446.987L209.64 442.191Z" fill="black" stroke="black" stroke-width="2.66683" stroke-miterlimit="22.9256"/>
<path fill-rule="evenodd" clip-rule="evenodd" d="M300.685 388.511C301.75 388.511 302.614 389.357 302.614 390.4C302.614 391.443 301.75 392.289 300.685 392.289C299.62 392.289 298.757 391.443 298.757 390.4C298.757 389.357 299.62 388.511 300.685 388.511Z" fill="black" stroke="black" stroke-width="2.66683" stroke-miterlimit="22.9256"/>
<path fill-rule="evenodd" clip-rule="evenodd" d="M306.609 385.235C307.491 385.235 308.207 385.936 308.207 386.8C308.207 387.665 307.491 388.366 306.609 388.366C305.727 388.366 305.011 387.665 305.011 386.8C305.011 385.936 305.727 385.235 306.609 385.235Z" fill="black" stroke="black" stroke-width="2.66683" stroke-miterlimit="22.9256"/>
<path fill-rule="evenodd" clip-rule="evenodd" d="M309.263 383.289C310.145 383.289 310.861 383.991 310.861 384.855C310.861 385.719 310.145 386.42 309.263 386.42C308.381 386.42 307.665 385.719 307.665 384.855C307.665 383.991 308.381 383.289 309.263 383.289Z" fill="black" stroke="black" stroke-width="2.66683" stroke-miterlimit="22.9256"/>
<path fill-rule="evenodd" clip-rule="evenodd" d="M311.843 381.256C312.725 381.256 313.441 381.957 313.441 382.821C313.441 383.686 312.725 384.387 311.843 384.387C310.961 384.387 310.245 383.686 310.245 382.821C310.245 381.957 310.961 381.256 311.843 381.256Z" fill="black" stroke="black" stroke-width="2.66683" stroke-miterlimit="22.9256"/>
<path fill-rule="evenodd" clip-rule="evenodd" d="M317.579 377.19C318.718 377.19 319.641 378.094 319.641 379.209C319.641 380.324 318.718 381.228 317.579 381.228C316.442 381.228 315.519 380.324 315.519 379.209C315.519 378.094 316.442 377.19 317.579 377.19Z" fill="black" stroke="black" stroke-width="2.66683" stroke-miterlimit="22.9256"/>
<path fill-rule="evenodd" clip-rule="evenodd" d="M323.488 372.807C324.752 372.807 325.777 373.812 325.777 375.05C325.777 376.289 324.752 377.293 323.488 377.293C322.223 377.293 321.198 376.289 321.198 375.05C321.198 373.812 322.223 372.807 323.488 372.807Z" fill="black" stroke="black" stroke-width="2.66683" stroke-miterlimit="22.9256"/>
<path fill-rule="evenodd" clip-rule="evenodd" d="M330.461 370.294C331.726 370.294 332.751 371.298 332.751 372.537C332.751 373.775 331.726 374.78 330.461 374.78C329.197 374.78 328.172 373.775 328.172 372.537C328.172 371.298 329.197 370.294 330.461 370.294Z" fill="black" stroke="black" stroke-width="2.66683" stroke-miterlimit="22.9256"/>
<path fill-rule="evenodd" clip-rule="evenodd" d="M337.567 365.943C338.593 365.943 339.425 366.758 339.425 367.763C339.425 368.768 338.593 369.583 337.567 369.583C336.542 369.583 335.71 368.768 335.71 367.763C335.71 366.758 336.542 365.943 337.567 365.943Z" fill="black" stroke="black" stroke-width="2.66683" stroke-miterlimit="22.9256"/>
<path fill-rule="evenodd" clip-rule="evenodd" d="M341.85 360.993C342.875 360.993 343.708 361.808 343.708 362.813C343.708 363.818 342.875 364.633 341.85 364.633C340.824 364.633 339.992 363.818 339.992 362.813C339.992 361.808 340.824 360.993 341.85 360.993Z" fill="black" stroke="black" stroke-width="2.66683" stroke-miterlimit="22.9256"/>
<path fill-rule="evenodd" clip-rule="evenodd" d="M345.314 355.9C346.176 355.9 346.874 356.584 346.874 357.427C346.874 358.271 346.176 358.955 345.314 358.955C344.453 358.955 343.755 358.271 343.755 357.427C343.755 356.584 344.453 355.9 345.314 355.9Z" fill="black" stroke="black" stroke-width="2.66683" stroke-miterlimit="22.9256"/>
<path fill-rule="evenodd" clip-rule="evenodd" d="M348.531 349.261C349.807 349.261 350.841 350.274 350.841 351.523C350.841 352.773 349.807 353.786 348.531 353.786C347.256 353.786 346.222 352.773 346.222 351.523C346.222 350.274 347.256 349.261 348.531 349.261Z" fill="black" stroke="black" stroke-width="2.66683" stroke-miterlimit="22.9256"/>
<path fill-rule="evenodd" clip-rule="evenodd" d="M350.964 341.71C352.025 341.71 352.885 342.553 352.885 343.592C352.885 344.631 352.025 345.474 350.964 345.474C349.903 345.474 349.043 344.631 349.043 343.592C349.043 342.553 349.903 341.71 350.964 341.71Z" fill="black" stroke="black" stroke-width="2.66683" stroke-miterlimit="22.9256"/>
<path fill-rule="evenodd" clip-rule="evenodd" d="M352.627 336.916C353.688 336.916 354.548 337.759 354.548 338.798C354.548 339.837 353.688 340.68 352.627 340.68C351.567 340.68 350.706 339.837 350.706 338.798C350.706 337.759 351.567 336.916 352.627 336.916Z" fill="black" stroke="black" stroke-width="2.66683" stroke-miterlimit="22.9256"/>
<path fill-rule="evenodd" clip-rule="evenodd" d="M353.212 332.601C354.272 332.601 355.133 333.444 355.133 334.483C355.133 335.522 354.272 336.365 353.212 336.365C352.151 336.365 351.291 335.522 351.291 334.483C351.291 333.444 352.151 332.601 353.212 332.601Z" fill="black" stroke="black" stroke-width="2.66683" stroke-miterlimit="22.9256"/>
<path fill-rule="evenodd" clip-rule="evenodd" d="M303.17 400.21C303.906 397.635 302.99 393.232 306.945 393.901C308.428 391.344 307.97 389.251 312.275 389.55C314.62 387.383 314.863 385.192 320.047 385.852C322.115 382.487 323.76 381.821 327.376 381.936C330.486 382.035 328.558 377.058 335.973 376.931C337.969 376.897 338.967 371.546 343.366 371.058C345.429 368.041 345.532 365.058 350.472 364.532C350.947 362.336 351.763 361.198 354.025 359.311C356.322 357.396 353.438 351.092 357.134 352.35C356.323 348.707 358.733 349.551 359.577 347.346C360.244 345.606 357.213 341.466 361.576 342.125C361.61 340.166 359.932 336.3 363.575 337.339L363.379 334.685C365.74 334.897 366.427 334.958 368.789 335.17C369.605 340.49 364.885 349.546 360.466 354.742C360.287 358.327 357.121 359.005 355.802 361.922C354.214 365.434 353.699 367.601 350.916 369.318C347.733 373.669 345.28 374.992 341.367 376.062C340.092 379.046 337.502 381.077 333.594 382.154C331.836 384.805 328.751 385.205 324.711 386.069C323.604 387.628 321.686 389.228 317.16 389.985C316.652 390.07 308.524 398.17 304.946 403.038C301.329 408.022 293.994 401.276 303.17 400.21Z" fill="black" stroke="black" stroke-width="2.66683" stroke-miterlimit="22.9256"/>
<path fill-rule="evenodd" clip-rule="evenodd" d="M138.408 350.666C148.209 367.175 155.983 384.483 162.315 402.369C163.916 406.892 168.122 406.389 170.543 402.312C225.147 310.335 175.655 451.343 184.946 476.333C157.312 456.329 129.582 496.277 104.214 426.284C99.9777 414.595 58.4223 414.069 53.2127 378.471C119.311 368.041 137.197 348.627 138.408 350.666Z" fill="black" stroke="black" stroke-width="0.288" stroke-miterlimit="22.9256"/>
<path fill-rule="evenodd" clip-rule="evenodd" d="M137.654 341.088C146.033 357.277 152.681 374.25 158.094 391.789C159.463 396.224 162.725 395.547 165.13 391.733C169.364 385.016 181.66 370.198 191.525 359.907C194.917 356.366 195.099 358.298 195.283 361.952C197.232 400.542 175.552 444.008 177.919 462.962C158.189 450.152 137.211 481.529 115.52 417.588C111.657 406.201 61.5098 401.77 57.0554 366.861C113.572 356.634 136.618 339.088 137.654 341.088Z" fill="#FEFEFE" stroke="#FEFEFE" stroke-width="0.288" stroke-miterlimit="22.9256"/>
<path fill-rule="evenodd" clip-rule="evenodd" d="M84.5104 361.201C85.7089 361.201 86.6803 362.153 86.6803 363.327C86.6803 364.501 85.7089 365.452 84.5104 365.452C83.3122 365.452 82.3408 364.501 82.3408 363.327C82.3408 362.153 83.3122 361.201 84.5104 361.201Z" fill="black" stroke="black" stroke-width="2.66683" stroke-miterlimit="22.9256"/>
<path fill-rule="evenodd" clip-rule="evenodd" d="M89.8291 365.63C91.0276 365.63 91.9991 366.582 91.9991 367.756C91.9991 368.929 91.0276 369.881 89.8291 369.881C88.631 369.881 87.6595 368.929 87.6595 367.756C87.6595 366.582 88.631 365.63 89.8291 365.63Z" fill="black" stroke="black" stroke-width="2.66683" stroke-miterlimit="22.9256"/>
<path fill-rule="evenodd" clip-rule="evenodd" d="M95.2916 369.797C96.4901 369.797 97.4616 370.748 97.4616 371.922C97.4616 373.096 96.4901 374.048 95.2916 374.048C94.0939 374.048 93.122 373.096 93.122 371.922C93.122 370.748 94.0939 369.797 95.2916 369.797Z" fill="black" stroke="black" stroke-width="2.66683" stroke-miterlimit="22.9256"/>
<path fill-rule="evenodd" clip-rule="evenodd" d="M101.321 374.527C102.348 374.527 103.182 375.344 103.182 376.35C103.182 377.356 102.348 378.172 101.321 378.172C100.294 378.172 99.4602 377.356 99.4602 376.35C99.4602 375.344 100.294 374.527 101.321 374.527Z" fill="black" stroke="black" stroke-width="2.66683" stroke-miterlimit="22.9256"/>
<path fill-rule="evenodd" clip-rule="evenodd" d="M107.159 377.911C108.186 377.911 109.019 378.728 109.019 379.734C109.019 380.74 108.186 381.557 107.159 381.557C106.131 381.557 105.298 380.74 105.298 379.734C105.298 378.728 106.131 377.911 107.159 377.911Z" fill="black" stroke="black" stroke-width="2.66683" stroke-miterlimit="22.9256"/>
<path fill-rule="evenodd" clip-rule="evenodd" d="M113.051 381.019C113.973 380.85 114.861 381.446 115.033 382.349C115.205 383.252 114.597 384.122 113.675 384.29C112.753 384.459 111.866 383.864 111.694 382.96C111.522 382.057 112.129 381.188 113.051 381.019Z" fill="black" stroke="black" stroke-width="2.66683" stroke-miterlimit="22.9256"/>
<path fill-rule="evenodd" clip-rule="evenodd" d="M118.418 385.118C119.339 384.949 120.227 385.544 120.399 386.447C120.572 387.351 119.963 388.22 119.041 388.389C118.12 388.557 117.232 387.962 117.06 387.059C116.888 386.156 117.496 385.286 118.418 385.118Z" fill="black" stroke="black" stroke-width="2.66683" stroke-miterlimit="22.9256"/>
<path fill-rule="evenodd" clip-rule="evenodd" d="M122.937 388.65C123.859 388.482 124.746 389.077 124.918 389.98C125.091 390.884 124.483 391.753 123.561 391.922C122.639 392.09 121.751 391.495 121.579 390.591C121.407 389.688 122.015 388.819 122.937 388.65Z" fill="black" stroke="black" stroke-width="2.66683" stroke-miterlimit="22.9256"/>
<path fill-rule="evenodd" clip-rule="evenodd" d="M126.824 393.22C127.746 393.051 128.634 393.647 128.806 394.55C128.978 395.453 128.37 396.323 127.448 396.491C126.526 396.66 125.639 396.065 125.466 395.161C125.294 394.258 125.902 393.389 126.824 393.22Z" fill="black" stroke="black" stroke-width="2.66683" stroke-miterlimit="22.9256"/>
<path fill-rule="evenodd" clip-rule="evenodd" d="M130.546 398.38C131.468 398.212 132.356 398.807 132.528 399.71C132.7 400.614 132.092 401.483 131.17 401.652C130.248 401.82 129.361 401.225 129.188 400.322C129.016 399.419 129.624 398.549 130.546 398.38Z" fill="black" stroke="black" stroke-width="2.66683" stroke-miterlimit="22.9256"/>
<path fill-rule="evenodd" clip-rule="evenodd" d="M133.486 401.908C134.553 401.712 135.581 402.401 135.78 403.447C135.98 404.493 135.276 405.499 134.208 405.694C133.141 405.89 132.114 405.2 131.914 404.154C131.715 403.109 132.419 402.103 133.486 401.908Z" fill="black" stroke="black" stroke-width="2.66683" stroke-miterlimit="22.9256"/>
<path fill-rule="evenodd" clip-rule="evenodd" d="M137.883 407.688C138.714 407.536 139.515 408.073 139.67 408.888C139.826 409.702 139.277 410.486 138.446 410.638C137.614 410.791 136.815 410.253 136.659 409.439C136.504 408.625 137.052 407.841 137.883 407.688Z" fill="black" stroke="black" stroke-width="2.66683" stroke-miterlimit="22.9256"/>
<path fill-rule="evenodd" clip-rule="evenodd" d="M141.579 412.89C142.411 412.738 143.211 413.275 143.366 414.089C143.521 414.904 142.973 415.687 142.142 415.84C141.311 415.992 140.511 415.455 140.355 414.64C140.2 413.826 140.748 413.042 141.579 412.89Z" fill="black" stroke="black" stroke-width="2.66683" stroke-miterlimit="22.9256"/>
<path fill-rule="evenodd" clip-rule="evenodd" d="M144.894 417.628C145.725 417.476 146.525 418.013 146.68 418.827C146.836 419.642 146.287 420.426 145.456 420.578C144.625 420.73 143.825 420.193 143.669 419.378C143.514 418.564 144.062 417.78 144.894 417.628Z" fill="black" stroke="black" stroke-width="2.66683" stroke-miterlimit="22.9256"/>
<path fill-rule="evenodd" clip-rule="evenodd" d="M149.372 420.887C150.323 420.713 151.237 421.327 151.415 422.258C151.592 423.189 150.965 424.085 150.015 424.259C149.065 424.433 148.15 423.819 147.972 422.888C147.795 421.957 148.422 421.061 149.372 420.887Z" fill="black" stroke="black" stroke-width="2.66683" stroke-miterlimit="22.9256"/>
<path fill-rule="evenodd" clip-rule="evenodd" d="M153.72 423.559C154.671 423.385 155.586 423.999 155.763 424.93C155.941 425.861 155.314 426.757 154.364 426.931C153.413 427.105 152.498 426.491 152.321 425.559C152.143 424.629 152.77 423.732 153.72 423.559Z" fill="black" stroke="black" stroke-width="2.66683" stroke-miterlimit="22.9256"/>
<path fill-rule="evenodd" clip-rule="evenodd" d="M160.331 427.258C161.281 427.084 162.196 427.698 162.373 428.629C162.551 429.56 161.924 430.457 160.974 430.631C160.023 430.804 159.108 430.191 158.931 429.259C158.753 428.328 159.38 427.432 160.331 427.258Z" fill="black" stroke="black" stroke-width="2.66683" stroke-miterlimit="22.9256"/>
<path fill-rule="evenodd" clip-rule="evenodd" d="M78.8208 362.217C79.3627 364.81 79.7587 365.76 78.8384 367.303C78.8384 367.303 81.1812 365.403 82.7575 371.101C83.3668 373.305 86.8177 368.896 88.4535 376.082C89.1423 379.106 92.8522 372.72 96.4207 381.134C97.3338 383.288 100.886 376.945 102.814 385.048C103.218 386.747 107.511 383.676 107.343 387.919C107.343 387.919 112.17 384.303 112.671 391.312C112.758 392.533 117.06 387.059 117.466 395.487C117.622 398.715 121.023 393.878 121.585 399.097C121.663 399.821 125.797 396.219 124.773 403.607C124.472 405.782 129.16 400.016 128.122 409.318C128.122 409.318 136.287 407.503 131.852 413.233C140.329 414.365 137.541 416.423 136.913 418.452C137.796 419.981 141.86 415.865 139.561 423.039C142.318 421.9 142.794 423.911 143.573 427.586C146.155 425.217 145.736 425.685 147.836 430.717C148.696 432.779 150.598 421.104 153.164 434.893C153.164 434.893 156.027 429.906 159.025 436.98C159.759 438.714 160.081 431.104 164.619 438.285C165.602 439.84 164.692 429.727 169.681 440.634C170.374 442.15 171.375 432.453 174.742 441.156C175.094 442.065 177.268 435.892 177.673 441.678L180.732 441.136L179.883 444.831C176.459 446.245 172.193 443.581 171.545 443.766C169.68 444.298 166.363 444.239 164.353 442.2C148.357 441.831 133.088 425.976 126.684 412.328C111.277 387.47 86.8288 384.668 83.1482 374.216C81.981 370.902 79.3466 377.282 78.039 370.696C78.039 370.696 73.1687 368.719 75.0212 363.135L78.8208 362.217Z" fill="black" stroke="black" stroke-width="2.66683" stroke-miterlimit="22.9256"/>
<path fill-rule="evenodd" clip-rule="evenodd" d="M290.537 158.427C301.958 183.457 316.137 161.991 334.278 149.462C354.716 135.346 365.055 142.074 370.888 171.953C373.641 186.056 372.176 214.268 398.544 213.106V223.423C393.214 225.212 376.43 217.154 371.161 205.663C351.779 163.393 375.836 120.821 320.207 169.997C300.021 187.841 280.307 169.481 279.894 153.091L290.537 158.427Z" fill="#FB8E0D" stroke="#FB8E0D" stroke-width="0.288" stroke-miterlimit="22.9256"/>
<path fill-rule="evenodd" clip-rule="evenodd" d="M288.695 177.162C294.35 181.745 296.477 186.241 299.52 190.755C313.636 195.012 328.776 201.939 345.77 212.556C345.171 207.94 343.335 203.707 339.235 201.595C333.614 198.701 301.774 181.986 288.695 177.162Z" fill="#FBC80D" stroke="#FBC80D" stroke-width="0.288" stroke-miterlimit="22.9256"/>
<path fill-rule="evenodd" clip-rule="evenodd" d="M261.488 219.059L269.243 218.192C265.301 247.524 288.659 278.898 298.367 308.688C298.912 312.847 293.239 308.772 290.574 306.103C288.909 290.42 260.47 260.268 261.488 219.059Z" fill="#ED3237" stroke="#373435" stroke-width="0.288" stroke-miterlimit="22.9256"/>
<path fill-rule="evenodd" clip-rule="evenodd" d="M150.658 143.433C142.691 145.261 137.212 166.295 147.727 165.69C170.025 168.156 159.773 186.585 158.255 192.713C152.984 204.932 144.586 216.628 153.59 220.258C155.184 224.8 155.968 230.922 154.826 236.176C159.997 234.863 165.756 234.921 171.97 236.853C179.153 238.987 186.221 241.075 194.495 239.168C195.583 238.885 198.276 241.997 194.666 244.099C192.544 246.001 176.695 244.809 166.02 244.36C153.852 243.424 151.316 254.7 170.324 251.846C174.223 251.077 175.792 256.409 171.688 256.62C142.586 255.027 159.449 318.105 222.089 262.977C225.022 260.473 227.566 262.246 224.298 265.771C214.872 276.263 201.254 283.182 193.827 294.652C193.827 294.652 187.616 346.498 208.561 331.547C219.334 323.856 228.276 313.945 238.612 305.699C250.721 296.039 253.262 266.085 246.674 243.952C252.997 236.778 257.587 227.889 259.135 220.976C299.902 217.622 277.335 142.725 261.333 210.924L254.82 210.099C255.934 201.238 257.112 195.237 255.685 185.359C241.415 177.364 239.824 170.087 236.413 147.022C224.255 147.718 196.49 138.119 188.5 140.209C179.95 142.444 174.812 144.547 169.257 140.022C169.257 140.022 154.373 141.485 150.658 143.433Z" fill="#FEFEFE"/>
<path fill-rule="evenodd" clip-rule="evenodd" d="M321.026 292.007L321 298.078C323.183 301.421 322.899 304.457 327.93 305L328 298.601C326.958 295.775 324.2 291.805 321.026 292.007Z" fill="#ED3297" stroke="black" stroke-miterlimit="22.9256"/>
<path fill-rule="evenodd" clip-rule="evenodd" d="M346.73 233.409C372.084 255.997 328.669 301.858 334.319 326.827L322.493 324.565C332.711 295.713 354.303 269.773 346.73 233.409Z" fill="#FBC80D" stroke="black" stroke-width="0.288" stroke-miterlimit="22.9256"/>
<path fill-rule="evenodd" clip-rule="evenodd" d="M364.282 246.917C381.087 260 400.768 266.381 392.813 316.399L386.697 310.409C392.944 284.731 389.955 265.086 366.643 258.713L364.282 246.917Z" fill="#01A451"/>
<path fill-rule="evenodd" clip-rule="evenodd" d="M383.342 322.577L389.752 326.427C388.937 356.191 392.048 384.552 414.078 406.155L407.832 410.905C387.765 388.441 378.863 354.088 383.342 322.577Z" fill="#01A451"/>
<path fill-rule="evenodd" clip-rule="evenodd" d="M337.458 412.908C337.389 409.998 342.382 406.603 342.843 411.455C346.749 419.162 351.573 426.196 356.733 432.804C356.733 432.804 355.904 438.218 353.624 437.271C346.301 431.857 340.913 423.736 337.458 412.908Z" fill="#FBC80D" stroke="#373435" stroke-width="0.288" stroke-miterlimit="22.9256"/>
<path fill-rule="evenodd" clip-rule="evenodd" d="M321.7 247.117C322.302 237.901 329.808 242.974 331.683 248.37C332.642 270.773 313.135 293.594 307.699 319.34L298.895 315.09C308.425 291.977 325.611 261.421 321.7 247.117Z" fill="#0098DA" stroke="black" stroke-width="0.288" stroke-miterlimit="22.9256"/>
<path fill-rule="evenodd" clip-rule="evenodd" d="M125.879 181.407C129.953 178.073 131.422 182.773 126.42 187.084C117.523 194.75 106.631 207.496 90.9485 215.198C89.1143 216.098 87.3511 208.679 90.1362 207.49C104.617 201.308 116.266 189.275 125.879 181.407Z" fill="#01A451" stroke="#373435" stroke-width="0.288" stroke-miterlimit="22.9256"/>
<path fill-rule="evenodd" clip-rule="evenodd" d="M127.284 202.278C127.44 205.415 127.596 208.552 127.752 211.69C124.076 213.558 116.619 220.062 116.619 220.062C113.365 223.657 112.477 223.746 108.396 227.385C108.396 227.385 105.272 228.315 95.1409 238.93C94.1087 236.768 92.4939 235.241 90.0282 234.642C97.2918 221.559 116.271 218.575 127.284 202.278Z" fill="#FB8E0D" stroke="#373435" stroke-width="0.288" stroke-miterlimit="22.9256"/>
<path fill-rule="evenodd" clip-rule="evenodd" d="M132.237 234.251C135.745 237.932 135.73 243.248 133.214 252.855C128.959 269.703 118.143 285.48 106.388 301.104C103.89 298.453 104.837 291.477 106.128 288.577C120.026 271.141 122.388 255.736 132.237 234.251Z" fill="#0098DA" stroke="#373435" stroke-width="0.288" stroke-miterlimit="22.9256"/>
<path fill-rule="evenodd" clip-rule="evenodd" d="M147.6 271.389C151.495 272.168 153.077 275.667 150.958 280.525C147.156 289.814 133.946 311.963 130.813 337.9C129.948 341.417 125.007 341.411 125.217 337.9C126.674 313.596 143.523 289.877 147.6 271.389Z" fill="#FB8E0D" stroke="black" stroke-width="0.288" stroke-miterlimit="22.9256"/>
<path fill-rule="evenodd" clip-rule="evenodd" d="M89.1171 413.263C87.405 408.127 93.5944 407.333 94.9864 415.477C99.959 451.001 103.238 464.816 120.91 487.57C99.4438 487.57 93.3021 444.497 89.1171 413.263Z" fill="#ED3237" stroke="#ED3237" stroke-width="0.288" stroke-miterlimit="22.9256"/>
<path fill-rule="evenodd" clip-rule="evenodd" d="M85.0579 167.914C83.7304 169.908 82.4026 171.902 81.0751 173.896C54.9549 156.077 30.2731 172.071 6.78228 216.081L1 210.284C18.9803 177.611 44.3954 148.417 85.0579 167.914Z" fill="#ED3297" stroke="#ED3297" stroke-width="0.288" stroke-miterlimit="22.9256"/>
<path fill-rule="evenodd" clip-rule="evenodd" d="M76.5717 221.864L77.8862 227.742C50.7063 243.716 36.802 264.673 20.725 316.622C17.8423 325.938 10.8653 322.506 8.70905 320.203C4.44579 315.648 10.8321 312.31 12.4122 315.213C12.9799 316.256 14.4028 316.022 14.7542 314.774C29.7228 261.583 43.9949 237.264 76.5717 221.864Z" fill="#01A451" stroke="#01A451" stroke-width="0.288" stroke-miterlimit="22.9256"/>
<path fill-rule="evenodd" clip-rule="evenodd" d="M95.057 308.443L95.9747 316.549C64.4556 342.572 47.7174 386.51 59.4903 430.353L53.3405 437.236C40.252 406.437 42.0763 352.311 95.057 308.443Z" fill="#0098DA" stroke="#0098DA" stroke-width="0.288" stroke-miterlimit="22.9256"/>
<path d="M302.182 200.097C304.776 204.39 306.248 206.825 308.842 211.119" stroke="#373435" stroke-width="0.288" stroke-miterlimit="22.9256"/>
<path fill-rule="evenodd" clip-rule="evenodd" d="M267.459 151.355L275.847 155.994C281.681 189.839 322.131 208.929 327.294 231.89L319.186 229.054C317.08 207.164 276.372 201.024 267.459 151.355Z" fill="#0098DA" stroke="black" stroke-width="0.288" stroke-miterlimit="22.9256"/>
<path fill-rule="evenodd" clip-rule="evenodd" d="M300.642 192.613C303.236 196.906 304.708 199.342 307.301 203.635C334.783 212.718 359.143 226.263 365.119 272.241C370.404 312.911 417.109 343.465 414.959 368.739C417.695 365.292 420.431 361.846 423.168 358.4C417.488 344.718 384.473 314.968 372.707 273.223C357.105 217.865 357.287 216.754 300.642 192.613Z" fill="#ED3237" stroke="#ED3237" stroke-width="0.288" stroke-miterlimit="22.9256"/>
<g filter="url(#filter0_d_169_2)">
<path fill-rule="evenodd" clip-rule="evenodd" d="M121 163.976C125.779 161.763 125.863 164.527 124.054 165.595C112.919 172.169 99.8544 177.941 90.1641 177.219C90.0015 174.014 92.7744 168.86 94.9344 168.456C108.882 168.245 111.785 168.242 121 163.976Z" fill="#ED3297"/>
<path fill-rule="evenodd" clip-rule="evenodd" d="M121 163.976C125.779 161.763 125.863 164.527 124.054 165.595C112.919 172.169 99.8544 177.941 90.1641 177.219C90.0015 174.014 92.7744 168.86 94.9344 168.456C108.882 168.245 111.785 168.242 121 163.976Z" stroke="black" stroke-width="0.288" stroke-miterlimit="22.9256"/>
</g>
<path fill-rule="evenodd" clip-rule="evenodd" d="M115.648 145.254C122.145 145.41 119.907 145.733 118.234 149.726C73.5597 165.852 82.6605 197.967 83.7777 237.718C86.0187 317.437 15.0184 313.839 38.1758 390.703L29.0418 395.838C2.91162 305.813 78.2709 314.061 76.6817 240.529C75.6431 192.487 59.159 173.66 115.648 145.254Z" fill="#FBC80D" stroke="#FBC80D" stroke-width="0.288" stroke-miterlimit="22.9256"/>
<path fill-rule="evenodd" clip-rule="evenodd" d="M126.6 216.309L128.851 220.695C106.147 236.435 93.9451 252.969 99.6556 283.732C104.358 309.065 102.891 337.76 98.3503 356.679L89.7948 359.283C114.849 288.273 53.4267 270.858 126.6 216.309Z" fill="#ED3237" stroke="#ED3237" stroke-width="0.288" stroke-miterlimit="22.9256"/>
<path fill-rule="evenodd" clip-rule="evenodd" d="M184.536 184.555C181.419 189.461 172.82 166.163 179.46 166.805C185.231 167.363 195.576 159.306 205.847 165.348C210.027 167.807 216.919 170.408 222.797 171.48C227.474 172.333 226.448 176.852 219.933 175.407C216.53 174.653 207.406 169.6 201.035 172.008C199.149 172.72 198.608 174.754 200.003 175.026C205.82 175.679 213.33 176.771 219.552 178.774C223.537 180.735 218.202 184.218 214.397 180.644C213.102 179.428 211.759 179.607 207.735 178.959C204.732 189.455 193.545 189.87 188.051 178.961C186.496 179.88 184.884 181.512 184.536 184.555Z" fill="black"/>
<path fill-rule="evenodd" clip-rule="evenodd" d="M197.506 178.75C198.334 178.75 199.005 179.445 199.005 180.302C199.005 181.159 198.334 181.853 197.506 181.853C196.678 181.853 196.007 181.159 196.007 180.302C196.007 179.445 196.678 178.75 197.506 178.75Z" fill="#FEFEFE" stroke="#FEFEFE" stroke-width="0.288" stroke-miterlimit="22.9256"/>
<path d="M277.198 192.711C265.709 195.087 270.56 215.096 264.56 214.47" stroke="#040404" stroke-width="2.66683" stroke-miterlimit="22.9256"/>
<path fill-rule="evenodd" clip-rule="evenodd" d="M118.832 83.3195L112.973 76.1833L106.796 74.9419L100.62 73.5459L102.995 64.5478L113.131 58.8076L114.398 52.4473L121.683 53.6882L126.117 48.2583L130.71 44.0696C132.679 44.2173 132.69 43.0339 133.244 40.6566C134.257 36.3021 139.912 35.5339 141.056 38.1728C141.814 39.924 143.119 38.4539 145.121 36.468C146.365 35.2349 146.442 33.5944 147.103 32.1575C149.86 26.6667 157.031 30.2236 150.735 34.0713C150.007 34.5157 149.877 35.753 150.348 37.3987C151.253 40.5624 157.557 39.8328 160.483 35.8472C165.431 29.1078 159.439 29.0581 159.533 31.6585C159.635 34.4817 153.417 35.2442 157.069 30.0034C158.1 28.5236 158.016 27.2815 157.157 26.0735C156.135 24.6351 158.949 18.5346 162.067 20.3336C166.603 22.9501 167.698 23.5463 167.926 21.5746C168.2 19.2115 169.758 18.082 172.519 17.5411C174.069 11.1004 176.182 8.3094 181.388 12.8868C183.642 3.34668 191.495 5.97176 190.364 11.2328C189.878 13.4923 193.326 12.5018 193.973 10.9547C196.528 4.85228 202.381 3.55936 205.774 9.76417C206.944 11.9045 208.575 10.157 209.251 10.2067C211.036 10.3379 214.566 10.7304 211.953 7.42129C209.583 4.42019 214.279 0.877092 217.971 2.80282C219.163 3.88007 220.917 3.20838 221.9 1.83846C223.65 -0.597111 226.486 0.190451 227.859 1.99321C228.052 3.28239 229.095 3.59562 229.707 2.69555C230.898 1.26844 232.04 1.48225 233.808 3.57843C235.672 5.78749 237.521 5.19803 237.432 1.78912C237.38 -0.225943 244.285 -0.991452 244.419 3.88904C244.482 6.19454 246.241 7.74574 246.636 7.76742C248.031 7.84292 248.321 9.58102 248.695 13.0419C248.894 14.8895 251.827 14.6977 254.871 13.5072C258.462 12.1033 260.601 12.7242 260.572 15.3691C260.517 20.3594 267.033 17.4458 267.699 13.197C267.842 7.51586 274.945 11.592 274.245 18.2629C274.721 19.906 275.742 20.993 277.359 21.2644C280.041 21.7144 280.081 22.5143 279.26 24.8325C278.69 26.442 280.735 28.0332 283.536 28.5558C285.16 28.8589 286.702 31.6597 286.387 34.4511C287.738 35.0865 289.683 36.5951 287.97 38.9499C286.912 40.4051 288.218 41.4079 290.029 41.122C294.262 38.6502 296.714 40.2126 297.947 44.535L308.75 49.5037L311.917 53.819L320.031 59.6329L324.127 65.6097L334.826 71.3577L337.139 75.1344L335.926 87.0428L330.571 94.4897L331.68 102.867L340.663 118.468L317.427 107.987L224.471 74.7165L234.127 46.3419C236.407 45.8178 238.093 44.0674 234.934 42.0295C232.815 40.6619 233.809 39.3207 233.961 38.766C234.658 36.2254 234.937 35.6311 231.331 35.6629C229.135 35.6823 227.333 35.0073 228.083 33.3335C227.949 32.7074 226.288 32.1658 225.151 32.7915C223.214 33.8575 222.048 31.9075 222.322 28.6051C222.488 25.6574 220.069 25.2721 218.896 30.1305C219.306 31.7333 218.299 32.9556 216.405 33.9435C214.655 34.8566 214.923 36.2722 216.094 37.909C217.568 39.9704 214.628 44.5982 211.112 44.0098L212.357 47.0603L221.076 73.141L179.194 71.921L118.832 83.3195Z" fill="#040404"/>
<path fill-rule="evenodd" clip-rule="evenodd" d="M115.887 59.3148C113.341 59.5118 114.212 62.2684 116.993 61.3826C118.299 65.4519 123.023 62.2355 119.706 59.4135C117.821 58.2547 119.606 55.0813 115.485 55.2783C117.429 57.6948 116.913 59.0666 115.887 59.3148Z" fill="#FEFEFE"/>
<path fill-rule="evenodd" clip-rule="evenodd" d="M107.244 67.4865C109.086 63.7453 112.302 66.9613 109.354 68.865C110.159 69.6525 109.053 72.6062 107.244 71.2277C106.54 74.083 102.721 73.886 104.028 69.1603C104.597 67.7163 105.419 67.9993 107.244 67.4865Z" fill="#FEFEFE"/>
<path fill-rule="evenodd" clip-rule="evenodd" d="M114.078 69.2586C108.517 73.886 113.508 74.4766 115.485 71.9169C118.419 70.9062 119.324 72.0219 118.199 75.2641C116.647 78.2211 119 79.3197 120.108 76.1504C121.113 73.7548 123.538 74.4938 124.329 75.2641C126.808 78.4805 130.427 76.0521 127.344 74.4766C124.195 71.4575 126.273 71.0965 127.847 70.1448C133.877 67.7492 132.169 66.1408 128.45 66.2066C126.205 66.6331 126.986 65.2666 127.292 63.7079C128.42 60.7897 127.671 58.6958 124.329 62.3671C123.592 65.1077 121.348 66.3879 119.706 65.3208C119.256 68.092 118.668 69.226 114.078 69.2586Z" fill="#FEFEFE"/>
<path fill-rule="evenodd" clip-rule="evenodd" d="M135.284 69.1602C135.623 65.0322 138.676 65.9065 138.284 69.361C138.603 70.0173 138.643 70.7077 138.196 71.3301C137.746 74.9726 134.141 74.5181 135.037 71.2276C135.38 70.6748 135.219 69.9856 135.284 69.1602Z" fill="#FEFEFE"/>
<path fill-rule="evenodd" clip-rule="evenodd" d="M127.465 54.7744C126.595 50.6666 120.481 55.3897 125.084 56.3731C124.843 58.3545 128.266 59.517 129.375 58.1034C131.583 57.6724 132.573 58.2869 133.877 60.398C134.023 62.6127 135.711 63.3864 135.083 62.8594C136.238 64.5126 137.123 64.6543 138.753 64.3695C137.658 60.8353 136.36 62.0804 136.693 60.081C138.711 58.3489 136.023 56.532 135.184 57.1491C133.899 56.8314 136.091 54.2063 134.702 51.875C129.564 52.2245 132.558 58.0746 127.465 54.7744Z" fill="#FEFEFE"/>
<path fill-rule="evenodd" clip-rule="evenodd" d="M141.314 63.9422C133.006 57.3785 151.834 56.9192 143.526 63.7452C146.708 74.6406 137.978 72.2891 141.314 63.9422Z" fill="#FEFEFE"/>
<path fill-rule="evenodd" clip-rule="evenodd" d="M139.153 50.8729C140.137 50.8729 140.934 51.8387 140.934 53.03C140.934 54.2208 140.137 55.1871 139.153 55.1871C138.17 55.1871 137.372 54.2208 137.372 53.03C137.372 51.8387 138.17 50.8729 139.153 50.8729Z" fill="#FEFEFE"/>
<path fill-rule="evenodd" clip-rule="evenodd" d="M158.423 65.4034C159.355 65.5843 159.892 66.7994 159.622 68.1163C159.353 69.4335 158.378 70.3549 157.446 70.174C156.514 69.993 155.977 68.7782 156.247 67.4607C156.517 66.1438 157.491 65.2224 158.423 65.4034Z" fill="#FEFEFE"/>
<path fill-rule="evenodd" clip-rule="evenodd" d="M149.427 57.8697C150.029 52.7261 153.42 54.6014 152.272 57.8159C151.651 59.5663 152.618 60.0485 155.389 59.5843C159.418 59.3783 158.423 64.707 154.503 62.915C150.715 61.9346 148.825 62.9281 150.94 66.2152C154.368 67.6976 149.5 71.604 148.005 66.8712C146.11 60.7052 151.25 64.1919 149.427 57.8697Z" fill="#FEFEFE"/>
<path fill-rule="evenodd" clip-rule="evenodd" d="M136.456 42.7061C135.194 38.0031 141.068 39.4044 139.304 42.1843C140.41 46.5818 142.241 44.6225 144.453 41.8329C148.867 36.7648 150.166 41.0498 146.541 42.8731C144.795 48.0534 150.996 45.6627 148.249 48.9774L149.556 49.1744C153.878 47.1724 153.677 53.9327 149.556 50.8478C147.746 50.9641 142.671 50.4542 146.239 54.1954C148.216 56.5252 144.809 59.3095 144.028 55.8692C140.934 53.03 142.152 50.9136 144.129 51.1435C145.519 48.6339 144.799 45.4986 142.42 47.4019C141.817 49.3056 139.003 48.5505 138.199 46.91C138.4 49.5351 136.089 50.5854 134.882 48.8787C132.303 51.9636 129.606 46.4226 134.363 46.4555C135.873 45.7651 137.893 44.52 136.456 42.7061Z" fill="#FEFEFE"/>
<path fill-rule="evenodd" clip-rule="evenodd" d="M161.53 51.1114C158.529 57.5823 171.414 54.7782 164.442 51.1114C169.693 46.1501 154.955 45.1798 161.53 51.1114Z" fill="#FEFEFE"/>
<path fill-rule="evenodd" clip-rule="evenodd" d="M152.936 42.0669C151.282 39.8814 150.636 36.0438 150.506 42.5431C146.227 44.5956 149.988 46.7329 152.061 45.4C154.297 50.193 158.38 47.1773 158.186 44.0667L159.935 43.2096C161.988 44.9824 167.044 44.8688 165.67 43.1143C169.332 43.9078 167.355 37.6548 165.282 39.9719C162.237 38.9212 159.805 39.2067 159.663 42.3749L158.018 42.862C157.459 42.5285 156.476 41.5986 155.105 43.1202C155.105 43.1202 154.67 40.4402 152.936 42.0669Z" fill="#FEFEFE"/>
<path fill-rule="evenodd" clip-rule="evenodd" d="M169.925 43.0698C168.551 39.0483 172.359 38.205 174.097 42.924C174.213 43.5789 172.628 44.0379 172.775 44.6232C174.482 51.4089 163.146 47.1515 169.925 43.0698Z" fill="#FEFEFE"/>
<path fill-rule="evenodd" clip-rule="evenodd" d="M167.501 32.1975C168.59 32.6121 169.094 33.9016 168.628 35.0772C168.162 36.2531 166.9 36.8706 165.812 36.4561C164.723 36.0415 164.218 34.7524 164.685 33.5764C165.151 32.4005 166.412 31.783 167.501 32.1975Z" fill="#FEFEFE"/>
<path fill-rule="evenodd" clip-rule="evenodd" d="M163.357 23.9695C160.995 20.1629 156.27 26.4331 161.757 26.8809C163.103 27.8265 163.839 28.921 166.253 29.2697C167.546 32.1751 168.794 31.179 169.376 29.195C171.06 29.5796 171.619 27.39 171.053 26.657C173.012 27.5791 173.521 26.2862 173.034 25.1641C174.939 18.1224 170.901 18.5455 168.691 23.5217C168.995 27.3769 165.219 26.5815 163.357 23.9695Z" fill="#FEFEFE"/>
<path fill-rule="evenodd" clip-rule="evenodd" d="M174.713 27.4781C177.152 23.9197 183.737 29.0207 175.607 30.6878C175.866 31.8248 173.782 32.9021 176.194 35.7384C179.82 38.3844 174.074 41.9181 174.144 37.4058C172.194 35.0491 168.626 33.3196 172.192 31.8077C172.545 30.5884 172.353 26.8128 174.713 27.4781Z" fill="#FEFEFE"/>
<path fill-rule="evenodd" clip-rule="evenodd" d="M181.34 32.5541C181.01 28.7718 172.889 32.8337 180.045 35.9877C179.893 42.1835 189.265 38.3765 184.388 35.316C184.947 32.8277 183.525 30.4142 181.34 32.5541Z" fill="#FEFEFE"/>
<path fill-rule="evenodd" clip-rule="evenodd" d="M178.98 42.0158C174.568 41.4099 173.805 47.1048 179.475 46.0141C180.471 45.7024 181.934 46.5763 183.061 47.8318C182.794 45.9334 185.096 44.1942 185.968 44.6207C189.048 42.7966 186.199 38.1004 182.489 41.4876C181.025 39.5488 179.64 39.8953 178.98 42.0158Z" fill="#FEFEFE"/>
<path fill-rule="evenodd" clip-rule="evenodd" d="M179.362 14.5609C176.128 11.9691 172.471 17.7867 177.295 17.0365C177.754 22.062 182.94 17.8282 179.362 14.5609Z" fill="#FEFEFE"/>
<path fill-rule="evenodd" clip-rule="evenodd" d="M179.362 21.8748C175.38 18.9492 173.034 25.1641 179.821 24.575C182.032 25.3816 185.74 23.9171 184.875 29.7508C191.979 35.0746 193.769 25.9277 188.666 25.3625C186.254 24.9876 184.531 23.3748 184.875 20.8618C186.828 17.6738 181.545 14.8237 182.119 19.7367C181.825 20.9265 180.656 21.9394 179.362 21.8748Z" fill="#FEFEFE"/>
<path fill-rule="evenodd" clip-rule="evenodd" d="M188.092 46.8536L191.652 43.3654L186.139 46.9661C182.081 50.8669 192.954 50.4916 188.092 46.8536Z" fill="#FEFEFE"/>
<path fill-rule="evenodd" clip-rule="evenodd" d="M187.665 11.8768C187.589 12.7724 187.589 12.7728 187.512 13.6683C191.246 16.8036 185.306 19.2534 184.769 14.5643C183.83 13.5689 184.261 12.2749 185.15 11.8024C185.226 7.42316 189.57 8.19428 187.665 11.8768Z" fill="#FEFEFE"/>
<path fill-rule="evenodd" clip-rule="evenodd" d="M191.31 16.2086C191.92 16.3783 192.159 16.9999 191.843 17.5964C191.528 18.193 190.777 18.5387 190.166 18.369C189.556 18.1994 189.317 17.5777 189.632 16.9812C189.948 16.3846 190.699 16.0385 191.31 16.2086Z" fill="#FEFEFE"/>
<path fill-rule="evenodd" clip-rule="evenodd" d="M191.356 18.8856C192.57 19.1622 193.046 20.1752 192.418 21.1474C191.789 22.1196 190.294 22.6836 189.08 22.407C187.865 22.13 187.389 21.1171 188.018 20.1449C188.646 19.1727 190.141 18.6086 191.356 18.8856Z" fill="#FEFEFE"/>
<path fill-rule="evenodd" clip-rule="evenodd" d="M198.04 11.3894C198.851 6.68831 203.001 8.45967 201.518 12.2068C203.79 14.6596 200.915 15.1366 199.57 14.5232L199.014 15.5455C200.683 16.6126 202.978 19.792 199.223 20.3146C198.828 19.9939 198.11 18.0207 197.414 18.8837C196.116 22.3132 193.496 17.771 196.232 16.7035L197.484 16.2949L198.179 14.1827C197.437 13.3196 197.917 12.3504 198.04 11.3894Z" fill="#FEFEFE"/>
<path fill-rule="evenodd" clip-rule="evenodd" d="M216.392 20.916C217.74 21.2831 218.268 22.6268 217.571 23.9167C216.874 25.2063 215.215 25.9546 213.868 25.5875C212.52 25.2201 211.992 23.8764 212.689 22.5864C213.386 21.2969 215.044 20.5486 216.392 20.916Z" fill="#FEFEFE"/>
<path fill-rule="evenodd" clip-rule="evenodd" d="M204.597 17.4615C200.068 12.624 211.771 13.6482 206.273 17.3527C206.075 20.3348 207.12 20.2264 208.76 19.9554C211.843 19.9008 210.742 25.6152 207.625 23.6401C204.269 23.5067 201.693 23.9104 201.677 28.0332C202.488 30.4729 198.919 30.2019 198.919 27.8706C199.189 26.1901 199.73 24.4008 198.108 24.0214C195.332 24.4733 195.925 19.7487 199.189 22.4493C203.461 22.7382 205.317 20.4252 204.597 17.4615Z" fill="#FEFEFE"/>
<path fill-rule="evenodd" clip-rule="evenodd" d="M195.595 33.5764C191.755 38.4745 196.724 38.1373 198.76 37.1277C200.023 36.5469 198.772 34.4324 200.035 34.5333C198.942 30.1746 202.719 32.2543 203.946 34.4096C209.848 33.5514 208.946 40.6458 204.487 37.9695C202.977 37.8061 201.399 36.3686 199.461 37.4395C198.404 39.2067 200.363 41.2012 199.075 42.7412C200.286 45.367 195.389 45.2661 195.518 42.893C194.781 41.0861 193.379 39.4837 191.265 40.9994C187.704 42.2082 185.17 37.4148 189.861 37.3546C192.654 37.3774 191.916 34.9695 192.58 33.5764C191.394 31.8596 193.611 30.5215 194.126 32.2887C195.466 26.8102 202.683 31.9355 195.595 33.5764Z" fill="#FEFEFE"/>
<path fill-rule="evenodd" clip-rule="evenodd" d="M208.183 28.0616C209.667 28.5763 211.152 29.0906 212.636 29.605C216.837 27.6815 217.681 34.5479 213.115 31.6851C213.313 34.5767 211.177 36.459 211.677 31.9535C210.461 30.5716 209.371 29.8625 207.567 29.5381C201.813 29.5156 207.625 22.8425 208.183 28.0616Z" fill="#FEFEFE"/>
<path fill-rule="evenodd" clip-rule="evenodd" d="M215.752 62.5028C215.817 56.6497 209.422 60.3883 211.458 63.8604C210.439 67.3613 219.759 68.3234 215.752 62.5028Z" fill="#FEFEFE"/>
<path fill-rule="evenodd" clip-rule="evenodd" d="M206.196 49.7758C205.491 45.1877 212.581 48.259 208.863 51.2628C209.055 54.9576 203.405 52.3217 206.196 49.7758Z" fill="#FEFEFE"/>
<path fill-rule="evenodd" clip-rule="evenodd" d="M207.069 54.5401C207.833 53.9432 209.163 54.3356 210.04 55.417C210.917 56.498 211.01 57.8589 210.246 58.4558C209.483 59.0528 208.153 58.6603 207.276 57.5793C206.399 56.498 206.306 55.137 207.069 54.5401Z" fill="#FEFEFE"/>
<path fill-rule="evenodd" clip-rule="evenodd" d="M187.675 54.1371C189.215 53.289 190.059 53.5428 190.29 54.9389C191.371 56.3585 193.003 55.7526 193.003 55.7526C193.607 53.1903 194.307 50.311 196.936 52.7702C197.417 50.3189 198.345 50.4807 198.838 50.6575C199.343 43.9182 207.187 48.2945 201.629 51.2788C201.932 52.5414 201.334 53.3977 199.346 53.2669C199.064 53.4478 197.716 55.6221 201.503 57.5206C213.435 59.7468 202.781 71.6298 200.292 61.4973C199.77 60.7269 198.944 60.5101 197.652 61.4883C197.561 62.2538 196.448 62.619 195.54 62.4631C197.877 73.1496 190.277 71.6171 192.369 65.197C192.587 63.1778 188.675 62.1349 187.134 63.7097C185.155 66.5699 180.271 65.0628 184.63 61.5929C187.506 59.0292 190.504 60.4312 193.257 61.5929C195.002 62.1293 196.216 60.783 195.794 59.3562C194.571 59.0538 196.556 57.3636 196.556 57.3636C196.963 55.3747 194.126 55.242 193.32 57.9273C190.705 58.1893 187.295 58.7675 187.692 55.9167C179.384 58.1814 184.491 48.5472 187.675 54.1371Z" fill="#FEFEFE"/>
<path fill-rule="evenodd" clip-rule="evenodd" d="M212.238 40.6981C209.049 45.9827 205.092 40.6465 209.779 39.1675C209.186 33.317 217.202 37.13 212.238 40.6981Z" fill="#FEFEFE"/>
<path fill-rule="evenodd" clip-rule="evenodd" d="M216.461 8.11279C211.046 4.31254 215.983 2.28214 218.838 6.01998C219.504 8.14195 222.191 9.87668 223.456 9.09622C223.24 6.76343 226.144 6.61429 225.524 9.20424C226.254 11.1262 227.698 9.04725 228.166 7.5581C230.229 2.8559 233.486 5.56621 230.197 9.29619C226.619 12.0229 227.771 14.8798 231.029 13.5648C236.786 13.2815 234.046 17.7938 230.567 17.0582C227.236 14.9314 223.748 16.333 224.287 20.044C224.133 24.3866 221.485 23.3916 221.886 19.7722C221.707 17.8887 221.05 16.203 218.653 16.9677C218.591 19.0486 215.205 18.5963 216.251 16.1532C216.534 15.4333 215.705 14.4637 214.312 14.796C211.362 15.8464 211.374 12.2046 215.42 12.082C216.789 11.9168 219.478 9.92228 216.461 8.11279Z" fill="#FEFEFE"/>
<path fill-rule="evenodd" clip-rule="evenodd" d="M226.655 26.0395C226.036 17.7568 232.903 23.1935 229.007 26.6028C230.35 33.2183 219.792 29.7979 226.655 26.0395Z" fill="#FEFEFE"/>
<path fill-rule="evenodd" clip-rule="evenodd" d="M239.913 2.98824C240.557 2.49672 241.357 2.75537 241.7 3.56648C242.043 4.37797 241.8 5.43465 241.156 5.92618C240.513 6.41771 239.713 6.15905 239.369 5.34756C239.026 4.53645 239.27 3.47977 239.913 2.98824Z" fill="#FEFEFE"/>
<path fill-rule="evenodd" clip-rule="evenodd" d="M236.897 10.4459C237.371 10.9643 238.426 16.7072 242.178 11.5669C244.569 5.73288 248.456 12.7451 243.806 13.2048C241.195 16.3947 235.548 21.5678 236.325 16.093C236.193 13.9666 236.002 11.8973 235.049 10.9202C232.321 7.14129 236.413 6.29318 236.897 10.4459Z" fill="#FEFEFE"/>
<path fill-rule="evenodd" clip-rule="evenodd" d="M234.539 24.0655C235.196 23.251 235.877 23.2936 236.289 23.9485C237.244 26.5983 238.954 25.8582 238.358 23.0526C237.933 19.0647 233.77 19.4414 231.874 23.7538C230.959 25.7931 234.937 26.3127 234.539 24.0655Z" fill="#FEFEFE"/>
<path fill-rule="evenodd" clip-rule="evenodd" d="M237.265 26.6495C236.995 24.6864 238.978 20.6764 239.925 26.9418C240.181 28.2089 238.317 31.7314 236.859 31.244C231.718 32.5616 231.046 25.3207 235.266 28.804C235.191 26.9171 237.549 27.1029 237.265 26.6495Z" fill="#FEFEFE"/>
<path fill-rule="evenodd" clip-rule="evenodd" d="M237.567 36.6684C238.132 35.6236 238.93 35.0132 239.962 36.1821C240.829 32.2233 247.626 37.05 242.679 38.1852C242.825 41.4266 240.079 40.4783 239.612 39.0437C239.201 38.6173 238.734 38.627 238.209 39.0722C239.096 41.7432 235.571 40.9799 236.398 38.929C235.561 37.857 236.233 36.9192 237.567 36.6684Z" fill="#FEFEFE"/>
<path fill-rule="evenodd" clip-rule="evenodd" d="M250.067 21.0872C250.275 16.3984 257.656 20.4308 251.093 22.373C250.82 23.0559 249.826 23.759 248.65 23.3168C248.322 23.8663 247.975 24.3152 248.673 24.8643C249.963 26.1878 249.162 28.0829 247.36 27.0367C248.099 28.7512 244.724 29.6928 245.011 27.3088C244.765 30.4699 240.838 28.213 243.012 26.2308C239.874 25.8563 241.161 21.9633 243.627 23.8195C242.274 22.7094 242.049 21.9375 243.955 21.8908C243.641 21.1941 243.736 20.0959 243.012 19.801C240.66 15.4744 247.005 14.4432 244.858 19.761C245.136 20.6846 245.199 20.8861 246.047 21.9308C246.376 22.844 248.966 21.4344 250.067 21.0872Z" fill="#FEFEFE"/>
<path fill-rule="evenodd" clip-rule="evenodd" d="M241.175 43.5527C242.883 38.9978 249.117 43.0739 242.956 44.3134C242.749 48.3386 235.374 45.0639 241.175 43.5527Z" fill="#FEFEFE"/>
<path fill-rule="evenodd" clip-rule="evenodd" d="M257.352 18.4154C258.291 18.8976 258.584 19.561 258.091 20.5415C259.524 18.1915 260.81 20.7381 259.014 21.3556C259.507 22.0041 259.261 22.6526 257.722 23.0294C259.138 28.7748 247.428 25.5012 255.782 22.17C254.889 21.1597 255.751 19.878 256.567 19.5461C251.703 14.0571 259.769 14.5849 257.352 18.4154Z" fill="#FEFEFE"/>
<path fill-rule="evenodd" clip-rule="evenodd" d="M252.428 27.0947C253.434 27.0947 254.25 27.8508 254.25 28.7834C254.25 29.716 253.434 30.4722 252.428 30.4722C251.422 30.4722 250.606 29.716 250.606 28.7834C250.606 27.8508 251.422 27.0947 252.428 27.0947Z" fill="#FEFEFE"/>
<path fill-rule="evenodd" clip-rule="evenodd" d="M249.185 37.1009C246.559 34.8776 243.044 40.7628 248.829 39.7599C250.817 42.3032 253.606 39.6583 251.944 37.5367C259.293 32.5669 258.489 26.0421 249.185 37.1009Z" fill="#FEFEFE"/>
<path fill-rule="evenodd" clip-rule="evenodd" d="M244.785 44.8576C246.578 46.1535 246.042 46.5721 246.964 47.9593C249.547 47.6453 251.508 51.8189 244.985 52.2809C239.632 53.0749 241.067 46.9983 245.612 48.2908C246.085 46.8906 245.405 46.2025 244.785 44.8576Z" fill="#FEFEFE"/>
<path fill-rule="evenodd" clip-rule="evenodd" d="M248.152 42.1413C246.595 44.5085 247.425 46.0227 250.64 46.6846C251.093 43.5221 250.112 42.2015 248.152 42.1413Z" fill="#FEFEFE"/>
<path fill-rule="evenodd" clip-rule="evenodd" d="M250.11 49.1748C252.277 49.2794 252.975 48.1772 252.205 45.8676C249.922 46.7699 249.41 47.8961 250.11 49.1748Z" fill="#FEFEFE"/>
<path fill-rule="evenodd" clip-rule="evenodd" d="M259.341 28.0579C255.292 28.2717 260.863 34.6387 262.068 30.6407C262.213 30.1421 263.336 29.5328 264.246 29.7926C266.853 33.791 271.125 27.6931 264.392 28.3644C264.846 27.4157 264.593 26.6865 262.782 26.4383C262.829 24.8022 262.331 23.6775 263.02 23.2095C271.852 17.214 260.598 19.7199 260.529 23.1677C260.511 24.0782 260.118 25.0964 260.235 26.0443C259.878 26.7739 261.004 27.8702 259.341 28.0579Z" fill="#FEFEFE"/>
<path fill-rule="evenodd" clip-rule="evenodd" d="M271.49 17.9231C272.228 14.3901 267.574 15.0218 269.583 18.9118C266.23 23.4992 275.54 21.9506 271.49 17.9231Z" fill="#FEFEFE"/>
<path fill-rule="evenodd" clip-rule="evenodd" d="M256.372 41.8127C251.52 42.9647 257.917 45.8526 257.501 43.472C263.37 42.6437 260.386 37.6406 256.372 41.8127Z" fill="#FEFEFE"/>
<path fill-rule="evenodd" clip-rule="evenodd" d="M271.76 31.7288C273.847 30.3955 275.069 30.5312 274.389 33.8975C273.305 36.7267 271.622 37.8675 269.062 36.5402C258.686 36.7211 266.433 44.2207 267.817 39.1155C269.385 37.9859 271.045 38.6636 272.798 41.1485C271.022 47.6767 279.001 43.8364 275.081 40.6062C274.642 36.2183 275.334 33.6545 279.231 33.6942C284.512 39.9285 284.742 27.9342 279.646 30.9158C278.198 32.0544 276.615 31.5987 275.288 29.1538C277.848 21.1799 275.011 21.609 273.213 27.7985C270.367 25.1319 269.191 25.4485 269.685 28.7471C270.285 29.8995 270.398 29.9175 269.741 31.1954C267.301 33.2707 271.795 36.5065 271.76 31.7288Z" fill="#FEFEFE"/>
<path fill-rule="evenodd" clip-rule="evenodd" d="M253.335 52.6424C251.28 51.9916 250.956 55.1916 253.257 55.236C254.243 55.3123 253.803 56.8127 253.203 57.524C251.526 60.3565 257.219 61.6834 255.438 57.296C255.009 53.0864 254.094 50.4116 259.689 52.5609C263.542 59.3271 267.083 47.7073 260.032 50.4299C259.354 49.6241 258.367 49.2678 257.073 49.3617C257.389 45.5106 252.738 46.4974 255.126 49.8195C254.951 51.5289 254.292 52.9451 253.335 52.6424Z" fill="#FEFEFE"/>
<path fill-rule="evenodd" clip-rule="evenodd" d="M278.677 37.7669C279.035 37.7669 279.325 38.458 279.325 39.3106C279.325 40.1632 279.035 40.8547 278.677 40.8547C278.32 40.8547 278.029 40.1632 278.029 39.3106C278.029 38.458 278.32 37.7669 278.677 37.7669Z" fill="#FEFEFE"/>
<path fill-rule="evenodd" clip-rule="evenodd" d="M284.598 36.7618C285.48 36.7618 286.194 37.4533 286.194 38.3059C286.194 39.1582 285.48 39.8497 284.598 39.8497C283.716 39.8497 283.002 39.1582 283.002 38.3059C283.002 37.4533 283.716 36.7618 284.598 36.7618Z" fill="#FEFEFE"/>
<path fill-rule="evenodd" clip-rule="evenodd" d="M245.334 60.2821C243.163 56.9517 241.498 61.7747 243.782 62.8698C244.61 65.2778 249.449 61.8666 245.334 60.2821Z" fill="#FEFEFE"/>
<path fill-rule="evenodd" clip-rule="evenodd" d="M233.483 65.3622C228.17 63.0945 230.237 70.4068 233.822 69.8372C236.795 72.0982 239.617 63.8596 233.483 65.3622Z" fill="#FEFEFE"/>
<path fill-rule="evenodd" clip-rule="evenodd" d="M243.062 69.6948C245.207 68.733 245.464 70.76 243.108 72.1804C236.688 73.6894 245.992 79.4154 245.373 71.9584C251.445 70.9821 251.626 66.0993 245.917 67.6973C238.788 59.8856 236.915 72.4021 243.062 69.6948Z" fill="#FEFEFE"/>
<path fill-rule="evenodd" clip-rule="evenodd" d="M251.641 65.9341C245.333 67.8995 246.774 62.6243 252.133 64.2655C259.956 62.1522 254.038 72.349 251.641 65.9341Z" fill="#FEFEFE"/>
<path fill-rule="evenodd" clip-rule="evenodd" d="M260.851 64.4225C261.143 64.719 261.6 61.8289 262.667 62.2957C269.687 56.0707 259.656 55.8629 260.533 61.3616C260.163 61.898 260.48 62.745 259.421 62.97C253.115 70.6793 262.273 72.2025 260.851 64.4225Z" fill="#FEFEFE"/>
<path fill-rule="evenodd" clip-rule="evenodd" d="M252.907 73.9824C255.177 73.8852 256.652 75.1516 257.332 77.7819C255.327 81.7923 261.973 80.2497 260.415 77.3921C260.525 73.0416 261.978 70.9611 265.934 73.1059C272.713 78.8046 271.338 59.3697 261.608 69.891C261.308 73.3197 259.046 74.5319 257.034 71.4497C254.65 69.1677 252.39 69.494 250.271 72.2776C244.835 72.3101 247.404 78.5288 252.907 73.9824Z" fill="#FEFEFE"/>
<path fill-rule="evenodd" clip-rule="evenodd" d="M267.166 81.0099C267.855 79.9738 268.296 78.8995 268.464 78.1822C270.138 78.2256 271.609 78.239 272.635 78.1871C277.934 81.9249 274.618 70.264 271.011 75.5272C269.883 76.791 268.309 77.093 266.533 76.9577C263.029 76.7353 262.51 80.2948 265.171 80.247C262.234 85.3162 270.745 84.0813 267.166 81.0099Z" fill="#FEFEFE"/>
<path fill-rule="evenodd" clip-rule="evenodd" d="M282.818 45.8967C287.864 42.4672 284.243 51.7449 281.025 50.498C279.573 48.7547 277.182 48.3925 274.363 48.6575C270.663 44.8931 267.56 53.5933 274.022 50.6654C278.079 50.0793 278.307 52.8678 276.072 54.179C274.335 59.6725 278.918 60.3139 280.341 55.8521C281.288 52.1991 282.242 51.8085 284.782 53.5096C286.063 60.6204 291.87 52.3385 287.6 51.7528C286.291 47.849 288.027 46.5938 291.956 46.4824C296.938 52.6454 298.589 38.981 291.016 42.8851C289.633 43.8129 286.509 44.5201 282.562 43.1359C275.081 40.6062 276.343 51.8335 282.818 45.8967Z" fill="#FEFEFE"/>
<path fill-rule="evenodd" clip-rule="evenodd" d="M284.008 62.4138C288.363 64.9638 290.754 64.8023 285.561 59.862C282.839 55.8218 276.748 64.5698 284.008 62.4138Z" fill="#FEFEFE"/>
<path fill-rule="evenodd" clip-rule="evenodd" d="M287.064 68.6463C288.383 68.0497 289.185 67.4442 289.569 66.5852C293.343 64.4913 287.698 61.4651 288.216 65.7999C287.381 65.8653 286.68 66.4544 286.112 67.5668C280.317 68.6627 287.548 73.5866 287.064 68.6463Z" fill="#FEFEFE"/>
<path fill-rule="evenodd" clip-rule="evenodd" d="M292.275 57.1476C291.579 53.8534 287.918 57.5008 291.194 58.4442C292.762 62.976 298.155 56.8811 292.275 57.1476Z" fill="#FEFEFE"/>
<path fill-rule="evenodd" clip-rule="evenodd" d="M297.256 54.7849C293.643 55.8319 298.048 59.4187 298.802 55.8244C303.716 53.7297 296.42 48.5117 297.256 54.7849Z" fill="#FEFEFE"/>
<path fill-rule="evenodd" clip-rule="evenodd" d="M306.775 55.2899C308.185 56.9379 309.119 53.7981 306.983 54.2388C304.698 52.1531 303.547 57.185 306.775 55.2899Z" fill="#FEFEFE"/>
<path fill-rule="evenodd" clip-rule="evenodd" d="M285.272 82.84C287.174 81.5303 289.252 81.2152 289.913 82.1365C290.575 83.0579 289.569 84.8674 287.667 86.1771C285.766 87.4869 283.687 87.802 283.026 86.8806C282.364 85.9592 283.37 84.1497 285.272 82.84Z" fill="#FEFEFE"/>
<path fill-rule="evenodd" clip-rule="evenodd" d="M294.08 67.3739C293.587 72.2021 298.502 72.3811 296.147 67.5006C297.454 65.391 295.609 63.2391 301.23 64.125C301.617 67.402 307.9 61.5653 302.996 60.8338C301.687 61.5885 300.639 61.4057 299.851 60.2855C300.367 58.0286 296.835 58.3762 296.277 61.5089C296.851 62.2617 296.018 62.8665 294.295 64.294C292.271 64.4625 291.237 66.3613 294.08 67.3739Z" fill="#FEFEFE"/>
<path fill-rule="evenodd" clip-rule="evenodd" d="M288.196 74.4949C291.352 69.3494 297.826 76.3327 289.538 76.2348C287.277 77.8017 284.014 75.9078 288.196 74.4949Z" fill="#FEFEFE"/>
<path fill-rule="evenodd" clip-rule="evenodd" d="M296.571 75.4462C293.575 77.3297 295.464 80.4332 299.297 77.7154C299.925 76.9798 300.445 77.0822 300.918 77.5655C299.556 82.3896 305.861 79.6751 304.265 77.4743C305.505 75.7437 306.993 75.349 308.729 76.2905C313.316 81.0267 318.425 72.7448 311.296 73.0181L311.239 69.7321C320.506 67.8195 316.198 61.8075 309.473 69.1857C307.768 65.921 306.063 64.5549 304.358 67.3638C300.67 69.6106 297.911 75.1367 305.474 69.3677C310.223 68.4063 306.836 75.7971 301.569 75.3796C300.235 74.5861 299.044 73.8908 296.571 75.4462Z" fill="#FEFEFE"/>
<path fill-rule="evenodd" clip-rule="evenodd" d="M317.912 70.7208C317.356 69.9691 317.433 69.232 318.083 69.0747C318.734 68.9177 319.712 69.3998 320.268 70.1515C320.824 70.9032 320.747 71.6403 320.097 71.7977C319.446 71.9547 318.468 71.4725 317.912 70.7208Z" fill="#FEFEFE"/>
<path fill-rule="evenodd" clip-rule="evenodd" d="M299.151 82.8485C302.251 85.4755 304.328 84.5949 305.939 82.1197C306.311 77.444 307.985 77.869 308.729 81.7556C309.875 80.3285 312.417 80.9964 311.053 83.7595C311.613 84.8771 312.672 85.6441 313.935 86.0365C318.306 85.4291 315.609 96.2076 312.262 88.3136C309.596 88.4654 309.069 87.0689 309.844 85.4901C308.589 83.5008 307.102 82.954 305.102 85.5813C302.499 86.8563 302.499 88.1316 305.102 89.4066C311.983 89.4978 304.172 105.347 303.708 91.5928C303.211 90.4692 301.724 90.196 299.244 90.7731C298.408 93.3537 291.992 93.4752 297.013 89.2245C297.013 87.9189 298.129 87.4636 300.36 87.8584C302.127 87.1295 302.127 85.2168 299.523 84.5792C290.752 85.8239 296.787 77.3565 299.151 82.8485Z" fill="#FEFEFE"/>
<path fill-rule="evenodd" clip-rule="evenodd" d="M316.58 81.0892C315.556 76.3242 319.6 75.2981 319.124 81.035C323.038 82.1836 322.107 84.9575 317.978 84.0103C316.49 85.0763 312.595 82.9144 316.58 81.0892Z" fill="#FEFEFE"/>
<path fill-rule="evenodd" clip-rule="evenodd" d="M326.14 81.2551C325.894 79.9129 326.781 79.0229 328.122 79.2681C329.464 79.5133 330.751 80.8006 330.998 82.1432C331.245 83.4855 330.357 84.3755 329.016 84.1303C327.674 83.8851 326.387 82.5977 326.14 81.2551Z" fill="#FEFEFE"/>
<path fill-rule="evenodd" clip-rule="evenodd" d="M316.579 96.6296C318.481 95.888 320.019 94.7865 320.759 92.8906C323.233 93.7638 326.286 94.9722 319.487 99.0326C311.945 99.1515 315.943 111.198 320.577 100.724C321.516 98.8846 323.182 99.0626 325.575 101.258C329.589 106.951 330.312 99.8957 328.938 99.2109C324.788 95.5019 325.454 94.1073 327.393 92.3565C329.846 91.2886 328.302 86.3034 325.212 89.6862C324.727 91.5555 323.637 92.0007 321.941 91.0213C319.913 88.7831 318.491 88.3996 318.402 92.0967C318.19 92.9766 316.946 94.1581 315.616 95.3206C309.872 94.0296 308.238 98.9889 316.579 96.6296Z" fill="#FEFEFE"/>
<path fill-rule="evenodd" clip-rule="evenodd" d="M332.845 109.715C334.026 106.57 328.211 104.67 330.119 111.228C331.391 116.51 337.389 111.287 332.845 109.715Z" fill="#FEFEFE"/>
<path d="M111.952 102.591L108.126 91.973L125.023 80.1057L133.63 123.515" stroke="#FEFEFE" stroke-width="2.66683" stroke-miterlimit="22.9256"/>
<path d="M132.674 136.007L123.748 139.442" stroke="#FEFEFE" stroke-width="2.66683" stroke-miterlimit="22.9256"/>
<path d="M119.37 98.6962C121.155 99.6251 122.096 101.262 123.101 103.269" stroke="#FEFEFE" stroke-width="2.66683" stroke-miterlimit="22.9256"/>
<path d="M125.342 110.086C127.68 115.187 128.105 121.953 124.704 127.575" stroke="#FEFEFE" stroke-width="2.66683" stroke-miterlimit="22.9256"/>
<path d="M137.456 75.7336L187.19 70.4244V131.635L138.094 136.319" stroke="#FEFEFE" stroke-width="2.66683" stroke-miterlimit="22.9256"/>
<path fill-rule="evenodd" clip-rule="evenodd" d="M165.563 79.2086C165.945 79.2086 166.256 79.5798 166.256 80.0377C166.256 80.4952 165.945 80.8664 165.563 80.8664C165.181 80.8664 164.871 80.4952 164.871 80.0377C164.871 79.5798 165.181 79.2086 165.563 79.2086Z" fill="#FEFEFE" stroke="#FEFEFE" stroke-width="0.288" stroke-miterlimit="22.9256"/>
<path fill-rule="evenodd" clip-rule="evenodd" d="M170.592 81.7534C171.143 81.7534 171.59 82.2883 171.59 82.9476C171.59 83.6074 171.143 84.1422 170.592 84.1422C170.041 84.1422 169.595 83.6074 169.595 82.9476C169.595 82.2883 170.041 81.7534 170.592 81.7534Z" fill="#FEFEFE" stroke="#FEFEFE" stroke-width="0.288" stroke-miterlimit="22.9256"/>
<path fill-rule="evenodd" clip-rule="evenodd" d="M173.912 87.2689C174.763 87.2689 175.453 88.0954 175.453 89.1147C175.453 90.134 174.763 90.96 173.912 90.96C173.061 90.96 172.371 90.134 172.371 89.1147C172.371 88.0954 173.061 87.2689 173.912 87.2689Z" fill="#FEFEFE" stroke="#FEFEFE" stroke-width="0.288" stroke-miterlimit="22.9256"/>
<path fill-rule="evenodd" clip-rule="evenodd" d="M175.917 93.6397C176.768 93.6397 177.458 94.4661 177.458 95.4851C177.458 96.5044 176.768 97.3308 175.917 97.3308C175.066 97.3308 174.375 96.5044 174.375 95.4851C174.375 94.4661 175.066 93.6397 175.917 93.6397Z" fill="#FEFEFE" stroke="#FEFEFE" stroke-width="0.288" stroke-miterlimit="22.9256"/>
<path fill-rule="evenodd" clip-rule="evenodd" d="M177.912 100.661C178.985 100.661 179.855 101.703 179.855 102.988C179.855 104.273 178.985 105.316 177.912 105.316C176.838 105.316 175.968 104.273 175.968 102.988C175.968 101.703 176.838 100.661 177.912 100.661Z" fill="#FEFEFE" stroke="#FEFEFE" stroke-width="0.288" stroke-miterlimit="22.9256"/>
<path fill-rule="evenodd" clip-rule="evenodd" d="M176.682 108.606C177.651 108.606 178.436 109.546 178.436 110.705C178.436 111.865 177.651 112.805 176.682 112.805C175.714 112.805 174.929 111.865 174.929 110.705C174.929 109.546 175.714 108.606 176.682 108.606Z" fill="#FEFEFE" stroke="#FEFEFE" stroke-width="0.288" stroke-miterlimit="22.9256"/>
<path fill-rule="evenodd" clip-rule="evenodd" d="M175.054 117.259C175.898 117.259 176.583 118.078 176.583 119.089C176.583 120.1 175.898 120.919 175.054 120.919C174.211 120.919 173.526 120.1 173.526 119.089C173.526 118.078 174.211 117.259 175.054 117.259Z" fill="#FEFEFE" stroke="#FEFEFE" stroke-width="0.288" stroke-miterlimit="22.9256"/>
<path fill-rule="evenodd" clip-rule="evenodd" d="M171.559 124.761C172.125 124.761 172.583 125.31 172.583 125.988C172.583 126.665 172.125 127.214 171.559 127.214C170.993 127.214 170.534 126.665 170.534 125.988C170.534 125.31 170.993 124.761 171.559 124.761Z" fill="#FEFEFE" stroke="#FEFEFE" stroke-width="0.288" stroke-miterlimit="22.9256"/>
<path fill-rule="evenodd" clip-rule="evenodd" d="M150.856 126.999C151.139 126.999 151.368 127.273 151.368 127.612C151.368 127.952 151.139 128.226 150.856 128.226C150.572 128.226 150.343 127.952 150.343 127.612C150.343 127.273 150.572 126.999 150.856 126.999Z" fill="#FEFEFE" stroke="#FEFEFE" stroke-width="0.288" stroke-miterlimit="22.9256"/>
<path fill-rule="evenodd" clip-rule="evenodd" d="M146.213 122.646C146.786 122.646 147.25 123.203 147.25 123.889C147.25 124.575 146.786 125.132 146.213 125.132C145.639 125.132 145.175 124.575 145.175 123.889C145.175 123.203 145.639 122.646 146.213 122.646Z" fill="#FEFEFE" stroke="#FEFEFE" stroke-width="0.288" stroke-miterlimit="22.9256"/>
<path fill-rule="evenodd" clip-rule="evenodd" d="M142.626 117.492C143.199 117.492 143.664 118.048 143.664 118.735C143.664 119.421 143.199 119.978 142.626 119.978C142.053 119.978 141.588 119.421 141.588 118.735C141.588 118.048 142.053 117.492 142.626 117.492Z" fill="#FEFEFE" stroke="#FEFEFE" stroke-width="0.288" stroke-miterlimit="22.9256"/>
<path fill-rule="evenodd" clip-rule="evenodd" d="M141.52 109.69C142.275 109.69 142.886 110.422 142.886 111.326C142.886 112.229 142.275 112.961 141.52 112.961C140.766 112.961 140.154 112.229 140.154 111.326C140.154 110.422 140.766 109.69 141.52 109.69Z" fill="#FEFEFE" stroke="#FEFEFE" stroke-width="0.288" stroke-miterlimit="22.9256"/>
<path fill-rule="evenodd" clip-rule="evenodd" d="M140.466 102.276C141.347 102.276 142.062 103.131 142.062 104.186C142.062 105.24 141.347 106.096 140.466 106.096C139.585 106.096 138.871 105.24 138.871 104.186C138.871 103.131 139.585 102.276 140.466 102.276Z" fill="#FEFEFE" stroke="#FEFEFE" stroke-width="0.288" stroke-miterlimit="22.9256"/>
<path fill-rule="evenodd" clip-rule="evenodd" d="M140.237 96.5459C140.971 96.5459 141.567 97.2587 141.567 98.1378C141.567 99.0174 140.971 99.7302 140.237 99.7302C139.503 99.7302 138.907 99.0174 138.907 98.1378C138.907 97.2587 139.503 96.5459 140.237 96.5459Z" fill="#FEFEFE" stroke="#FEFEFE" stroke-width="0.288" stroke-miterlimit="22.9256"/>
<path fill-rule="evenodd" clip-rule="evenodd" d="M141.033 89.2122C141.768 89.2122 142.363 89.9247 142.363 90.8042C142.363 91.6837 141.768 92.3965 141.033 92.3965C140.299 92.3965 139.703 91.6837 139.703 90.8042C139.703 89.9247 140.299 89.2122 141.033 89.2122Z" fill="#FEFEFE" stroke="#FEFEFE" stroke-width="0.288" stroke-miterlimit="22.9256"/>
<path fill-rule="evenodd" clip-rule="evenodd" d="M143.266 81.4099C144.21 81.4099 144.974 82.3252 144.974 83.4544C144.974 84.5836 144.21 85.499 143.266 85.499C142.324 85.499 141.559 84.5836 141.559 83.4544C141.559 82.3252 142.324 81.4099 143.266 81.4099Z" fill="#FEFEFE" stroke="#FEFEFE" stroke-width="0.288" stroke-miterlimit="22.9256"/>
<path fill-rule="evenodd" clip-rule="evenodd" d="M148.976 79.1074C149.447 79.1074 149.83 79.5652 149.83 80.1297C149.83 80.6944 149.447 81.152 148.976 81.152C148.504 81.152 148.122 80.6944 148.122 80.1297C148.122 79.5652 148.504 79.1074 148.976 79.1074Z" fill="#FEFEFE" stroke="#FEFEFE" stroke-width="0.288" stroke-miterlimit="22.9256"/>
<path fill-rule="evenodd" clip-rule="evenodd" d="M158.548 81.1299C165.672 81.1299 171.45 91.0808 171.45 103.35C171.45 115.62 165.672 125.57 158.548 125.57C151.424 125.57 145.646 115.62 145.646 103.35C145.646 91.0808 151.424 81.1299 158.548 81.1299Z" fill="#FEFEFE" stroke="#FEFEFE" stroke-width="0.288" stroke-miterlimit="22.9256"/>
<path d="M252.872 80.5057C234.869 75.6215 214.87 71.1375 193.411 69.583C193.305 90.2839 193.199 110.985 193.093 131.686C211.146 133.336 226.162 135.847 242.697 141.672L263.365 84.2506C262.618 82.3335 261.285 81.2798 259.549 80.8178" stroke="#FEFEFE" stroke-width="2.66683" stroke-miterlimit="22.9256"/>
<path fill-rule="evenodd" clip-rule="evenodd" d="M234.846 80.8081C235.285 80.8081 235.64 81.2959 235.64 81.8977C235.64 82.4987 235.285 82.9865 234.846 82.9865C234.408 82.9865 234.052 82.4987 234.052 81.8977C234.052 81.2959 234.408 80.8081 234.846 80.8081Z" fill="#FEFEFE" stroke="#FEFEFE" stroke-width="0.288" stroke-miterlimit="22.9256"/>
<path fill-rule="evenodd" clip-rule="evenodd" d="M239.038 83.5072C239.546 83.5072 239.958 84.072 239.958 84.7687C239.958 85.4654 239.546 86.0302 239.038 86.0302C238.53 86.0302 238.118 85.4654 238.118 84.7687C238.118 84.072 238.53 83.5072 239.038 83.5072Z" fill="#FEFEFE" stroke="#FEFEFE" stroke-width="0.288" stroke-miterlimit="22.9256"/>
<path fill-rule="evenodd" clip-rule="evenodd" d="M242.481 87.7209C243.058 87.7209 243.525 88.3623 243.525 89.1532C243.525 89.9437 243.058 90.5852 242.481 90.5852C241.905 90.5852 241.437 89.9437 241.437 89.1532C241.437 88.3623 241.905 87.7209 242.481 87.7209Z" fill="#FEFEFE" stroke="#FEFEFE" stroke-width="0.288" stroke-miterlimit="22.9256"/>
<path fill-rule="evenodd" clip-rule="evenodd" d="M244.601 93.2861C245.365 93.2861 245.984 94.1357 245.984 95.1834C245.984 96.2307 245.365 97.08 244.601 97.08C243.837 97.08 243.218 96.2307 243.218 95.1834C243.218 94.1357 243.837 93.2861 244.601 93.2861Z" fill="#FEFEFE" stroke="#FEFEFE" stroke-width="0.288" stroke-miterlimit="22.9256"/>
<path fill-rule="evenodd" clip-rule="evenodd" d="M244.143 100.666C244.966 100.666 245.634 101.582 245.634 102.711C245.634 103.84 244.966 104.756 244.143 104.756C243.32 104.756 242.652 103.84 242.652 102.711C242.652 101.582 243.32 100.666 244.143 100.666Z" fill="#FEFEFE" stroke="#FEFEFE" stroke-width="0.288" stroke-miterlimit="22.9256"/>
<path fill-rule="evenodd" clip-rule="evenodd" d="M242.739 107.688C243.779 107.688 244.623 108.844 244.623 110.27C244.623 111.697 243.779 112.854 242.739 112.854C241.699 112.854 240.856 111.697 240.856 110.27C240.856 108.844 241.699 107.688 242.739 107.688Z" fill="#FEFEFE" stroke="#FEFEFE" stroke-width="0.288" stroke-miterlimit="22.9256"/>
<path fill-rule="evenodd" clip-rule="evenodd" d="M239.287 116.11C240.153 116.11 240.855 117.074 240.855 118.262C240.855 119.45 240.153 120.413 239.287 120.413C238.42 120.413 237.718 119.45 237.718 118.262C237.718 117.074 238.42 116.11 239.287 116.11Z" fill="#FEFEFE" stroke="#FEFEFE" stroke-width="0.288" stroke-miterlimit="22.9256"/>
<path fill-rule="evenodd" clip-rule="evenodd" d="M235.197 122.749C235.913 122.749 236.494 123.546 236.494 124.528C236.494 125.511 235.913 126.308 235.197 126.308C234.48 126.308 233.9 125.511 233.9 124.528C233.9 123.546 234.48 122.749 235.197 122.749Z" fill="#FEFEFE" stroke="#FEFEFE" stroke-width="0.288" stroke-miterlimit="22.9256"/>
<path fill-rule="evenodd" clip-rule="evenodd" d="M230.56 126.763C231.276 126.763 231.857 127.56 231.857 128.543C231.857 129.525 231.276 130.322 230.56 130.322C229.844 130.322 229.262 129.525 229.262 128.543C229.262 127.56 229.844 126.763 230.56 126.763Z" fill="#FEFEFE" stroke="#FEFEFE" stroke-width="0.288" stroke-miterlimit="22.9256"/>
<path fill-rule="evenodd" clip-rule="evenodd" d="M224.437 128.29C225.101 128.29 225.639 129.028 225.639 129.939C225.639 130.849 225.101 131.587 224.437 131.587C223.773 131.587 223.235 130.849 223.235 129.939C223.235 129.028 223.773 128.29 224.437 128.29Z" fill="#FEFEFE" stroke="#FEFEFE" stroke-width="0.288" stroke-miterlimit="22.9256"/>
<path fill-rule="evenodd" clip-rule="evenodd" d="M217.65 126.726C218.462 126.726 219.12 127.628 219.12 128.741C219.12 129.854 218.462 130.758 217.65 130.758C216.838 130.758 216.18 129.854 216.18 128.741C216.18 127.628 216.838 126.726 217.65 126.726Z" fill="#FEFEFE" stroke="#FEFEFE" stroke-width="0.288" stroke-miterlimit="22.9256"/>
<path fill-rule="evenodd" clip-rule="evenodd" d="M212.149 125.25C212.827 125.25 213.377 126.004 213.377 126.934C213.377 127.864 212.827 128.619 212.149 128.619C211.471 128.619 210.922 127.864 210.922 126.934C210.922 126.004 211.471 125.25 212.149 125.25Z" fill="#FEFEFE" stroke="#FEFEFE" stroke-width="0.288" stroke-miterlimit="22.9256"/>
<path fill-rule="evenodd" clip-rule="evenodd" d="M208.129 119.421C208.875 119.421 209.48 120.252 209.48 121.275C209.48 122.299 208.875 123.13 208.129 123.13C207.382 123.13 206.776 122.299 206.776 121.275C206.776 120.252 207.382 119.421 208.129 119.421Z" fill="#FEFEFE" stroke="#FEFEFE" stroke-width="0.288" stroke-miterlimit="22.9256"/>
<path fill-rule="evenodd" clip-rule="evenodd" d="M206.02 113.318C206.885 113.318 207.587 114.281 207.587 115.468C207.587 116.656 206.885 117.619 206.02 117.619C205.154 117.619 204.452 116.656 204.452 115.468C204.452 114.281 205.154 113.318 206.02 113.318Z" fill="#FEFEFE" stroke="#FEFEFE" stroke-width="0.288" stroke-miterlimit="22.9256"/>
<path fill-rule="evenodd" clip-rule="evenodd" d="M206.106 106.823C206.971 106.823 207.673 107.786 207.673 108.973C207.673 110.161 206.971 111.124 206.106 111.124C205.24 111.124 204.538 110.161 204.538 108.973C204.538 107.786 205.24 106.823 206.106 106.823Z" fill="#FEFEFE" stroke="#FEFEFE" stroke-width="0.288" stroke-miterlimit="22.9256"/>
<path fill-rule="evenodd" clip-rule="evenodd" d="M207.237 100.748C207.971 100.748 208.567 101.565 208.567 102.572C208.567 103.579 207.971 104.395 207.237 104.395C206.503 104.395 205.907 103.579 205.907 102.572C205.907 101.565 206.503 100.748 207.237 100.748Z" fill="#FEFEFE" stroke="#FEFEFE" stroke-width="0.288" stroke-miterlimit="22.9256"/>
<path fill-rule="evenodd" clip-rule="evenodd" d="M209.464 94.4975C210.198 94.4975 210.794 95.3139 210.794 96.3208C210.794 97.3278 210.198 98.1449 209.464 98.1449C208.729 98.1449 208.134 97.3278 208.134 96.3208C208.134 95.3139 208.729 94.4975 209.464 94.4975Z" fill="#FEFEFE" stroke="#FEFEFE" stroke-width="0.288" stroke-miterlimit="22.9256"/>
<path fill-rule="evenodd" clip-rule="evenodd" d="M212.305 88.2554C213.04 88.2554 213.635 89.0721 213.635 90.0791C213.635 91.086 213.04 91.9028 212.305 91.9028C211.571 91.9028 210.976 91.086 210.976 90.0791C210.976 89.0721 211.571 88.2554 212.305 88.2554Z" fill="#FEFEFE" stroke="#FEFEFE" stroke-width="0.288" stroke-miterlimit="22.9256"/>
<path fill-rule="evenodd" clip-rule="evenodd" d="M216.266 82.0135C217.001 82.0135 217.596 82.8303 217.596 83.8372C217.596 84.8442 217.001 85.6609 216.266 85.6609C215.532 85.6609 214.936 84.8442 214.936 83.8372C214.936 82.8303 215.532 82.0135 216.266 82.0135Z" fill="#FEFEFE" stroke="#FEFEFE" stroke-width="0.288" stroke-miterlimit="22.9256"/>
<path fill-rule="evenodd" clip-rule="evenodd" d="M222.359 79.147C222.984 79.147 223.492 79.8433 223.492 80.7015C223.492 81.5597 222.984 82.2561 222.359 82.2561C221.733 82.2561 221.225 81.5597 221.225 80.7015C221.225 79.8433 221.733 79.147 222.359 79.147Z" fill="#FEFEFE" stroke="#FEFEFE" stroke-width="0.288" stroke-miterlimit="22.9256"/>
<path fill-rule="evenodd" clip-rule="evenodd" d="M294.974 101.751C295.331 101.751 295.619 102.147 295.619 102.636C295.619 103.125 295.331 103.521 294.974 103.521C294.618 103.521 294.329 103.125 294.329 102.636C294.329 102.147 294.618 101.751 294.974 101.751Z" fill="#FEFEFE" stroke="#FEFEFE" stroke-width="0.288" stroke-miterlimit="22.9256"/>
<path fill-rule="evenodd" clip-rule="evenodd" d="M298.179 105.373C298.688 105.373 299.1 105.938 299.1 106.636C299.1 107.334 298.688 107.899 298.179 107.899C297.671 107.899 297.258 107.334 297.258 106.636C297.258 105.938 297.671 105.373 298.179 105.373Z" fill="#FEFEFE" stroke="#FEFEFE" stroke-width="0.288" stroke-miterlimit="22.9256"/>
<path fill-rule="evenodd" clip-rule="evenodd" d="M299.796 111.015C300.403 111.015 300.895 111.689 300.895 112.522C300.895 113.353 300.403 114.028 299.796 114.028C299.19 114.028 298.697 113.353 298.697 112.522C298.697 111.689 299.19 111.015 299.796 111.015Z" fill="#FEFEFE" stroke="#FEFEFE" stroke-width="0.288" stroke-miterlimit="22.9256"/>
<path fill-rule="evenodd" clip-rule="evenodd" d="M300.088 117.447C300.832 117.447 301.435 118.275 301.435 119.295C301.435 120.315 300.832 121.143 300.088 121.143C299.344 121.143 298.741 120.315 298.741 119.295C298.741 118.275 299.344 117.447 300.088 117.447Z" fill="#FEFEFE" stroke="#FEFEFE" stroke-width="0.288" stroke-miterlimit="22.9256"/>
<path fill-rule="evenodd" clip-rule="evenodd" d="M296.813 125.096C297.713 125.096 298.444 126.098 298.444 127.333C298.444 128.569 297.713 129.57 296.813 129.57C295.912 129.57 295.181 128.569 295.181 127.333C295.181 126.098 295.912 125.096 296.813 125.096Z" fill="#FEFEFE" stroke="#FEFEFE" stroke-width="0.288" stroke-miterlimit="22.9256"/>
<path fill-rule="evenodd" clip-rule="evenodd" d="M292.516 133.353C293.416 133.353 294.147 134.355 294.147 135.591C294.147 136.826 293.416 137.828 292.516 137.828C291.615 137.828 290.885 136.826 290.885 135.591C290.885 134.355 291.615 133.353 292.516 133.353Z" fill="#FEFEFE" stroke="#FEFEFE" stroke-width="0.288" stroke-miterlimit="22.9256"/>
<path fill-rule="evenodd" clip-rule="evenodd" d="M287.898 140.853C288.655 140.853 289.269 141.695 289.269 142.734C289.269 143.772 288.655 144.614 287.898 144.614C287.141 144.614 286.527 143.772 286.527 142.734C286.527 141.695 287.141 140.853 287.898 140.853Z" fill="#FEFEFE" stroke="#FEFEFE" stroke-width="0.288" stroke-miterlimit="22.9256"/>
<path fill-rule="evenodd" clip-rule="evenodd" d="M280.784 144.874C281.541 144.874 282.155 145.716 282.155 146.755C282.155 147.793 281.541 148.635 280.784 148.635C280.027 148.635 279.413 147.793 279.413 146.755C279.413 145.716 280.027 144.874 280.784 144.874Z" fill="#FEFEFE" stroke="#FEFEFE" stroke-width="0.288" stroke-miterlimit="22.9256"/>
<path fill-rule="evenodd" clip-rule="evenodd" d="M263.948 135.737C264.539 135.737 265.019 136.395 265.019 137.206C265.019 138.017 264.539 138.675 263.948 138.675C263.356 138.675 262.877 138.017 262.877 137.206C262.877 136.395 263.356 135.737 263.948 135.737Z" fill="#FEFEFE" stroke="#FEFEFE" stroke-width="0.288" stroke-miterlimit="22.9256"/>
<path fill-rule="evenodd" clip-rule="evenodd" d="M263.832 129.415C264.502 129.415 265.045 130.161 265.045 131.08C265.045 131.999 264.502 132.745 263.832 132.745C263.161 132.745 262.618 131.999 262.618 131.08C262.618 130.161 263.161 129.415 263.832 129.415Z" fill="#FEFEFE" stroke="#FEFEFE" stroke-width="0.288" stroke-miterlimit="22.9256"/>
<path fill-rule="evenodd" clip-rule="evenodd" d="M264.918 123.856C265.588 123.856 266.132 124.602 266.132 125.521C266.132 126.44 265.588 127.186 264.918 127.186C264.248 127.186 263.704 126.44 263.704 125.521C263.704 124.602 264.248 123.856 264.918 123.856Z" fill="#FEFEFE" stroke="#FEFEFE" stroke-width="0.288" stroke-miterlimit="22.9256"/>
<path fill-rule="evenodd" clip-rule="evenodd" d="M267.823 116.633C268.493 116.633 269.037 117.378 269.037 118.297C269.037 119.217 268.493 119.962 267.823 119.962C267.152 119.962 266.609 119.217 266.609 118.297C266.609 117.378 267.152 116.633 267.823 116.633Z" fill="#FEFEFE" stroke="#FEFEFE" stroke-width="0.288" stroke-miterlimit="22.9256"/>
<path fill-rule="evenodd" clip-rule="evenodd" d="M271.614 110.066C272.412 110.066 273.059 110.953 273.059 112.047C273.059 113.141 272.412 114.028 271.614 114.028C270.816 114.028 270.169 113.141 270.169 112.047C270.169 110.953 270.816 110.066 271.614 110.066Z" fill="#FEFEFE" stroke="#FEFEFE" stroke-width="0.288" stroke-miterlimit="22.9256"/>
<path fill-rule="evenodd" clip-rule="evenodd" d="M276.311 103.619C277.173 103.619 277.871 104.578 277.871 105.759C277.871 106.941 277.173 107.899 276.311 107.899C275.449 107.899 274.751 106.941 274.751 105.759C274.751 104.578 275.449 103.619 276.311 103.619Z" fill="#FEFEFE" stroke="#FEFEFE" stroke-width="0.288" stroke-miterlimit="22.9256"/>
<path fill-rule="evenodd" clip-rule="evenodd" d="M281.077 98.8263C281.792 98.8263 282.372 99.6214 282.372 100.602C282.372 101.582 281.792 102.378 281.077 102.378C280.362 102.378 279.782 101.582 279.782 100.602C279.782 99.6214 280.362 98.8263 281.077 98.8263Z" fill="#FEFEFE" stroke="#FEFEFE" stroke-width="0.288" stroke-miterlimit="22.9256"/>
<path fill-rule="evenodd" clip-rule="evenodd" d="M288.213 99.569C288.526 99.569 288.781 99.9178 288.781 100.347C288.781 100.777 288.526 101.125 288.213 101.125C287.9 101.125 287.645 100.777 287.645 100.347C287.645 99.9178 287.9 99.569 288.213 99.569Z" fill="#FEFEFE" stroke="#FEFEFE" stroke-width="0.288" stroke-miterlimit="22.9256"/>
<path fill-rule="evenodd" clip-rule="evenodd" d="M290.896 103.842C295.263 106.316 294.845 117.006 289.961 127.715C285.077 138.423 277.575 145.102 273.208 142.628C268.84 140.155 269.259 129.465 274.142 118.756C279.026 108.047 286.529 101.369 290.896 103.842Z" fill="#FEFEFE" stroke="#FEFEFE" stroke-width="0.288" stroke-miterlimit="22.9256"/>
<path d="M163.811 98.2937C167.05 101.102 166.646 111.049 164.289 113.586" stroke="#040404" stroke-width="2.66683" stroke-miterlimit="22.9256"/>
<path d="M158.395 85.3428C144.226 86.854 146.213 125.132 163.493 121.231" stroke="#040404" stroke-width="2.66683" stroke-miterlimit="22.9256"/>
<path fill-rule="evenodd" clip-rule="evenodd" d="M226.298 83.3651C233.704 81.6091 239.198 89.4918 238.566 100.969C237.934 112.446 231.415 123.177 224.009 124.933C216.603 126.689 211.109 118.807 211.741 107.329C212.373 95.8521 218.892 85.1208 226.298 83.3651Z" fill="#FEFEFE" stroke="#FEFEFE" stroke-width="0.288" stroke-miterlimit="22.9256"/>
<path d="M229.4 87.1071C216.266 85.6609 208.128 123.13 224.238 122.138" stroke="#040404" stroke-width="2.66683" stroke-miterlimit="22.9256"/>
<path d="M233.824 100.108C235.823 102.963 233.131 113.472 229.768 114.193" stroke="#040404" stroke-width="2.66683" stroke-miterlimit="22.9256"/>
<path d="M287.853 108.797C296.189 109.848 284.291 140.5 274.924 137.292" stroke="#040404" stroke-width="2.66683" stroke-miterlimit="22.9256"/>
<path d="M278.858 117.638C276.882 117.37 273.677 124.726 275.258 125.983" stroke="#040404" stroke-width="2.66683" stroke-miterlimit="22.9256"/>
<path d="M307.293 101.337L268.137 85.354L249.582 143.237C264.117 146.724 278.311 151.435 290.537 158.427L316.489 105.986" stroke="#FEFEFE" stroke-width="2.66683" stroke-miterlimit="22.9256"/>
<path fill-rule="evenodd" clip-rule="evenodd" d="M211.313 433.659C212.26 433.659 213.027 434.411 213.027 435.338C213.027 436.265 212.26 437.017 211.313 437.017C210.368 437.017 209.6 436.265 209.6 435.338C209.6 434.411 210.368 433.659 211.313 433.659Z" fill="black" stroke="black" stroke-width="2.66683" stroke-miterlimit="22.9256"/>
<path fill-rule="evenodd" clip-rule="evenodd" d="M215.578 433.839C216.524 433.839 217.292 434.59 217.292 435.517C217.292 436.444 216.524 437.196 215.578 437.196C214.632 437.196 213.864 436.444 213.864 435.517C213.864 434.59 214.632 433.839 215.578 433.839Z" fill="black" stroke="black" stroke-width="2.66683" stroke-miterlimit="22.9256"/>
<path fill-rule="evenodd" clip-rule="evenodd" d="M219.891 433.988C220.837 433.988 221.604 434.74 221.604 435.667C221.604 436.594 220.837 437.346 219.891 437.346C218.944 437.346 218.177 436.594 218.177 435.667C218.177 434.74 218.944 433.988 219.891 433.988Z" fill="black" stroke="black" stroke-width="2.66683" stroke-miterlimit="22.9256"/>
<path fill-rule="evenodd" clip-rule="evenodd" d="M224.503 433.17C225.734 433.17 226.733 434.149 226.733 435.354C226.733 436.561 225.734 437.538 224.503 437.538C223.272 437.538 222.273 436.561 222.273 435.354C222.273 434.149 223.272 433.17 224.503 433.17Z" fill="black" stroke="black" stroke-width="2.66683" stroke-miterlimit="22.9256"/>
<path fill-rule="evenodd" clip-rule="evenodd" d="M230.158 433.207C231.389 433.207 232.388 434.185 232.388 435.391C232.388 436.597 231.389 437.575 230.158 437.575C228.927 437.575 227.929 436.597 227.929 435.391C227.929 434.185 228.927 433.207 230.158 433.207Z" fill="black" stroke="black" stroke-width="2.66683" stroke-miterlimit="22.9256"/>
<path fill-rule="evenodd" clip-rule="evenodd" d="M236.518 432.764C237.748 432.764 238.747 433.742 238.747 434.948C238.747 436.154 237.748 437.132 236.518 437.132C235.286 437.132 234.288 436.154 234.288 434.948C234.288 433.742 235.286 432.764 236.518 432.764Z" fill="black" stroke="black" stroke-width="2.66683" stroke-miterlimit="22.9256"/>
<path fill-rule="evenodd" clip-rule="evenodd" d="M244.075 431.228C245.418 431.228 246.508 432.295 246.508 433.611C246.508 434.928 245.418 435.995 244.075 435.995C242.731 435.995 241.642 434.928 241.642 433.611C241.642 432.295 242.731 431.228 244.075 431.228Z" fill="black" stroke="black" stroke-width="2.66683" stroke-miterlimit="22.9256"/>
<path fill-rule="evenodd" clip-rule="evenodd" d="M251.735 429.236C253.078 429.236 254.168 430.303 254.168 431.619C254.168 432.935 253.078 434.002 251.735 434.002C250.391 434.002 249.302 432.935 249.302 431.619C249.302 430.303 250.391 429.236 251.735 429.236Z" fill="black" stroke="black" stroke-width="2.66683" stroke-miterlimit="22.9256"/>
<path fill-rule="evenodd" clip-rule="evenodd" d="M164.903 429.036C165.853 428.862 166.768 429.476 166.946 430.407C167.123 431.339 166.496 432.234 165.546 432.408C164.595 432.582 163.681 431.968 163.503 431.037C163.326 430.106 163.953 429.21 164.903 429.036Z" fill="black" stroke="black" stroke-width="2.66683" stroke-miterlimit="22.9256"/>
<path fill-rule="evenodd" clip-rule="evenodd" d="M170.111 430.506C171.061 430.332 171.976 430.946 172.154 431.877C172.331 432.808 171.704 433.705 170.754 433.878C169.804 434.052 168.889 433.438 168.711 432.507C168.534 431.576 169.16 430.68 170.111 430.506Z" fill="black" stroke="black" stroke-width="2.66683" stroke-miterlimit="22.9256"/>
<path fill-rule="evenodd" clip-rule="evenodd" d="M176.537 432.06C177.617 431.863 178.656 432.56 178.858 433.618C179.06 434.676 178.347 435.694 177.268 435.892C176.188 436.089 175.149 435.391 174.947 434.334C174.745 433.276 175.457 432.258 176.537 432.06Z" fill="black" stroke="black" stroke-width="2.66683" stroke-miterlimit="22.9256"/>
<path fill-rule="evenodd" clip-rule="evenodd" d="M303.963 436.88L309.439 430.339C324.844 449.972 335.867 469.994 316.26 476.427C318.577 452.399 309.4 445.955 303.963 436.88Z" fill="#ED3237"/>
<path d="M165.321 221.273C164.112 221.082 163.154 220.821 161.521 220.376C167.073 217.136 171.016 217.28 175.673 220.434C175.274 220.99 174.87 221.553 174.966 221.418C171.435 221.337 168.503 221.27 165.321 221.273Z" fill="#131313"/>
<defs>
<filter id="filter0_d_169_2" x="86.0133" y="162.996" width="43.2734" height="22.4277" filterUnits="userSpaceOnUse" color-interpolation-filters="sRGB">
<feFlood flood-opacity="0" result="BackgroundImageFix"/>
<feColorMatrix in="SourceAlpha" type="matrix" values="0 0 0 0 0 0 0 0 0 0 0 0 0 0 0 0 0 0 127 0" result="hardAlpha"/>
<feOffset dy="4"/>
<feGaussianBlur stdDeviation="2"/>
<feComposite in2="hardAlpha" operator="out"/>
<feColorMatrix type="matrix" values="0 0 0 0 0 0 0 0 0 0 0 0 0 0 0 0 0 0 0.25 0"/>
<feBlend mode="normal" in2="BackgroundImageFix" result="effect1_dropShadow_169_2"/>
<feBlend mode="normal" in="SourceGraphic" in2="effect1_dropShadow_169_2" result="shape"/>
</filter>
</defs>
</svg>
