<svg width="258" height="151" viewBox="0 0 258 151" fill="none" xmlns="http://www.w3.org/2000/svg">
<path d="M169.858 143.614C167.817 132.712 165.776 121.809 163.627 110.419C163.243 108.795 162.966 107.658 162.689 106.522C162.573 106.557 162.457 106.591 162.341 106.625C162.425 107.907 162.509 109.189 162.592 110.471C162.539 115.445 162.486 120.42 162.433 125.944C162.491 126.815 162.547 127.136 162.604 127.458C162.604 134.845 162.604 142.232 162.604 149.772C158.775 149.772 155.472 149.772 152 149.772C152 121.173 152 92.6846 152 64C156.647 64 161.279 64 166.285 64C168.135 73.7589 170.02 83.7037 171.967 94.1904C172.48 96.7771 172.932 98.8218 173.536 101.553C173.536 98.5797 173.536 96.3767 173.536 94.1738C173.536 84.1818 173.536 74.1897 173.536 64.0029C177.166 64.0029 180.469 64.0029 184 64.0029C184 92.4883 184 121.029 184 149.927C180.157 149.927 176.311 150.184 172.528 149.733C171.665 149.63 171.017 147.082 170.211 145.207C170.054 144.374 169.956 143.994 169.858 143.614Z" fill="white"/>
<path d="M218.156 70.6996C218.759 74.7353 219.833 78.7633 219.882 82.8082C220.08 99.2724 219.971 115.742 219.961 132.209C219.958 136.542 219.384 140.701 217.001 144.244C214.601 147.812 211.402 149.768 207.584 149.901C202.129 150.091 196.667 149.949 191 149.949C191 121.188 191 92.582 191 64.1093C197.326 64.1093 203.771 63.7633 210.161 64.3024C212.313 64.4841 214.327 66.9133 216.658 68.6252C217.327 69.5232 217.742 70.1114 218.156 70.6996ZM203.545 92.2275C203.545 107.706 203.545 123.184 203.545 138.874C206.855 138.492 207.141 135.963 207.144 133.244C207.155 122.826 207.147 112.407 207.147 101.988C207.147 94.6479 207.175 87.3073 207.132 79.9672C207.116 77.3802 206.78 74.9267 203.545 74.8135C203.545 80.4541 203.545 85.9853 203.545 92.2275Z" fill="white"/>
<path d="M53.7992 109.346C53.7992 122.739 53.7992 136.132 53.7992 149.689C49.3613 149.689 45.2965 149.689 41 149.689C41 120.914 41 92.1372 41 63.1561C46.8683 63.1561 52.7135 62.7447 58.4976 63.2577C66.1619 63.9374 70.1797 69.4652 70.2869 78.4122C70.3182 81.0261 70.1982 83.6465 70.3144 86.254C70.6306 93.3513 68.9892 99.2065 62.5119 102.458C68.8073 105.377 70.3314 110.953 70.3468 117.717C70.3663 126.26 70.6027 134.805 70.8854 143.343C70.9545 145.43 71.5683 147.493 72 149.957C68.2761 149.957 64.536 150.114 60.8212 149.828C60.0531 149.769 58.8655 148.139 58.7491 147.101C58.1698 141.931 57.6805 136.724 57.548 131.517C57.3971 125.584 57.665 119.638 57.7336 113.697C57.7627 111.187 57.5073 108.854 54.3438 108.41C53.8653 108.753 53.8322 109.049 53.7992 109.346ZM57.6056 77.5808C57.1595 75.2376 55.9438 74.1659 53.8248 74.4812C53.8248 82.2064 53.8248 89.8756 53.8248 97.5899C56.7774 97.6022 57.7433 95.622 57.7615 92.7872C57.7929 87.9207 57.7294 83.0534 57.6056 77.5808Z" fill="white"/>
<path d="M107.99 78.8037C107.992 97.6424 108.014 116.123 107.985 134.604C107.972 142.772 105.316 147.867 99.8054 150.168C98.974 150.515 97.7823 151 96.871 151C93.9677 151 93.2419 151 91.0645 151C89.6129 151 88.4032 150.731 87.3429 150.604C81.2902 148.691 78.114 144.324 78.0805 137.362C77.9645 113.279 78.0097 89.1939 78.0043 65.1095C78.0042 64.7827 78.1449 64.4558 78.2495 64C82.334 64 86.3859 64 90.8579 64C90.8579 65.318 90.8578 66.5818 90.8579 67.8456C90.8594 90.0227 90.8604 112.2 90.8639 134.377C90.864 135.33 90.6453 136.417 90.9635 137.202C91.3308 138.108 92.1705 139.33 92.8245 139.347C93.5425 139.364 94.5476 138.325 94.9379 137.449C95.3206 136.591 95.1198 135.359 95.1201 134.291C95.127 112.233 95.1261 90.1749 95.1267 68.117C95.1268 66.8238 95.1268 65.5307 95.1268 64.0431C99.3864 64.0431 103.44 64.0431 107.99 64.0431C107.99 68.7915 107.99 73.6188 107.99 78.8037Z" fill="white"/>
<path d="M242.338 127.063C241.062 127.021 239.787 126.98 238.048 126.963C237.461 127.203 237.338 127.419 237.216 127.636C236.414 134.996 235.611 142.356 234.784 149.941C230.602 149.941 226.438 149.941 222 149.941C225.25 121.213 228.478 92.6796 231.722 64C237.215 64 242.553 64 248.254 64C251.491 92.5664 254.733 121.176 258 150C253.602 150 249.505 150 245.135 150C244.413 142.682 243.699 135.446 242.937 127.731C242.705 127.189 242.522 127.126 242.338 127.063ZM241.121 105.145C240.839 101.499 240.558 97.8531 240.277 94.2071C240.001 94.2613 239.725 94.3155 239.449 94.3697C239.057 101.117 238.666 107.864 238.266 114.754C239.51 114.754 240.562 114.754 241.841 114.754C241.6 111.619 241.375 108.71 241.121 105.145Z" fill="white"/>
<path d="M132.338 127.063C131.062 127.021 129.787 126.98 128.048 126.963C127.461 127.203 127.338 127.419 127.216 127.636C126.414 134.996 125.611 142.356 124.784 149.941C120.602 149.941 116.438 149.941 112 149.941C115.25 121.213 118.478 92.6796 121.722 64C127.215 64 132.553 64 138.254 64C141.491 92.5664 144.733 121.176 148 150C143.602 150 139.505 150 135.135 150C134.413 142.682 133.699 135.446 132.937 127.731C132.705 127.189 132.522 127.126 132.338 127.063ZM131.121 105.145C130.839 101.499 130.558 97.8531 130.277 94.2071C130.001 94.2613 129.725 94.3155 129.449 94.3697C129.057 101.117 128.666 107.864 128.266 114.754C129.51 114.754 130.562 114.754 131.841 114.754C131.6 111.619 131.375 108.71 131.121 105.145Z" fill="white"/>
<path d="M20.4114 127.079C18.6835 127.079 16.9556 127.079 15.0818 127.079C14.3421 134.736 13.6181 142.23 12.8732 149.94C8.6219 149.94 4.44309 149.94 0 149.94C3.24108 121.275 6.46874 92.7292 9.71709 64C15.2093 64 20.5396 64 26.2515 64C29.4839 92.5159 32.7301 121.153 36 150C31.6151 150 27.516 150 23.1183 150C22.4138 142.706 21.7144 135.465 20.9751 127.742C20.8171 126.987 20.6425 126.927 20.4114 127.079ZM18.5015 95.5674C18.4338 94.6171 18.3661 93.6667 18.2984 92.7164C18.1097 92.7121 17.921 92.7079 17.7323 92.7037C17.2122 100.026 16.6922 107.349 16.1681 114.728C17.5575 114.728 18.6205 114.728 19.8364 114.728C19.3892 108.379 18.9591 102.272 18.5015 95.5674Z" fill="white"/>
<path d="M98.2177 33.5379C101.341 38.1446 104.465 42.7514 108 47.9659C103.864 47.9659 100.402 48.0837 96.9538 47.8814C96.1122 47.832 95.146 46.9025 94.5307 46.087C91.7021 42.3379 88.8342 38.6082 86.2513 34.6403C82.928 29.5349 78.6557 27.7021 73.0532 28.8745C73.0532 35.016 73.0532 41.2337 73.0532 47.7098C69.6019 47.7098 66.3758 47.7098 63 47.7098C63 32.4373 63 17.1369 63 2.17109C73.3045 2.17109 83.5781 1.6859 93.7948 2.34963C100.114 2.76017 103.705 7.79468 103.879 13.9673C104.057 20.3301 100.933 24.5772 94.5995 26.557C93.6094 26.8665 92.6055 27.1182 91.431 27.446C93.2638 29.0315 95.0334 30.5624 97.0663 32.3907C97.6257 32.9714 97.9217 33.2546 98.2177 33.5379ZM84.781 20.9941C86.1192 20.9144 87.4712 20.9468 88.7928 20.7323C91.6821 20.2633 93.4238 18.1099 93.4542 15.1526C93.4839 12.255 91.736 9.7584 88.8328 9.6063C83.6256 9.3335 78.3997 9.52936 73.1641 9.52936C73.1641 13.4756 73.1641 17.1696 73.1641 21.0184C76.9853 21.0184 80.5826 21.0184 84.781 20.9941Z" fill="white"/>
<path d="M42.2032 30.2174C38.7832 30.2174 35.3632 30.2174 31.7159 30.2174C31.7159 27.5588 31.7159 25.1857 31.7159 22.3066C35.1395 22.3066 38.62 22.3066 42.1006 22.3066C45.6112 22.3066 49.1218 22.3066 52.9857 22.3066C52.9857 28.2396 53.0471 33.931 52.9154 39.6163C52.8969 40.4121 52.0714 41.4799 51.382 41.9131C41.0366 48.4133 30.2089 50.0613 19.1021 45.128C11.0234 41.5397 6.82352 33.3444 7.00568 23.0103C7.1751 13.3989 12.0311 5.49289 20.3003 2.1734C27.6522 -0.777885 35.1986 -0.654357 42.5684 2.12405C47.2819 3.90102 50.7273 7.53851 52.1975 13.691C49.3521 14.2173 46.6283 14.8266 43.8797 15.1519C43.2319 15.2286 42.2721 14.5456 41.8429 13.8775C38.4037 8.52388 32.4762 6.68209 25.7434 9.00763C20.4337 10.8417 17.4861 15.4832 17.2672 22.3552C16.8694 34.8421 24.1034 41.9772 34.7561 39.5692C36.0345 39.2803 37.2741 38.766 38.5387 38.3881C41.7269 37.4354 43.7607 35.5587 42.7777 30.7996C42.7177 30.3283 42.488 30.1004 42.488 30.1004L42.2032 30.2174Z" fill="white"/>
<path d="M217.122 4.98794C225.658 -0.81024 234.776 -1.18265 243.995 1.96835C253.251 5.13192 258.07 13.3028 257.999 24.5119C257.932 35.1105 252.846 42.9681 243.816 46.202C237.348 48.5183 230.759 48.5574 224.261 46.5457C216.901 44.2669 211.435 39.2846 209.733 30.5569C207.912 21.2192 209.252 12.6292 216.38 5.81028C216.789 5.37319 216.955 5.18056 217.122 4.98794ZM237.785 39.3278C241.379 38.3387 244.202 36.1482 245.908 32.3797C251.554 19.9113 244.757 7.69699 232.464 8.17535C224.966 8.46709 220.189 13.6526 219.597 22.1415C218.951 31.3952 222.89 38.0671 230.207 39.5595C232.491 40.0255 234.924 39.5588 237.785 39.3278Z" fill="white"/>
<path d="M143.041 27.9675C143.045 18.8595 143.045 10.0951 143.045 1.05791C146.317 1.05791 149.464 1.05791 152.997 1.05791C152.997 9.27538 153.009 17.5308 152.987 25.7861C152.982 27.682 152.882 29.5788 152.792 31.473C152.327 41.206 149.29 46.0893 141.116 47.455C135.648 48.3687 129.85 48.0713 124.377 47.0259C118.034 45.8143 114.373 40.4015 114.157 32.8139C113.856 22.2912 114.081 11.7476 114.081 1C117.152 1 120.227 1 123.733 1C123.733 1.98735 123.731 3.11505 123.733 4.24275C123.749 12.9003 123.761 21.5578 123.783 30.2153C123.795 34.4903 124.98 38.0906 128.738 39.3345C133.075 40.7702 137.836 41.646 141.141 37.263C142.677 35.2258 142.46 31.3522 143.041 27.9675Z" fill="white"/>
<path d="M165 24.359C165 16.3791 165 8.75287 165 1.17161C174.066 1.17161 182.913 0.700746 191.702 1.31894C198.877 1.82359 203.128 7.86923 202.997 15.5909C202.873 22.9053 197.813 28.6852 190.531 29.2145C185.471 29.5824 180.375 29.2853 175.032 29.2853C175.032 35.5916 175.032 41.1901 175.032 47C171.659 47 168.548 47 165 47C165 39.671 165 32.1918 165 24.359ZM192.6 14.3155C192.137 10.9705 189.978 9.35542 187.51 9.11364C183.412 8.71223 179.264 9.00436 175.177 9.00436C175.177 13.3072 175.177 17.4593 175.177 21.5046C179.177 21.5046 182.949 21.7063 186.696 21.4476C190.415 21.1909 192.183 19.0036 192.6 14.3155Z" fill="white"/>
</svg>
